<mxfile host="app.diagrams.net" agent="Mozilla/5.0 (Windows NT 10.0; Win64; x64) AppleWebKit/537.36 (KHTML, like Gecko) Chrome/129.0.0.0 Safari/537.36" version="24.8.0">
  <diagram name="Page-1" id="aVgiVNBN7Dl21VHaLG5q">
    <mxGraphModel dx="3381" dy="1123" grid="1" gridSize="10" guides="1" tooltips="1" connect="1" arrows="1" fold="1" page="1" pageScale="1" pageWidth="850" pageHeight="1100" math="0" shadow="0">
      <root>
        <mxCell id="0" />
        <mxCell id="1" parent="0" />
        <mxCell id="9r5r1A9ahPay0bQfyhCd-1" value="" style="rounded=1;whiteSpace=wrap;html=1;fontSize=16;fontColor=#000000;" vertex="1" parent="1">
          <mxGeometry x="395" y="30" width="1710" height="970" as="geometry" />
        </mxCell>
        <mxCell id="9r5r1A9ahPay0bQfyhCd-2" value="" style="rounded=1;whiteSpace=wrap;html=1;fontSize=16;fontColor=#000000;" vertex="1" parent="1">
          <mxGeometry x="1190" y="190" width="871" height="480" as="geometry" />
        </mxCell>
        <mxCell id="9r5r1A9ahPay0bQfyhCd-3" value="" style="rounded=1;whiteSpace=wrap;html=1;fontSize=16;fontColor=#000000;" vertex="1" parent="1">
          <mxGeometry x="530" y="180" width="465" height="480" as="geometry" />
        </mxCell>
        <mxCell id="9r5r1A9ahPay0bQfyhCd-4" style="edgeStyle=orthogonalEdgeStyle;rounded=0;orthogonalLoop=1;jettySize=auto;html=1;exitX=0;exitY=0.7;exitDx=0;exitDy=0;exitPerimeter=0;entryX=1;entryY=0.5;entryDx=0;entryDy=0;entryPerimeter=0;fontSize=17;" edge="1" parent="1" source="9r5r1A9ahPay0bQfyhCd-7" target="9r5r1A9ahPay0bQfyhCd-9">
          <mxGeometry relative="1" as="geometry" />
        </mxCell>
        <mxCell id="9r5r1A9ahPay0bQfyhCd-5" style="edgeStyle=orthogonalEdgeStyle;rounded=0;orthogonalLoop=1;jettySize=auto;html=1;exitX=0;exitY=0.7;exitDx=0;exitDy=0;exitPerimeter=0;entryX=1;entryY=0.5;entryDx=0;entryDy=0;entryPerimeter=0;fontSize=17;" edge="1" parent="1" source="9r5r1A9ahPay0bQfyhCd-7" target="9r5r1A9ahPay0bQfyhCd-11">
          <mxGeometry relative="1" as="geometry" />
        </mxCell>
        <mxCell id="9r5r1A9ahPay0bQfyhCd-6" style="edgeStyle=orthogonalEdgeStyle;rounded=0;orthogonalLoop=1;jettySize=auto;html=1;exitX=0;exitY=0.7;exitDx=0;exitDy=0;exitPerimeter=0;entryX=1;entryY=0.5;entryDx=0;entryDy=0;entryPerimeter=0;fontSize=17;" edge="1" parent="1" source="9r5r1A9ahPay0bQfyhCd-7" target="9r5r1A9ahPay0bQfyhCd-12">
          <mxGeometry relative="1" as="geometry" />
        </mxCell>
        <mxCell id="9r5r1A9ahPay0bQfyhCd-7" value="" style="fontColor=#0066CC;verticalAlign=top;verticalLabelPosition=bottom;labelPosition=center;align=center;html=1;outlineConnect=0;fillColor=#CCCCCC;strokeColor=#6881B3;gradientColor=none;gradientDirection=north;strokeWidth=2;shape=mxgraph.networks.wireless_hub;" vertex="1" parent="1">
          <mxGeometry x="240" y="350" width="100" height="85" as="geometry" />
        </mxCell>
        <mxCell id="9r5r1A9ahPay0bQfyhCd-8" style="edgeStyle=orthogonalEdgeStyle;rounded=0;orthogonalLoop=1;jettySize=auto;html=1;entryX=0;entryY=0.7;entryDx=0;entryDy=0;entryPerimeter=0;fontSize=17;" edge="1" parent="1" source="9r5r1A9ahPay0bQfyhCd-9" target="9r5r1A9ahPay0bQfyhCd-7">
          <mxGeometry relative="1" as="geometry" />
        </mxCell>
        <mxCell id="9r5r1A9ahPay0bQfyhCd-9" value="" style="fontColor=#0066CC;verticalAlign=top;verticalLabelPosition=bottom;labelPosition=center;align=center;html=1;outlineConnect=0;fillColor=#CCCCCC;strokeColor=#6881B3;gradientColor=none;gradientDirection=north;strokeWidth=2;shape=mxgraph.networks.hub;" vertex="1" parent="1">
          <mxGeometry x="80" y="340" width="40" height="20" as="geometry" />
        </mxCell>
        <mxCell id="9r5r1A9ahPay0bQfyhCd-10" style="edgeStyle=orthogonalEdgeStyle;rounded=0;orthogonalLoop=1;jettySize=auto;html=1;fontSize=17;" edge="1" parent="1" source="9r5r1A9ahPay0bQfyhCd-11">
          <mxGeometry relative="1" as="geometry">
            <mxPoint x="240" y="410" as="targetPoint" />
          </mxGeometry>
        </mxCell>
        <mxCell id="9r5r1A9ahPay0bQfyhCd-11" value="" style="fontColor=#0066CC;verticalAlign=top;verticalLabelPosition=bottom;labelPosition=center;align=center;html=1;outlineConnect=0;fillColor=#CCCCCC;strokeColor=#6881B3;gradientColor=none;gradientDirection=north;strokeWidth=2;shape=mxgraph.networks.hub;" vertex="1" parent="1">
          <mxGeometry x="80" y="404" width="40" height="20" as="geometry" />
        </mxCell>
        <mxCell id="9r5r1A9ahPay0bQfyhCd-12" value="" style="fontColor=#0066CC;verticalAlign=top;verticalLabelPosition=bottom;labelPosition=center;align=center;html=1;outlineConnect=0;fillColor=#CCCCCC;strokeColor=#6881B3;gradientColor=none;gradientDirection=north;strokeWidth=2;shape=mxgraph.networks.hub;" vertex="1" parent="1">
          <mxGeometry x="80" y="470" width="40" height="20" as="geometry" />
        </mxCell>
        <mxCell id="9r5r1A9ahPay0bQfyhCd-13" value="" style="shape=flexArrow;endArrow=classic;startArrow=classic;html=1;exitX=1;exitY=0.824;exitDx=0;exitDy=0;exitPerimeter=0;fillColor=#d5e8d4;strokeColor=#82b366;entryX=0;entryY=0.5;entryDx=0;entryDy=0;" edge="1" parent="1" source="9r5r1A9ahPay0bQfyhCd-7" target="9r5r1A9ahPay0bQfyhCd-3">
          <mxGeometry width="50" height="50" relative="1" as="geometry">
            <mxPoint x="560" y="310" as="sourcePoint" />
            <mxPoint x="480" y="422" as="targetPoint" />
          </mxGeometry>
        </mxCell>
        <mxCell id="9r5r1A9ahPay0bQfyhCd-14" value="&lt;font style=&quot;font-size: 17px&quot;&gt;MQTT&lt;/font&gt;" style="text;html=1;strokeColor=none;fillColor=none;align=center;verticalAlign=middle;whiteSpace=wrap;rounded=0;" vertex="1" parent="1">
          <mxGeometry x="390" y="367.5" width="90" height="50" as="geometry" />
        </mxCell>
        <mxCell id="9r5r1A9ahPay0bQfyhCd-15" value="Valve Controller" style="text;html=1;strokeColor=none;fillColor=none;align=center;verticalAlign=middle;whiteSpace=wrap;rounded=0;fontSize=17;" vertex="1" parent="1">
          <mxGeometry x="40" y="500" width="120" height="50" as="geometry" />
        </mxCell>
        <mxCell id="9r5r1A9ahPay0bQfyhCd-16" value="&lt;span style=&quot;font-size: 17px&quot;&gt;LoRa&lt;/span&gt;" style="text;html=1;strokeColor=none;fillColor=none;align=center;verticalAlign=middle;whiteSpace=wrap;rounded=0;" vertex="1" parent="1">
          <mxGeometry x="160" y="367.5" width="90" height="50" as="geometry" />
        </mxCell>
        <mxCell id="9r5r1A9ahPay0bQfyhCd-17" style="edgeStyle=orthogonalEdgeStyle;rounded=0;orthogonalLoop=1;jettySize=auto;html=1;fontSize=17;" edge="1" parent="1" source="9r5r1A9ahPay0bQfyhCd-18" target="9r5r1A9ahPay0bQfyhCd-24">
          <mxGeometry relative="1" as="geometry" />
        </mxCell>
        <mxCell id="9r5r1A9ahPay0bQfyhCd-18" value="" style="aspect=fixed;html=1;points=[];align=center;image;fontSize=12;image=img/lib/mscae/StorSimple_Data_Managers.svg;" vertex="1" parent="1">
          <mxGeometry x="676.6" y="268.92" width="60" height="81.08" as="geometry" />
        </mxCell>
        <mxCell id="9r5r1A9ahPay0bQfyhCd-19" style="edgeStyle=orthogonalEdgeStyle;rounded=0;orthogonalLoop=1;jettySize=auto;html=1;fontSize=17;" edge="1" parent="1" source="9r5r1A9ahPay0bQfyhCd-20" target="9r5r1A9ahPay0bQfyhCd-24">
          <mxGeometry relative="1" as="geometry" />
        </mxCell>
        <mxCell id="9r5r1A9ahPay0bQfyhCd-20" value="" style="aspect=fixed;html=1;points=[];align=center;image;fontSize=12;image=img/lib/mscae/Cloud_Services_Classic.svg;" vertex="1" parent="1">
          <mxGeometry x="664.9300000000001" y="520" width="83.33" height="70" as="geometry" />
        </mxCell>
        <mxCell id="9r5r1A9ahPay0bQfyhCd-21" style="edgeStyle=orthogonalEdgeStyle;rounded=0;orthogonalLoop=1;jettySize=auto;html=1;fontSize=17;exitX=0.5;exitY=1;exitDx=0;exitDy=0;exitPerimeter=0;" edge="1" parent="1" source="9r5r1A9ahPay0bQfyhCd-24">
          <mxGeometry relative="1" as="geometry">
            <mxPoint x="707" y="470" as="targetPoint" />
          </mxGeometry>
        </mxCell>
        <mxCell id="9r5r1A9ahPay0bQfyhCd-22" style="edgeStyle=orthogonalEdgeStyle;rounded=0;orthogonalLoop=1;jettySize=auto;html=1;fontSize=17;" edge="1" parent="1" source="9r5r1A9ahPay0bQfyhCd-24" target="9r5r1A9ahPay0bQfyhCd-20">
          <mxGeometry relative="1" as="geometry" />
        </mxCell>
        <mxCell id="9r5r1A9ahPay0bQfyhCd-23" style="edgeStyle=orthogonalEdgeStyle;rounded=0;orthogonalLoop=1;jettySize=auto;html=1;fontSize=17;" edge="1" parent="1" source="9r5r1A9ahPay0bQfyhCd-24">
          <mxGeometry relative="1" as="geometry">
            <mxPoint x="706.5999999999999" y="350" as="targetPoint" />
          </mxGeometry>
        </mxCell>
        <mxCell id="9r5r1A9ahPay0bQfyhCd-24" value="" style="aspect=fixed;html=1;points=[];align=center;image;fontSize=12;image=img/lib/mscae/StorSimple.svg;" vertex="1" parent="1">
          <mxGeometry x="667.71" y="400" width="77.78" height="70" as="geometry" />
        </mxCell>
        <mxCell id="9r5r1A9ahPay0bQfyhCd-25" value="&lt;font color=&quot;#67ab9f&quot; style=&quot;font-size: 27px;&quot;&gt;ChirpStack&lt;/font&gt;" style="text;html=1;strokeColor=none;fillColor=none;align=center;verticalAlign=middle;whiteSpace=wrap;rounded=0;fontSize=27;labelBorderColor=none;fontColor=#99FF33;" vertex="1" parent="1">
          <mxGeometry x="664.93" y="200" width="200" height="60" as="geometry" />
        </mxCell>
        <mxCell id="9r5r1A9ahPay0bQfyhCd-26" value="Postgress Database&lt;br style=&quot;font-size: 16px;&quot;&gt;" style="text;html=1;strokeColor=none;fillColor=none;align=center;verticalAlign=middle;whiteSpace=wrap;rounded=0;fontSize=16;" vertex="1" parent="1">
          <mxGeometry x="760" y="290" width="100" height="50" as="geometry" />
        </mxCell>
        <mxCell id="9r5r1A9ahPay0bQfyhCd-27" value="ChirpStack core" style="text;html=1;strokeColor=none;fillColor=none;align=center;verticalAlign=middle;whiteSpace=wrap;rounded=0;fontSize=16;" vertex="1" parent="1">
          <mxGeometry x="770" y="410" width="100" height="50" as="geometry" />
        </mxCell>
        <mxCell id="9r5r1A9ahPay0bQfyhCd-28" value="MQTT server" style="text;html=1;strokeColor=none;fillColor=none;align=center;verticalAlign=middle;whiteSpace=wrap;rounded=0;fontSize=16;" vertex="1" parent="1">
          <mxGeometry x="770" y="530" width="100" height="50" as="geometry" />
        </mxCell>
        <mxCell id="9r5r1A9ahPay0bQfyhCd-29" value="" style="endArrow=classic;startArrow=classic;html=1;fontSize=16;fontColor=#000000;" edge="1" parent="1" source="9r5r1A9ahPay0bQfyhCd-3">
          <mxGeometry width="50" height="50" relative="1" as="geometry">
            <mxPoint x="660" y="510" as="sourcePoint" />
            <mxPoint x="530" y="420" as="targetPoint" />
            <Array as="points" />
          </mxGeometry>
        </mxCell>
        <mxCell id="9r5r1A9ahPay0bQfyhCd-30" value="&lt;font color=&quot;#67ab9f&quot; style=&quot;font-size: 27px&quot;&gt;Dashboard&lt;br&gt;&lt;/font&gt;" style="text;html=1;strokeColor=none;fillColor=none;align=center;verticalAlign=middle;whiteSpace=wrap;rounded=0;fontSize=27;labelBorderColor=none;fontColor=#99FF33;" vertex="1" parent="1">
          <mxGeometry x="1490" y="190" width="200" height="60" as="geometry" />
        </mxCell>
        <mxCell id="9r5r1A9ahPay0bQfyhCd-31" value="" style="shape=flexArrow;endArrow=classic;startArrow=classic;html=1;exitX=1;exitY=0.824;exitDx=0;exitDy=0;exitPerimeter=0;fillColor=#d5e8d4;strokeColor=#82b366;" edge="1" parent="1">
          <mxGeometry width="50" height="50" relative="1" as="geometry">
            <mxPoint x="995" y="412.78" as="sourcePoint" />
            <mxPoint x="1185" y="415.22779220779216" as="targetPoint" />
          </mxGeometry>
        </mxCell>
        <mxCell id="9r5r1A9ahPay0bQfyhCd-32" value="&lt;font style=&quot;font-size: 17px&quot;&gt;Chirpstack API&lt;/font&gt;" style="text;html=1;strokeColor=none;fillColor=none;align=center;verticalAlign=middle;whiteSpace=wrap;rounded=0;" vertex="1" parent="1">
          <mxGeometry x="1040" y="350" width="90" height="50" as="geometry" />
        </mxCell>
        <mxCell id="9r5r1A9ahPay0bQfyhCd-33" value="" style="aspect=fixed;html=1;points=[];align=center;image;fontSize=12;image=img/lib/mscae/API_Management.svg;" vertex="1" parent="1">
          <mxGeometry x="686.6" y="724" width="50" height="42" as="geometry" />
        </mxCell>
        <mxCell id="9r5r1A9ahPay0bQfyhCd-34" value="&lt;font style=&quot;font-size: 17px&quot;&gt;gRPC API&lt;br&gt;&lt;br&gt;&lt;/font&gt;" style="text;html=1;strokeColor=none;fillColor=none;align=center;verticalAlign=middle;whiteSpace=wrap;rounded=0;" vertex="1" parent="1">
          <mxGeometry x="661.6" y="777" width="90" height="50" as="geometry" />
        </mxCell>
        <mxCell id="9r5r1A9ahPay0bQfyhCd-35" value="" style="aspect=fixed;html=1;points=[];align=center;image;fontSize=12;image=img/lib/mscae/WebHosting.svg;" vertex="1" parent="1">
          <mxGeometry x="440" y="680" width="110" height="110" as="geometry" />
        </mxCell>
        <mxCell id="9r5r1A9ahPay0bQfyhCd-36" value="&lt;font style=&quot;font-size: 17px&quot;&gt;Smart Control rules(ETc = Kc*ET0)&lt;br&gt;&lt;/font&gt;" style="text;html=1;strokeColor=none;fillColor=none;align=center;verticalAlign=middle;whiteSpace=wrap;rounded=0;" vertex="1" parent="1">
          <mxGeometry x="395" y="800" width="180" height="80" as="geometry" />
        </mxCell>
        <mxCell id="9r5r1A9ahPay0bQfyhCd-37" value="MQTT/HTTP" style="text;html=1;strokeColor=none;fillColor=none;align=center;verticalAlign=middle;whiteSpace=wrap;rounded=0;fontSize=16;fontColor=#000000;" vertex="1" parent="1">
          <mxGeometry x="575" y="704" width="80" height="20" as="geometry" />
        </mxCell>
        <mxCell id="9r5r1A9ahPay0bQfyhCd-38" value="" style="endArrow=classic;startArrow=classic;html=1;fontSize=16;fontColor=#000000;exitX=0.53;exitY=-0.032;exitDx=0;exitDy=0;exitPerimeter=0;entryX=0.394;entryY=1;entryDx=0;entryDy=0;entryPerimeter=0;" edge="1" parent="1" source="9r5r1A9ahPay0bQfyhCd-33" target="9r5r1A9ahPay0bQfyhCd-3">
          <mxGeometry width="50" height="50" relative="1" as="geometry">
            <mxPoint x="720" y="700" as="sourcePoint" />
            <mxPoint x="770" y="650" as="targetPoint" />
          </mxGeometry>
        </mxCell>
        <mxCell id="9r5r1A9ahPay0bQfyhCd-39" value="" style="shape=flexArrow;endArrow=classic;startArrow=classic;html=1;exitX=1;exitY=0.824;exitDx=0;exitDy=0;exitPerimeter=0;strokeColor=#82b366;fillColor=#FF0000;" edge="1" parent="1">
          <mxGeometry width="50" height="50" relative="1" as="geometry">
            <mxPoint x="541.6" y="740.45" as="sourcePoint" />
            <mxPoint x="685" y="740" as="targetPoint" />
          </mxGeometry>
        </mxCell>
        <mxCell id="9r5r1A9ahPay0bQfyhCd-40" value="" style="aspect=fixed;html=1;points=[];align=center;image;fontSize=12;image=img/lib/mscae/StorSimple_Data_Managers.svg;" vertex="1" parent="1">
          <mxGeometry x="1020" y="708.9200000000001" width="60" height="81.08" as="geometry" />
        </mxCell>
        <mxCell id="9r5r1A9ahPay0bQfyhCd-41" value="" style="aspect=fixed;html=1;points=[];align=center;image;fontSize=12;image=img/lib/mscae/Cloud_Services_Classic.svg;" vertex="1" parent="1">
          <mxGeometry x="850" y="724" width="83.33" height="70" as="geometry" />
        </mxCell>
        <mxCell id="9r5r1A9ahPay0bQfyhCd-42" value="MQTT/HTTP endpoint&lt;br&gt;" style="text;html=1;strokeColor=none;fillColor=none;align=center;verticalAlign=middle;whiteSpace=wrap;rounded=0;fontSize=16;fontColor=#000000;" vertex="1" parent="1">
          <mxGeometry x="830" y="780" width="140" height="80" as="geometry" />
        </mxCell>
        <mxCell id="9r5r1A9ahPay0bQfyhCd-43" value="" style="endArrow=classic;startArrow=classic;html=1;fontSize=16;fontColor=#000000;exitX=0.53;exitY=-0.032;exitDx=0;exitDy=0;exitPerimeter=0;entryX=0.394;entryY=1;entryDx=0;entryDy=0;entryPerimeter=0;" edge="1" parent="1">
          <mxGeometry width="50" height="50" relative="1" as="geometry">
            <mxPoint x="885.0999999999999" y="725.6559999999995" as="sourcePoint" />
            <mxPoint x="885.21" y="662.9999999999995" as="targetPoint" />
            <Array as="points">
              <mxPoint x="885" y="693" />
            </Array>
          </mxGeometry>
        </mxCell>
        <mxCell id="9r5r1A9ahPay0bQfyhCd-44" value="DataBase" style="text;html=1;strokeColor=none;fillColor=none;align=center;verticalAlign=middle;whiteSpace=wrap;rounded=0;fontSize=16;fontColor=#000000;" vertex="1" parent="1">
          <mxGeometry x="980" y="780" width="140" height="80" as="geometry" />
        </mxCell>
        <mxCell id="9r5r1A9ahPay0bQfyhCd-45" value="" style="shape=flexArrow;endArrow=classic;startArrow=classic;html=1;exitX=1;exitY=0.824;exitDx=0;exitDy=0;exitPerimeter=0;strokeColor=#82b366;fillColor=#FF0000;" edge="1" parent="1">
          <mxGeometry width="50" height="50" relative="1" as="geometry">
            <mxPoint x="929.9999999999999" y="749.3199999999998" as="sourcePoint" />
            <mxPoint x="1020" y="749" as="targetPoint" />
          </mxGeometry>
        </mxCell>
        <mxCell id="9r5r1A9ahPay0bQfyhCd-46" value="Sql" style="text;html=1;strokeColor=none;fillColor=none;align=center;verticalAlign=middle;whiteSpace=wrap;rounded=0;fontSize=16;fontColor=#000000;" vertex="1" parent="1">
          <mxGeometry x="939.9999999999999" y="710" width="80" height="20" as="geometry" />
        </mxCell>
        <mxCell id="9r5r1A9ahPay0bQfyhCd-47" value="" style="shape=image;verticalLabelPosition=bottom;labelBackgroundColor=#ffffff;verticalAlign=top;aspect=fixed;imageAspect=0;image=data:image/png,iVBORw0KGgoAAAANSUhEUgAAAggAAAETCAYAAABTBf6mAAAgAElEQVR4XuxdBZhcRdY97dPjM8kkmbgbkIQECE4CiwW3hUUDBBZ3WXSDBV1cF19cF/cQHOIJSYi7y7i09/u/c+tVT3VPT2YCxPbv933JzHQ/qVevXt1T9557rqNm1XQLme1/ogcsy4FYdic4nU44HA449F057N+sFjxqvW9Le2RTz2lZaK4VjdrNtjR1nU1tr76vlrSb+xp911S707a3qev83vY2027dtnTPPLXdiX3MZ5zaLt0/m9LejR2T0t9NtilNf6e2NxQKweV2w+VyyThPbC0YW/JIU55ri4b67+mH5k7cgrGVeIVT3+WNvRPm/TXXBvP7Zt4JPrPUvmv2nUjXlnTXaWn/8timxmrKvZpta67dSWPM4UAgEIDH44Hb5WrUg83NX0mv1ab0f0v7oLlnv5F+aK45Zj8EQyE4Hrts9ybvN8fnRk5OLnLcMRkYdcEowrE44HQjP8sFp8MBj8spoyZuAXXhOAJRB2DF4XR7G9riABwuh7zMlmUp4+VwoH2eD4W+GBxOFywrLsc5XB71dywCp8sNp8slD8npAJxOB1xeN1xOJ9yw4PM44OEXeuSmzCT2KdlcROMWAmELNWEgFLMQjQPhqIVARN0+x539G2IxC1keJ0pzAfaB28X7s1ARACoCcbALgpGY3LMaeOp48/ny80aTdpNPx97bNuqJSc+YcNNO6sb5+D2f0sBj70NWVpb8y2yZHvhf7IGVK1YiJzcH+fn5AoYzW6YH/uweWLhwIVq1aoWCgoKGyV1P8i39mQq+aCBaujDRx3J/jvE47a6z5cenAGcxTi1tt73fypUr0wME2ly/1y3/2hd44fO6xPqFwxGE4y7E4pZcy+t2wIk4vB4nQjEHaoIWqiNcvRovrZP35RRg4HSpnzSANPxdi/zwOcJiZOMEByD2ILBgp3iAeBQOpxtuJ+B2O+HyuODxuOGCBTaJRtwZYacp4xx1xYCYA5aL14AYerfDIeDA5XYiHI2jKhhHfYSrWCfCBAoxdSxxTn1YAQcadr8HKPI74XUDfpcyz2vrLJTXx+UeCBhMUCDPkQAIFrh21+tkDYpsHJHAMgJKNCI3wQT7xgZS+vwaMDQHEtiDGYDwZ08VmfNtaz2QAQjb2hP532tPAiDk5yev/DbVwDfVNabBbgpIbIpRNwHF730cKR6MJIDgcTkQjVnI9inPQF6OH638DmTRQtoWOBaNiFGkIXI7HQIUasIueD0OOFxeBAMhVMODeCSumkjPgVN5C/hTrdQt5QJ3OlGc5UK22wmnwxKvgcdNw0oDSYvvEsTjQAxet1tACI28x+uBzwYlNOpi0C1l4GnHHXGnAAK3OywG2BnzIeYKA3Fe34WwBVQFooCT7kkFIgjMfC4Hyurj2FDHawI+NwGIAzmuOPxZbjl3VdDC2hp6EAgOLMRhwSXGXN0nL5gKEFKf1caMvIAJtlkelAkfEt2p+tAAFub5MwDh974ZmeO2px7IAITt6Wltn21N8iAow5UUbkxakTd1i02t2E1jngoCzHO1FCCkHpPanpa0Q+x1cih65apVcDx+2e4WXff8KtvnRm6WR05fnO2S1bPL5Ua2P0sOjkVjiMRisGwDGYzGUROII+p0w+9WnoNYLIZqyy37mp4DdX0VYtAAgT/pGchxO5FFUOB0wRmPweHiyp3AQhlDn8uJLK8TLrbT40KW2wWPi58DkRitsgM+J0FAFixHBBGHE564AzGnup7bFYYVZ1DCBYfTUp4CxuslrmCJQfY5lfdgQ4BeAnoe4uI5KchyCHjgZapDFsrr4ojG43IMvQjsObZTvCDGg4nTa+Ek2FHhjdQxZj5DnktHSuyghZxPPy/78ASnoKnQRQYgbJ+TUabVm9YDGYCwaf2V2XvTe6ARQEg3gTfnsm/usubxze3b3PdNeSTM4zYGFFIBEAABCE9dsYfldjkkrl+clwOvMw7L4UC+z4LX6xNjTi8CjVIsFpd/0VgUVjyOungWausDqI974HIow8+lPI1pnNZWQgYq3ECPQTLQUZ4FghOvy4kcr0cMadzhELCQTUBA3gIAr8shxprXcLgJXFzwOmn4HbbXwIGog0ZdGVXxCoCxjTjicXovAIfFLy0BBcEIEIor3gQ9A+QxeBxxRCwHSEmoC8QkHEIPAvuN9xOMWqgPWagJxQ3wmOwPIGCQe7XBEI2+Nu4EKhok2c6UhOdD/a0ARzoOju63VM8Bz63Pr87hxI7H3JvhIDT3MmW+3657IAMQtuvHt100Pq0HQU3gybF887Omfm8J+TCd8U7XUxvzKqTu3xwg0Pub3AjjdwEIr9ywn5Xv98Lriosr3+OkYSdgANweD5xOZZDD0Rji8TiikRDC8AqhMBR1oT7uUEQ/23rpUIICBQoEsFM1i9RkHSu2Pb0ULlltixF1KLBS4HbAn+USvgGBQpZLrbIdHjc8bqeAASEu2jaa8EM/B7ZdvCJxB6IWPQMqJCBEPhp8OOVzkg09EppwwIU4IQWiUCAhYanjFsKWukd6HggUpJkSClAGWu+uiJQ00/b1AUQIeugcsUGDHkMSDpH9GgiS4tBI4SVoAGACWIO7KI84ERZzOND3yAxA2C5moEwjf3cPbGsAoba2Frm5ub/7fv7ogZzbli1bhi5duvzRU2WOt3sgrQchsVKzww2pfIQUF30Saz3dpJ1KWvw9JEbTyKe2z/w7FbykPunUtmsPwidjDrQKs5SRoTEiY19tyri73B543K7E6rYuEEbI8iISjaLOcgnZMBKOJciHwjuwfe46W0GBBduTYDfEBAouWnTDNPJvt8sNv4ehCwt+Z1xW9D4PgYEFl5ceC9VKwpmEEbUfAj0CBBw8J79nNoNkHOi2idGmx8PmR8jd0gOhLHQITvGQ8PeYXMMhGQ91EeV9SOf+p6NEAIzdLv6gE4UgJDVNRAEI3cs2KBVL3wAY+L0ib6qf+hwNY1JBCQEolroW77nXEc0DhPXr1+PWW29FcXGxNOKyyy5DUVHRdjs5TJ8+He3atUNZWRmqq6ux++67b7f38r/W8BUrVsjCwu/3o6Sk5E+5vZYChGAwiCeeeAJVVVXo06cPTjzxxD+c9TBp0iT06tVLsdsBVFVV47HHHsX1118vc+Dll1+OK664Ap07d/5T7rUlJ2FY98UXXsDxJ5wgmR0t3Zgueu211+Kuu+4Sr+O7776Ln376CdnZ2ejVsydOO/30lp5qq+6nx5jP50Pbtm3/lLY0GWLQhjbdVVJX7C1pSXNhinQgpDlOQVPXNUFK6nkTZr/BQyIkxU/HHGjlMyOORsZSJMFY3EnTI5wCrysmmQP0AdDY1oUdCEbiCDDG72AKosPmAagr6GyFhuvZHgQJJzROSdJGm8aam9qn4Xefx40CrwofMHNBshmcTgk3xF1sV4P1pHeA96FTV8Ww2sCHXxFUuJyKG6C5B+p5Kw8HvQiMR0SFiAlYsbh4QcI2EZLGnp4EeiQUGLDbaXsS2Ht2ZEWAAbcIsySMB8Z2EEyQBKk5GQliooEEpBsM74TmOejb5d8klWpwoJ63Az1bCBAefvhh3HbbbdKytWvXYunSpaipqZGJlMZ2/PjxiEQi2HPPPTF58hT4/Vno3bs3aIy5VVRUCMDo2LEjotEoKisrMWjQIPlu6tSpKC8vx6677irPc/wvvyAvPx+77LILfvzxR5mAgoEA9txrLyxYsABLlizBDjvsIOd0u91y3vnz54thKSwslPZ16tQJnAj22GMPTJ48WVZsNdXV2GnAADz11FPo2rUrhg8fLsaA+3Kiy8vLw+DBg/H111+LceJ3e++9t3isMtvm7wEarh7desqcMGDgANx1953ynNPPrXEsXLgIrjad0cVVhUWrq9C5W3cJP6ZuLQUINOazZs3CGWecgaeffhr77bcfCI45LseOHSt/z5gxQ8YcjSXz3rt164Z169aB19h1t11lbPI7vhsEng899BB69uyJ448/XsYRx1nnTp3QsVMnfPvNN/jyq7HYbbddceSRR+Krr74SIMH3iMaLPzkex40bJ+8Ax+fAgQPlGvPmzcOAAQOkr2icOPY5ZukZ2HnnnSXljvfDd43j+JBDDpH3rK6uDrvtthvoxXjhhRdw1VVXybzC95H78/3h8V9++aWAB6/PhyGDB2P27NlYtWoVPvrooySAwGd27LHH4sorr8SDDz4o7+HixYulnbxWOByW87OfNFhin/JcfL/nzJkjYIMLji3h0Zg2bRqOOuJoGSJ77rUnbr3tFgFwacdYPIZFixajQ8dOqKmuQmV9GD27dGwkq8Bjk7IYlJFocNU2tfI3QwmpHgNlHBMryDuP/Qk+vws9hxThsIt7Ycpnq/HTOyvQe2gx9j2xM758bjEOOqc7nrp4Ki5+ZheMOfpH9NurGAsmV8Gb5cKwUzrhv/+aj6K2Wdj54BIMO72bLHhlS3ftlOsn7dNEXFsAwhd3HWzRhS/udcsBryOO+ihBQhw0zl5nDFkepjZGEQYHeVzc8DVxF+K2ASVpkSv81I3ehQQpMeE5aNjLbbsrlKF1yAvndjlBgh83GheGN7IIDBwxuD1uMcwervRhSahAvBxCBGzwEnjptjeEgoSMyMwLh/KQSBiA4QCTL2Cs0tl5zFRgf0gKqt1keiK0V4Apkmy2fiZyfYYyEudsCB2oUEIDmCBAoYkySY0Jj0iqu4HpnwJGnIlQhgoCKfKjDm+wvTHLgR6HtcyDMHr06ARgO+ecczD2q7EYNmwYxn0zTiZOAoQ+ffoKOJwyZSpat26FIUOG4JVXXpHJ46abbsKBBx6IUDCE1atX4+hjjpYJgZPdf//7X+y11174bdYsVNfUyHk//fRTnHzyyXj11Vdl8nzvvfcw6uxRGHPnGNx5551i5AlMcnJy0L17d3zyySdCeP3LX/6CiRMnorS0VP7mWJu/YD4OP/xwmfQIYPgyc3LleOH1f/75Z1ktTp02DXm5ufj+++9xzTXXyHX4s3379pvfOmauIIZswI4DpSeeePJxzJ07F6ecegratGnTqHesWDUOPPB4PPfBp+jorMQ5516Aa574D/rk+X43QKCBu+Sii+B0MxMLYjQJFC644ALccMMNMoY5JgggOJZo1PbcY0888+wzOP/88/HGG2+gQ4cOAlg5tuihIligcSYw5vbkk0/i7LPPFpBxyy234JxRo/Dvp5/GP//5TzHWN1x/PW6W36/Gq6++giOOOALPPfccbrzxRtn/zjFj5Hu+U/fffz9OOeUUvP766/Jz0qTJOOaYo/HII4/gqKOOwueff46zzjpLjjvssMMEyLAdHP+nnnoqrr76agEwbMu3336H4uIifPzxx7ji8stx7T/+Iff8wAMP4O9//7v0A70d9CSaHoSVK1agZ69eAm74Ofvo8ssuwwMPPijXIMD/9ddfcdhhh2PatKk46aST5F0eceihePuddxLaFARQfJ839/bDDz/glL+dqsbYU48L8LnwwouQldV43IRrK3Dmm3Pw7Mk7o7q6Cnc99W/ceeON8KXhCKRNc2xqBd4UMDBX+ibIcDjwwtXTccY9A/DxIwvQqV8uJn2yFqMe3BmfPD4PPYcUY+JHqzD06A747ImFOP3ugfjggdnw53qx0/5t0H3nYtSWhfDa6Fk499HBePCMCTjv8cHIzlPjXLbUNrWExJjysAQgjLv3EMvtVEJIMYspgmrpSrc6NQni0YgYS4/HK0aXPIVwJIJAzEI9/e+J9hjrZFsISXsMNBmR/UUPgNZC4KFutwcOKy7gIAtxxN1eSXMUMSSSEsXQq5W900Uj38DhF2NsaAYozSaVKshN60vwbxIdNWeBP3UohWZXoI0NKLgvMyMUY6EhFJBw8ceBUBQiGMVUT90Gh63iZtp303OgUhftdhlfiPfA5jOYz1S4ErztBkWFBIglf0LCH8bF5PnBgS6H3NMsSZGI/6EHH5RJgxuNKl96AgMCABroJYsXIyc3V1ylCxYsxNlnn4U1a9aAL+SZZ56JSy65BPfeey/uueceeZ6cSPgsuDKjChknMK6CrrvuOtlnxq+/YsXKlXIdApKPP/oIBx50kEzadG1ycuYqiSsrEyBwUqKB50TI1QsnRXo7eH0CAa6oNmzYkAQQuKq78MILBVhw1cOVDttw8803i3HgpJ/ZNn8PaICQnZMtY7K+vh4PP/IQDj744EYXp1BaeXmFjAFuVZUVyMkvlHcsdWupB+HNN9+UFTtX/BwL9DpxxWwChLfeegvnnXeeGOcTTjhBQMBrr70mHikaWq78CXwJXLli5xg3AcK//vUvXHrppTIOCT65SueY5u8Mb9xxxx24+OKLxRC/+OKLGDZsOF5//TUZjwxLcJzyd3rueA56uOhhIGCgwR858ky8/PJLOOaYY7Bo4UIcfcwx8vlOO+0k3hB6COhW5/tGQEJQRE8IwQ3nVE7y55xzLm644XqMGTMGjzz8MHYbOhTz5s7FGSNHNgoxMETH++P91tbW4c0335D7I+Bh6ITvPPuAbeX7vdeee2HK1CkC+vju8vgRI0ZIn2+JTQMEhrD82X7U1tRi/MRfEuFTsw0MG5eHLbTiihNADbkjOTnJapz2AU2mOaYDCRsDCLZtSRUpokeA3uni0iwcdG53TPl0DY6/rh+mfLYKbq8Ls38qQ2EbH7oPKkB9TRRZ2S7M/G491i8JoLiDH8NO7YwHT5+InCIvdj2sLf5ydnc71d40CoZHIRUENeE1MPtLAMJX9xwqZyQ5kSJISrxAuVM8biASBSpjksyHHKYW+jyJcINi7SvCX33MEo8Cj+WDIOdAAQOnUkB0ORGNxhO/c0XMVTO9DA2KjAxpqNUxjb1i6SuTr5IhLNA7wEwHfi5ufFt4SfgTTMu0UyNl74RVV2EHchN4Ld4ezyceAEIBg1RAQ8+VeOJgO1VRdxypCQwbmMREcXhoj0SKJyoBCmyPgb631JcnQVa028x7M7MUZJzZXg7hXXA1LVoMdixCPAxOdD7k7hYBhNtvv10mQW50udLoaoDAifKpJ59C23Zt5WX/7LPPBSDQzXr33XfLhMkX6OGHH8FTTz0pE8PIkSPlXDQCnIj4Wd++/UAvEd2ONOKMdz7zzDMJgLDPvvvKCoyTOIEDJ0e+8JyU+cLTY5AOIBDQcFzxnFz9zZw5U1yxnCT5HUEBXaN0u55++umyWsoAhC0xXSdfQwOEK666ApdeegmG7Tcc113/j/QAIV6HK668GQ888C85yQN3347jLr4GnbMNRVb79C0FCAxZ0VNGkEvDzxU0QSI9SMuXLxdQmwoQCCJoDOlCJ5Akj8EECFwVc7yRt8MxSk/X/vvvLyCW7wfd/b/88ouEEzim0wGE559/Tt49jlmOS+5DQ89r002vAcKll1yC7j16iJGnR+PRRx8VTxpd/jTWzz//vADrfv36YZ999hHPgjbgDDesX78B69atxQ030FsxOgEQTj7lFDkXQxjsB9ODwHeO7z83AoCbbrwJrVoVy3xOoPCPf/wDJ514It586y3x7jHswved5yI44ru3NQDCBReejyuvulJCWlOnT0kLECKBalw7PY77dy+U+3vujVdw2l9PhqclHoRUb4A2MDpsbhrcFvAGnr9yOk69Y0d4slyoqwzj6Uun4bzHBuM///gVR1zWG4unVeDXsetw8m074sHTJ+Cq14bis6cWYsf9StBtUDFqy0N449bfcNLo/vj0sYU4afQODU6DdN4CE9jQiHFrRoVUAMKHtx9oSSqjx4m4pdz7Fo06SXzkHjicCIWjCMKpYudOh4QBaECzfV4x3vQ20MtQHY0jEKFL3NYfcJta6cqKKkKi0lfQqwMfvQIuJcjkZOOVTx2WUyE9FVagLBH5BxQn4uqZ3AB7lW97VKiNoJ+b2FmjU0RIyTb2/M7PeIORMaAXKg1kTvoQNGuwYeLjKUV6wTbkqaGpdNOwZCykyDFLBoS00T7CZCLSG2ADBPN8GogoYmIDUkyMXTjR/qDmAQLdpDSgeuOkw4mQrlTGErmCZ9iAL3uPHj0EPDCuzwnjs88+k4nsu2+/w9VXX4UXXnxRJgROqHrjKp+Tpf6MYILxVk6u/J3n4j6cVDgh8fy8JoEB28Xz0wvBe+QkTT4DV6C8Pr0IL730kgAS7sOJlj/JT+D5+TvPu2jRIlkF8TO6Hfv27StxXk72GRnqLQMWNEB46uknMX78BHz5xRe46eabmgAIAZwx8jzseeX9OCt3Gi6+6zWMfvBxlOb8foDAu2QbOKY5FvncCSoJYgkeucrlOOeY4Hjhe0Cjz+84njgmOU75GVfjXB3Tk8UxymP5GcMmDMcNHTpUvuOY4zU5Zvme0TNAHgT5OzwngQANMr0KPG/r1q3l3SOw5fF8HwhmeG22mxs9Emw/3f68h++++048Emwb28rvpkyZIvsSYHDje0IgwXeanhDeJ9uir8P3hACKP/k574UeQr5z7Ae98fw0FLyG1+uVe2A76b3gIkDfL48lsXHpsmXiTeDnW2LTHoQHH3pAuEkv/eflpgFCsBpX/PN+XHfZeZgxbTL++8NMPHr7tRJ6Tt3SchBMmyLGo4nVYLobTyEWLphUgZ672MRwy8LaxfVYObcGhW196D64CNXrQ9iwvB7dBhVh+ti1GLB/G6yYXY31ywJy9o59c1G5LoQ+u7fCjHHr0W+vVnBLbN3IsDCNjrarZrsbjF1jEShmMRAgvH37oRYNMY00AUDQNrpML8zxukW0iCCB69NIOCxgwOP1ip4Av8/xOhAMx+Fyu8TtVB5WZEYxfja3QLdD+AJCEFMree1257XiIsesU//UE+PfIo7koHKjUhi0Sz8kVtemfZX0xjQPW5piAyaejxwGghybmpDISpB90hhz/bz1il4RH1X4Q7dZHC8poZ+mvAXSHp24YZ/cBJ18liY/QV9fEx91fxKomLiCz6b9gc0DhN/74nIi++KLL+Q5k1fACYz/DjrooN97yt91HMMYXDFxwsps23YPjBlzp3i71HTgwCWXXiJg8Y9sLfUg/JFrbMqx9CIQJLdkIwAgL4A8nE3ZaMjJk+C7d+Bf/iKk38S8EItJSIEcn/9vGwHMww89LIsHblzsXn/D9X+4GxrVYtBnbAoUNOWyT+d5aIrwyM9NQ56woSm305SHIrWN6UIfPDbVc5Dq/bCPUwDhjkMty6Hc/PIaq6C6/KN7OCcegseXhVxPDHURvaJ3SJojwwNMRRSbLDcdR8iS/AcEhfkfl9/t2SFxl/QeSPjBKE6kXPYNq2KdWSDhCXo0JCygeATctP5Aok/s7IA03qIEqOKhlIXmeTSOEKNugwetpSAAQJMN7QsoWqTaSEhUfhCbJChBF/W3DmFIl9ihknSj1aYRNHxlKHmKboJ4SRoyIHRIQ6drShjHrnlhRziEI9LmL5sPIPzhty5zgkwP/Ak9sK0BhD/hljKn2MZ6oFkPgjbmCdvXhOE1vzdX9KlGXsyHkeeu+0Mb73SGzfC2N+k5MPtVF3zSP/U1dRv1vvb3AhDeGHOk5bYiUhMhHI0i7PLZq1IHPB4XsuNhIXLkeyKojbrBksIkEdLFT9RG4603GrRALI4wzadDcRDicbsaktFQAgRuyphqb0FDGWD9uTLcCiDYgoy25yGZoMdzCZ9BYxG7dkTifm2DKwDBzRCJMuiaICh4yMY4Knyhjkxa1dvGWp6xDWaEQKg/EK9IMnlU7tFuRKpHwDx3wsNiezDMdpukR90mFT6x22+3R4EJB9puRg/CNvYOZ5rz/7QHMgDh/+mD34K3ndaDkM5I60k51Sug4/zmMalx5qZ4DfYCvZGsrqwqDSCSChB0/6TjIJiAI9WLkOr9sI2TKCm+eddRVr4zhqBTuWtzXaw1QEljL8suyao+x+YaBCLRhPGMu7zwWVE5hrUJfB6PCAyJXDLtl52WR8Mbi8eEcxCLRUWZUUCDncGQ7plrgCDhBVmFqxQ/c0XOVTwLTOmNiojchKxIFUip09D47AQI5nFi1GnoLRW+SAcM0rn7uZ/2PqTJ8Ew7lLk/2yccBnsPLQ/d1NjX3gx9q7xvOY+0OfkocjJaksWwBd+zzKUyPfCn90AGIPzpXZo5YUoPNOlB0AZCG1kTCBiGV/PwkgxKuvCEnsQZsqYsgJxPrVhD1WGsWx5Ax/4FsJhWLwtb09Vs8/VSn16qpyI11JAuzKDvyzhWPAgECFLamUlyXPEz1ECBJEP/T4w8RZLiKnuAqYpuKw5WaGBqHfdnhgC5DLrSoU4UVBELZjKo9EaCA6Y2Nron+wNTfZESyPQgqDLKWq5Yuf+1nLF5HoIE3p8mBWrRIr2PJiqaAME09DqMQAEiehma2lIVH0yAoJ+3fiZsAwGL/pwiTAzUsD+FjZHG66CVIU0VRY0FpDiVmdFg129Qio0O9Dy8eR2EzGyQ6YHtuQcyAGF7fnrbR9ubBQh6gk9126dmCJhegjTcA2rrVK4JorCdD+uW1KOkSw4q1waQledB9Zognr5iOq55Y3fcdviPuPbtPfDKjTNw2IW9sHJBFXYd0QEuj2Gn0nkO0oUTTICQ2j7j8SQAgv6MVQtJVgw6PXBZMXhiEcDnhxtxRCSd0RANEgKh0gOWMEETJA3tMdC8g3TDQ3MYlJtfpSFSy5GmUIUDdBlkOyafCAkkG3Gpq2AQFTWpT1tUZjl4Upb7EsawSZVKLEqpIRJEmDwFk4OguQqJMIXRDGc0hPy6WtTm5iLi9CXSIXlPtO36WvpYggSTM8JuVOEClR3CrJIE70C0EVRapgYR+h4VANm4kiIJTkztIrO/fWkpxn79NW6+6Wa075ARDto+pq1MK9kDzQEE6mNQbIjph8w4YFYAUwnTKblmejTTA+l6YKPFmswDtAFOZ2hNsJAaU7YslC0PoKBdlgCE/FZe1JaHkVPsQX1VFL4cN6rXBvHCdTNw8bO74PYjf8Itn++Du0/4WZQVnzh/sogkff7kQgw7rQva90pTCz0U8gkAACAASURBVKQpu2y2JTVkofPtdS0GehASK2w3yYNKEZAvE40kV79ULIwY5ZvFxpIgZyyXFWHOLoqUFKux6x2kSC1rA6lBgXg4hEvQwEsQoCD/VIhBaxzI6c3aCnbsXtdDUEWTGiSTNAAx5ZET92yv5tMNkkR1SNuwa9KgblcqJpLqkIijoKpCIEdNfiEiDo90kwkweC0ztUbAg+0tUgBBgQJuUirarrXQFLgS7wpBk9OJroc2LZREHYJzzz1X8pWZ6sV0pCsuv0LUDJlPHQ5H8P7778n36cRseH0KyjANikqFTOVimlZLtscee0wEaVJljpkKprX69XnefP0N/PWkE1ty2sw+/w97YGMAgYDgpf+8hH+O/icow0v1TwocMfuG4kVcgDAlj6m1NAJ/+9vfGgnl8Bx8N/iOEFzsuOOOLe5laiCkqwVCbQNKgettwoQJopmQ2bbNHmhSalnbtnSegXQcBWM/TcJft7gexe39on9AHQQeFg3F4cpyIhai7VXu5dqyMP5z3Uyc/+QQ3HvSz7joqSF45545IsH8/gPzcc6Dg3DX8T/jxg/3xvNXTcex1/RBu+52emlTfAnd3abxSpc5YVmq3LMGCMxIMN37YsSoY2BbYpVGos26Sidh6Weta2AWX9JtUEJJphaCIiYKGLDTBFOPS6gT2ieRio/83Q4daCChMyCYbqiKM6mVuHgJ7NRIGnTtxtcoSGMauxxDQ9KGfT0x0JrvYLj/hQugyY5pog/aoHM/N2Io8KuaEZV1EYSlJqVNyrSNuW6P1lTQf/N+WK6af2sthKa8QJpYqZ8KeR/dR6QHCBRuefvtt2VCpC4AJz4KEzGfefq06fjLgX+RnGgKF1EApVOnzvjuu28RqA+gZ6+e+O233ySdkepwVCakSAtzyjnxMm0tOzsHgwYNFK2BqspKHHPssUkV7igBS413SsBS133FiuWilcB8bf4keGB+d0VFJepra5GV7Ud5WZmkk1K4hZr5++6777Y5m2RatUV7YGMAgQJgVOqkuiAljSlNzI3SxhRKovYAxz/1MwgYqApKVcHBQ4aIsBHTEFm7gLoIHMv0tjHfn+8G5ypqIRAcv/vuf9GjR3eR+jY3qngS9FIvgO8L5ZGp+0GPBkWbqNFBtVJ68/guUpacOgQ8P/UTKCGe2bZ+DzSppKiMV2M2ejOf0d6Vrwggu0AtGEO1UWQXeVGzIYSCtj5UrQmhqL0fVWsC8Bd6EQ3GUFcTxsvXz8LI+wbijVtnYsiIUlSsDknqf6A2glYds7FidhUG7N8WY19cgtNu3wlvjZmNM+4dAK9PVwM0jJUZ/27Ki2Dch4QY3rrnGEsDA9NYS+xfSjDrokTkDxgVEBshFGWmkg2+1j1IfuAaJKhURpt+KJ6ChuyChlV/g0SyDmWIFoJRa4HGXpQSXQ4FFuw+UaEK9SwTGgYJBGX/0gTVoImIiS3L3FBnwRwvyt2vRJo9TguFficCUaA+rESehG9gX1ZXYTR5lJq/oes9JICW0X1aPlpzF3TWhXiT0LQHgYDgl59/wWGHK7XBb7/9VgrOcMJ8+eWXRXGQk9To0beIONFpp50quu2c7ChKxNzt/v37i6HmioyTHCdanouTHqVfOQlSNIZKdTwfV2BcKXES1gCBuu2cnPnC0FNBYReCF3owPv7oY2nfq6+8Kt/98OMPolhHeVxOtluyQt7Wn6IyLWiqBzYGEKgmyDAaFxYExByzFMmisBDFiSjlTOGi1avXSJ0RglLuy1oeNNqUZOZ4pweBXgaCBhZcovzwbbfejosuvlDUB3luCixR4ZByywQiHMMECNQL+eCDD0Tt8I3X38Bxxx8n8s0EKCw8xmvQ88ZrUn6ZwIDiYCx2RtCe2bZ+DzSqxZC64t6YCmEKD6GmLCQVhbNyXShfFUSbrjkoW1GPwrZZqFobRH5JFirX8vNsrF1cJwWY6mtjCNaF8drNs3HUZb0wZ/x6lK8MYdBBbfHDm8tx+EW98OroWVKD4ckLpuD46/pixrh1qC2PYMSFPTHpo5U48JweTReYkkW3obtghyPohdaeDgEI79x3nACE1K2huqLi6tODoGN4iapRclCDV0GbP306nc6o9zKvw99bOepQEKjBKl9rRFyepLCBua+uo6AzGaTgUgq5j/swPMEwg/YmJGL1hvJhU0MvldDY1H4acJipkJo0aaYf8to03m1zHagKWagPNwhviXfA4CPwgXD8sQBUEm/C0GhI8CE0kLLDLxr4sD9YXGpjWQy6WBHd/JzEKLe60447olv37qL0FggEpaAMwws00M8++6yEHdq1a4toNCY/qc5G9ThOuJzsOFly0qXc64cffoiZM2agW/ceOPzww5LK+1LuuFfv3liycBHad+iARYsXyTUoGMNqiyxi8/JLLyMUDqOosACTRRnOIbUcHnjgfpHIzWyZHmAPbAwg0ANG9U8WEuN7xUmOP++77z4x5FQVZAiBFf/oVaBXioqCHdp3wNfjxglYHTnyDBm7n3/+hQB+jlOGBx64/0GcdfaZMhe+/9776NW7V1LYgG2j8WfFUyoX0hvAd6WsrFw0YVjYiMqGrIPCejYEzix+NH/efBx+xOHimSOwzmxbvweaLNZkxvVNgqI2etro0tDGLQSrIvDmuVG2vB5FpX4Eq6NwsNaQ14VwiAUInYhG4rI49vpdqFofRHGHbPEsRMJxvHrzLOxxTAcUtfPho8cW4threuPjRxfi8It64qNHFuCQ87rjsycX4Zire+O5K37FRc/sgpdvmoGuOxZg/5HdpPKj25uGCa+7OJ2Wgv2dAIR3/3W82DUafXoIGDJQFRhN0KCIg4kVbYoMoDLm5v52kSVbC6GBfNiwD09f6Aig9doVWN+uM+ocfiHgmdoI3JvGnsZfb/QUaNc699X6CCRY2pzJRCEmWaULuz/NZmgfsI9Mj0vDfTZ8bhZGSj1bqucmkYpiqWyI1tkOVNVFUB9n3oct8mSTIdkPBAbSBiNTgzdpglbVFw2pmKmARgiWzRRrev31N7Bhw3pcdNFFcgtTp07Dk08+gccff1y4AQqoaIXIht+TUnbsmzf1K1J/12DSBHn8TOliKKCpr8XfTfCp99N9zKJRy5Ytx7Dhw7b+rJFpwTbRAxsDCPQCsGgRQ1b0HHBjcSMWO2KpcD2W9VhMHZOymLEnO3MsmvtxH/1dKvFRj2tdxdYc79pTq1X/zDY8/e+nMfLMkSI3ntm2fg800kFIXUSbcV81aJQKov7d3n/d4jpkF7rh9blQuTaEks5+rF1Sj9Yd/ahcR3KiT7gGeSU+kVdmZWUWYCJhkbWL3rp9DroPyceeJ3TGs5dOxX6ndsG6pfUSguizRyu8c89cjHpgEF65aSaGn9YFK2bXYPmcapx2x064/cgfcfx1fTD44HYNIREzq0F3cxPucgEI7z1wvCWlhG3DoO+PPxXBUZEG1ffJCX6qD5TxTuUv6M8ScsoEIHboRocSeLYeBRYiTheWVakLJmL19gqZIQPtMdAES15RpyGSs8DshUYeH3lYyt3P9MsEwLObLH1i/24CBK7gzUSHlnoWzCGttBUaBJW80QCs5avgbt8Ode5shFloSpMQCQ5SEIzgIRv0KZymwizpxqR8zmuxFHUzAIHPkHHV77//AVVVlTJhkijFVdW2upGjwPZlGOjb6hPa8u1qLouBobKffvoZkyZNlFABV/8MB6TzlG751qe/IkN5GXCwrTwNCIGVntECLWndFAExtclSrNDChmX18PldyGnlFe5BbpFHFuDBuhjyir2oq4jAl+cSUqIUIcx2o2K1ymZwuB0I18YQDsfw7j1zkd/Gi2Ou7ItPHluAcCCGQQe2wVfPLcGIC3ri29eWSj2GlXNr0XfPVvjmP0uljPTj50/GQWd1Q49divHOXbMx8t6BUg25yS0NSLABwgmW4hooB765gqQ3QRt+/b0JIDQ4MCdvzR3QXgPur+sp6HNoo0agUJztRKcCJ+aujyGii0wlshcoaqQMtj6fVHu0jaYABVv7QLVLESl5Xl0rQa6vjagNZ0zPgsoaaNxtuit1WEODhnSAQRt0g04hJ9TERopfeNatRFYwhFBpR1Q61SqBegs6g0G3gNcl2FFaDg0PVIdL5CNJMVUZH1L3Ik5lS5XF0LEFxZq2ndcw05JMD2x6DzQHEDb9jJkjMj2Q3AONSIrm16YxTXE980+u/nNb+VCxMiDJfnmtvahcHRQvQX1lBFm5bgEK/lwX6qsjyCn0oq4qIhoC3DdUF0M4GEMsGseHDy1AfXUYh57fA/GohR/fWi6AIFAXxfwJFTjhhn54+tKpOOPOnfD6rbPl7w8fnCeFoHYc1gb/vmQqDhrVDQMOaIvsfEN/qJHbu7FUgQCEDx76a5J5VN6Chni5CjUkG6p0XgNtzFLDCSZQSAVhNOQ+twO9WrtQWR/DmroGoiINoNItsDMUmBFhyCE3lVFghoJMo2tmMaSrlKj3NfutJS+NDoMksj7tC6WWakY8Bv+KxXD6slBe1A5xh6prwZRGuaZGIto7YqdGpmI+godEDQujdIYAJDhQkqnF0JLHltlnO+6BDEDYjh/edtL0ZtMcTYOhjQ7T02NAxZqAeN7z2/hQvS4kIIEggHoHRe2zxKNQ1C4LNeVhZOW5EY9YAggIKoS3UBOVhXokEsfnTy3C8t9qsPPBbdB9UBFWzKnBmkW1Qlb87bv1iEYtCSF889JS7HVCR8z4Zj3yW3vRf+8SPHP5NJxyq0rR/e99c3Hq7Tui844F6ePpCWPZYHEEILz/4AmJLAa16lUaCA3hBFPboEHTINVdZ2Ym6N+lpLFR9VC3QekUqHAFPQCleQ7k+pxYWEYCB9MDyTtQ4MAs0JQ43hY20lwE7aLXxtocg5ouobkl4jFIw0vQq32zjem8SqnjW7QXKAkhnZfc9/o6PDdFphAJo7XPiYjbiaqwI0kKWrdPn9/0Bgl2sMmJCgiYPIyGFlFYqeSATLGm7WQOyjTzd/ZABiD8zo7LHNbiHmgyzTFdqqBtKCJMTawMI681jX8IkfoYikqzRPiI3oCcQg+q1gUle6GmIoKsbEors0pyHFk5bjicDgRroyKr7PI4EQxE8OObK7B0Vg2sWBw9hhSiXfc8rF9Wh6q1Iex2dHtMeH8VCkp8QoAsXxWQxSbLRX/wwDzRSSBgmPDBKhx+aU+5Lr0IhW1snkuq0TH/djhUueePHjnJ8CAo/7XJNdDHaIOe6ikQg2V3EH+kJComHogWKUo+XoUffM4Yult1WIwcWC4WZlL1EuhCT61zwA4wXR461q/BgiYt8sIJw20Yb2209XEmEEwCFilL99T9tZEW0qRWNjQAglkamuqMQk60+Q1FWQ4BDJUBRdyzozsJDwnboetQCHBJGdbK99CYd5EBCC1+/zM7bsc9kAEI2/HD206anjbEkA4cGPfD+Z1Ew1B9VLIOaBgq14SQX+JFLBJHqD4uXIS68jB89BxELUTDcfiyWacojliEXASXgAWnnSygT0/jP298OYK1Efhz3ahYE8TKuTUYfkZXTP5kNQrbZSFYG0Npzxz8+NZKnHbHjnjrjtlweZ047to+mPDhavz09koMP70zhp3aRZ12Y/eTDBA0MFAeAq13QJGjdJvWIDCNvXgNEoF7XYnBrjVg1+lOPZeuieBFFKWLpsPXtj1WFZVKG3SMXQEQu/yxvfLXoCVhw229A1NmWTIa7LCKjQ+EyKc3rUOQNsNBCyWlFF0wlRTNmhn6nCY/QYCMBUR08SpbZEnuBxba5bpQHYwiGDNIFPZ1TZCjz52a/sh7TeWVZADCdjL7ZJr5h3ogAxD+UPdlDm5BD7SIg2DE4gPVUfEeFHXwixlcv7RedA/yW/tQtioohEW3zynkxLxWXvEUcAInOTEciAo/QXveE81LXeHbxrBsZT0WT6uEL8uJL55ZjANHdcfSmVWSGTHnp3IceUVvPHLWRBx9dW906J2Hpy6cJtkTZ943EOWrA8gt9CC32Jfs7k7jTRAPwseP/s3SQKApdUOTR6DaqEyzNtANgkoNEsg6Y4H7JaUu2jgi4VEQEmEcHapXAmUbEOrdH0FXlngP1KZUBjQ5L0lzwE6D1B0qJZ/tWgw6TVPuyRgQ6QBBwvjaPABNotS8AAlh2AdqsKLPk8hAMLwHWh2RXgIpUGV/p4064VOWI452BW6srWXtB0U2lL4yAJE5jlUb6XFQypIJkGTc3KYAhPKychQWFYpQDMVkVq1aJWlhFJGh0iEFjigZy/bPnDlTRF0+/fRTESxiKhkV5ailQDGZffbZpwWvXGaXTA/8OT3QUoDAdMIpU6ZISiLVOocNGybKocuWLUO3bt1kHqNgEXUQvF4vcnJsmdo/p5mZs2zhHqD2BEWtKN5GGXjOU3zm/JtqlswUoQaGVsvcWFbLJikp2i7gYF1EPAYutwOtOmUjXBdF1fqQrO7pHeD3Ba2zxEgzk0G8B3luuL0qGSAp1z7F3Z+awkarNvfH9VKzYdrYNXDCCX++GwUlWfjhreU4//EheP2237BmQY3UbAgFonjx6hkI1sdwxl07oceQosZchJSYugCETx8/tZFQUsPKXDVacRIajKR+7rqDE1kDNFx2RoSJhswHkTCAts4CT8tffVYEHQLrESpujXqHKnKkUIgiJ4p5tAP9Ur7JTgPUXgNtuBNcCNvYiiiRrpyoww46xVFnGhgcQQkFyLUUedDss0R4I01Z7lRjzrYK78DmdQjGMLwIvOcsRJGf40FVfRRRy4m4vlNDAVKf1yTLNsWN2BSAQBVECsq8+uqrGLbffgiGQiLUQsW4eXPnYeCggSKDTFAweOfB6NO3jyguDh06FEuWLMXMmTMELPBF4kvJF5Fggi9lZsv0wO/tAc4VzaXdthQgUPSISofPPPMMxo4dmyjeRBllCnwRGFAj4ccff4LX65GU38wY/r1Pbuscp8fLurVrRVxNgzwubqiCSVsRjoRl3rr77rvRr19/+HxemedaDBDSGQJjEtZAgAbaX+BBNBiXUIPH65Q0x7qKsHQO4//VG8LIb+1BXWUU+SU+AROJzSA7attnG5CELUwFCqsW1OKHN5aj55AiLJ5eJXyENt2y8cW/F+HwS3ojp8CNDx9eIB6LIy/rhfa9c/HjWyuw3yld4M1KI8dsPEYBCJ89cVqDLTYMpcTG7dU/jzELHbHThXyYMOINef+mt0DsezJBPyFmxPNL82yPgtdloVW2E9leJyqCimigif2633RBoyS1RLsN2uOguQG6aS5HspXXg4Kph/oO7HpI0lZt3hhm0eRA0zib2RDyveGSMMmPjaSdbaCgMI+Sg+b1/K4Ysn0uVAUZjtDFqVTrRR0xlYCwkfdwUwACC9Zo2VnmXxN9ExBQ8rVd27aiaEgd+pkzZqK2rhYjRowQuViCAdZloOLbqlWrUVlZgbq6OlGNY59SIc4YFkZrjRBUc3OJZnza+zUVBkqcxthBPTXjnTP9R6kpISntSP56M7U35Wa2r/amtlZzjuyObHH/2jum2Z/vhsfTuBy8+ahaChBo7FmXgQCB+h8c7xzjHPu//DIebpcLo84ZJWqGsWgM+w3bz2aPN4zh5obq/+L38VhcYuDbw6bHy9q16zB//jyRq6bk+7HHHINAMCgCcHz2VMyk+uXBhxwsXiR6FDa2NSmUZKb4qclc5r1IyBKPQX1NVNQLc4vIK4CAAyokerIYXogiK9+NUD21EDyioiib6Q5OSZts9D0/SGnD6oW1GPfiUvTfpzVmfb9BSIjURPj2leWSQbHPSZ0kq+L7N1Zg0dQKdN+5EH+9qT/8OQnNgOSusM+fBBBSDTv/1oqKauVsSfEhLQus3221kk8GE6azgUZOxdTVql+nJ6pPGjQOOB79zihKC30CECKxxkx93S9KOMm+pr3iJ1tCAI3B8NdtU3evZ2bFsdDgQ/9MSCfb59OhAf38zB40n6EZfjCJiaa2QsOVldE3uSHsgzyvBZ/bieqQUcrZ7kQChDTOm7Rje1MAwvbw8mfamOmBdD3QUoCQ6b1N6wHOeUyXmzNxjXhxegxshb3+2klIdP/ftkYAwTQEpkfBsqR+AvuIQIAEQ5IUAzVcalrw5ymwyxU8CYjMWuC+rOKY5KI2jb4YSq4WbQCRCkr0wzCAxZwf1ws4YOhg7s/lErYY9Jc2WDmvFtPHroU/14MBf2mDHfctwZpFdZj57Tqp5yA0w1SXtAkQvnjy9LS1GESExyIosMspGTK5mqCnUyIT7bV/kbCBUVBJx8ylHLIteiQFljRIpdGMUx0RaJ/nRDgOBPmfUfqZpxYBoSQJ6IZhK/dpwwAlMtTwnf41wRswSitr6MAwROpKVZdaNi06oQWzLKJmlaWEaqIOgzSIJPEeaeS1uqJul26T8BLiMeR7HfB6XKgLWxIS4TGSHrkRD0Kj+8qkOW7VeYwrL+qq683tdaVIlm/V5v3PXDwDEDbPo1zyawW+emU29j27tdineeNqsWRSCEdd1k/y57dlJco/u0c2ChCSVouKZ1ZXGRH543AoDo/fJZkG9BDUV0VkTqA4ElfHrL9Q2M6fvEoUI2R4us0VpL6WZr3r2Hrq/g4Hvn5hMdYvqxddhEXTKzH7hzL02qUIQ4/pIKTJeRPKMOGD1WjV0Y+OffNw2EU9kVPgaTCWjAqkFmv68qkzEnZRDJ9dD0EZTgsuhxOxeBxuI+0iVVZZAwB9L2Y4ghhAr9IJAMRrYP8UjQPb4PO6/DvLGUOh342aiGpWKiDg+dLZTH6u8UY6WWJd20BzEkxQ05QLWwACNxsNECpZLrcAG/koZWnPZ7axmg0CcuyMDAGkdoMZhnJaMeR4HGDZ7XKGWOy0yKYAgva+mNfMeBD+7Gli0863cHIZ3rx9duKgM+8fiHbd8jbtJJm9m+2BrQUQuPpTEujNxFKavYNtbwcaueeunI7dTs5GnwFd4XY6UV5ZiQ3rN2Dc45XoO7Qdhp3cRThm/x+2JgFCCh+BXAOCgBzWW8hm2ICecku4BiQhsr9yi7yyYKUwEqWUPX53Y918MQgpfZvqVdAdn+pdsI/dsLwe7949R2o5HHxud2xYUY+vnl0sOgytO2dj96NL0WvXVihfExTRptIeucKDaGpbuWIFHF9pgCAremWxTLsnv4vhi8ugSfdy6NUxD9Qqf8q4K1GiRHaBU3lOvG5VZEmHCcTY2XLI/FmS40AoCoRt+yzf23eR6m5XYkzqWg2hAzv8IKtzQ6fA6AnNNaDzLJ33QO+q5KHVpo1/6iuia3QIlkhBL7o8s/accB+PSUzh39L3DkSDAeTlZiEcA6rClrTdLLaV7kFqgMD+jFsOFO2fEUraWhPYgollIneqt1EPDRRhk8z25/bA1gAIrLLH1DGW5B314M7bTYy+pT3P3Px3H52Kwy7qJRUnE3NeNIbVa9bg66dXolOPEgw/vVtLT7ld79dISVEb8DQrd9rEQG1EiInUNuDm9TmR29onoQQChao1AbFTbTr7GwvY2DZGVu96wudJzGqRGysvbfc0T8Myz+/cNQ+tOvgx8u6dUNI1RypEfv/6cnz/+orEM8lr7cFBZ3fHbkeWNu1BIED4+umRFg0rjbsm+mkvQurq3QQHppHUoQJNaqSRNwsQ6UwDSifzHAy/pAINIR7aZZy9TiDb47Dd7Q7oCJj2rui7lDakphmkCRU0GPsGb4aZVaBTJ/ls03knNEggQGhUI8HOeDBDDiZHIXGMTr9MpHkqSSkzHBJh4aZQPYoKcsWTUx6wZZjTgMt0b18GIGzdOSkDELZM/29pgDD3lw34/Nn52HNUDioXOlFc3AqDDyndMje7ha7y9l2z0WmwE4OHd29EEmWa6Nq16/Hpg8tw0Mje6NivYAu1autdpkmpZcPm0C5QNjkWs+DxOOHNccOfo6R1dd2hQGUEgbqILLKz/C7kt80SI8QaDB6fU7gC/F3bDPIYSHKksFIkRIVFRSSkl4JER4/PhUBNRLgNTJ1kWJMghOcg/2HNglpM/GgVfvuhDFTz5/F7Hd9RPAf0Znj9Trg9LkRCUaxZWCeExUaeC7vblQfh32dYDCOkI3srlT9V/tc0ymKoDaOVqo6ob1YL/ihpZWX0zRRF090u57cJjW6HA3leIBBVzP6UBbfsJ6JHhrs+dSglWqzbHo9TRUBEinT2ggI0DTLJNOY6PMHvVD3I5jdJjbJ3TvFAycFyTjt1kWEU7qpBD0ETNx4fjluI0uUSqEOb1vmoi0BAUks3y+FA4bCMB6Gl/fVn75cBCH92j6Y/35YECKvmV+PDh+dg+IWtUNq+BNFoDM9fMhsXPzNUEc3+BzbOX4+ePQF/vaMr2pa2TXtHBAmL56/E+7euxOUvD/2fDLOYN542xGCAA9mX2Qv2/Cw2j/UTAnGpuBgKxuCSkLFYSln8UrMgK9eDh0aOx/4ju+KX91bh4HO6iYGOxyxM+3wNdhpWIjaHXIHhp3dFhz55eOO2mdhhnxJ89dxSHHttb3z9whIcfU0fTPlkDRZMLsdZ9w7CExdMwQVPDRGAwGtXrKzHgskVKF8dFmIkaz3UlIWEK0GgwNB+372KccptOyrTn8ScV0x6yWL45pkzVVKZ5UCP3Y6Hw+lWWRcAFo1/vUEc0e49CQVwJW0XC/B5s1HSYyhWzxmXxLNIUjWk4bfrKvC86VI/eTotW8zXLtujQhABoiRWaLSvb3ouhNuQoi9hAhmnneLYsKLXbAgNLhrOFourDAJ+Yno/TE5BU3xBnfEgZaONdgoAIaCUn/a1YnE4XE7QS6K4GsqTRE4mCzfx2rFIFN54CEWFuagKWRJu2ehmAysLTuTuexeysrLkX2bbsj2QAQhbpr+3FEDgpPrSdb9i8Il+9NyhA/Ly8mTB9OroGRh6eHv03LX1lrnhzXyVFbOrMfWHhTjglD7Izs5u8mpMEZ04dgHmfhUWVb7/RS6GvvmNpjnaQMGKPAlPZQAAIABJREFUxVC9LizlmZNW2IYR8kgsHbBikNW7y+fCgknlolvwyk0zMfz0LujYt0BElO498Rdc+9aeeOmGGWLU6Uk47tq+uPuvP+OG9/fC1M9Xq9TJsjAK2/kw6dPVCFTHcPKt/eX3Iy7ug/kTy7BmUb3w25hqSSXHorZZQowkcKlYHZDWla8OSgZD76GtDLkC20bZBlMAAkMMPMDjdqPL4GNR3HU3hKpXo75qtQAE6Qv7hgef8ACmv3N50sDIzylCj31H4dfP7k0YR57f524wgFqamSBBb+xTvWLXqZC8KfEq2CAiz+dAMAoEYw0chHSjNy1nKKUaYvI+SvzJ3HSYJZVfIORRQVDqp/5nggWd+sn7MTkDGgDoPtQhGHoPdJlq7YrSAEF7IMKhELIQQ3ZuDqptlGpyHZIab/eZ5XAif78MQNjM8ykCNWEw91hvHXrnS+pSBiBs7p5X599SAOGDB+bC164eux7cBUVFRYl5b9H8pZj9WQiHXdx7y9zwZrwK558nz5+CfUYVof/OXZRneMoEYNc9Gl2V+9bW1mLsCwvRvnMJdjuqw2Zs2dY9dVqAkJpu6HCIpoE2fHGdembqGti3wQJMDBF4c1Ta409vL0NNWRgHndtDxtXMb9Zi7ZI67H9GNzx2ziSc9M/+WDqrCuuX1qG4gx/j310lq8k9ju0gUs0/vbNCvA5tuypA12NwEfrt3Qa//bBeajaIydKr1SQntIWqdSE51pfjwt9G79AQYUgJ169ctUp5EEwk2O+AK1C29GeUL56EXY68EfXBOrgCa1EXiqN1r72x6Lt/o9OOByEaj8GK1mPl+NfQbZ+zBSDosAOvQwPIBup0R/24+V2Wq6GktG6TjsXrAkteB5DrU+a6Nqzc/fQs6IV4UiZIihdeOBE6BqEEihOjzVzhpxuCIpO8kbHZFEfBpnE00lfQPA4BEbZIkiYl6qeoVRd5bnoyuPE+K9auQ16OD7mFheJJEW+GrQLJkIUmbCqCoiIpFmRCDJt9ZmE62Ms3zEpc56z7B6B9r/wMQNjsPb/lAMKG5XX47Nk5GH5OO7QvLZX0L70F6uvx3GUzcO4jQ+DhSmg73kiue/byyfjbnb3QqnUrWIvmA5efi9g7X6ZVtJS4+2+/4b3zxmLQ9cdjyKHtt+O7b7rpaaWWTSNmG+CqVQEhx4e5wrMX0/QWO90OceUnbK5DKSkyzDDxw1Ugr2XEhb2ES8B0yMf/PhGXvjBUjqEHYaf9SrB+eb1kR+x+dCesmFON/94zByfdsoNoGtzz159xzFW9UdorFw+fOQlXv7GHEBN/fncFZn23HvXVYan/kN86SzIYmLEg7bHbxHaR79BtUGHjTjA9CN8+e1aSPRx8wOVYsfQXeF1OFHUegnnjnsDQ05/EpNcuRr8j7sSv71yG9j13Q9u+h8KdU4AFn96JrnuNFICgyYpJqXxGWhANmvYiaMllGrxE/QRtx21ugd8F5HiZ0RBHNMbYvd3hCSOudBoUwFHMAp3VoIMJqcbeJBDqntGfJbIamxnyZmZDw5hxJIw7m9Oo8Ia9I8EBtwQB1LIk00PknRN6CgwWqJBD2erVaNemFeDJkr8bARybJyKIMRNi2CKTVQYgbJFubvIiW8KD8MK107HTYX7sOLQLqDRqbnz/37zzV+x2WGd0G1i0dTvjD1yd9zHpo1UIohy7HdRHJIjxzZewnn0MVdffgcJ+OzQ6u8x9P36LultvwRN5F2HEpfug/z4l/3PhhhZxEACEayMqbdHkq9mTNHURArVR0T7gxE0SYU6xFw+cNgGRoAIU+5zUUTQJJn28Gsdf319CWCQfvnXHb8gt9ohccqA6gtdGz5TvGTLgxtDXcf/oJ0b+ifOn4LzHdobX78YHD86Vluw6ooPIPrNKJOkAJDnO+WkD5k0oR/mqkCJN5rpw+UtDhZfXKFbPao4kKRIgmNoCGiA4o3Vo03sYFn7/DIb87RFMfOVC9D/qbiz9agy6DD0Ti395Gn0PvTEJIFDnQLviSb6jx0W50pVVNAGCOfIkDTKhuKi+ESMLC61zXILQAuE4YnbRJjMVN30cTIGFBnCQylzQrWlohTwYuxxzKMVNoPUQEvjF/kXXoNBhCA1QTNDA37W6o263i1BAViQ65qNknzVQ4Kdah4l7LV+8FN06lwJOt2Q9xJ3ORDqlzsCQAWo5kJXhIPyBKbNlh2YAQsv6aXPttSUAwgOn/4JT7uuONm3apL2N6WNXYeX8Gow4r8/mus3Nfl6m3912xHc4+6me6NSlg5qn33kNoQVzERu4C7IPOTw9QHjobqC8DEv3Go733s3BASf1xU7D05MbN/tNbKYLNBliaJjcxchWrApItoFoZCS+AwqKffDmuuDyOBEJxKRoE21MSZec9EWZmtPW0PHl1HRHgxXPqpAfPDQfIy7oKddaPLkS7z84D9UbInB5HaLBsMM+xRh+ajfklSiOWlJapW6/6UH47tmz5E+dcTBw+OVYtWw8Niz6GV0HHoqS3gdj0U9Po2zlLAw69EasXfwjCkt6wF9QAnduOyz49A502fMMzPri3qRHlfAipGgj6GuZhp18BP15wohKmMASGWKvWykMKjd9g1ZDQpXQlM3XH0rHGU+siYEkNRk0K9PeRxMTzRW9loiWzrLPq0IqDZ4DDWyUVySZzUCMqTkJvJymY+iwgUQPDN6E5mfwZ30giJULFqB9pw5o26ZIjqVXRdix9nUUCnQhOvTODElxM00a+rQZgLCZO7iZ07cUILB635VXXombb74ZH374IUaOHCl1RLhNnjwZ4VAY5/79XHz//fdSp4FVTbnNG1+GlcvXYI/DezRJ9q2uqsHbty3AyHsGbbdqmXRb//zhIoy4oFeiyJH1wlOo8GUhq64O2aMuaPwkOAefdSLqTj8TEbcfNZ174OOHlmL3g3tg54O3XuonKzS+9NJLiWqz474eJyGTLp27iGYFK9V+9tlnUq2WZNPzzjuv5cWa1OpL9YVhX/hJsCYCp9sJl/xzgDyE2vIwolHlCfDnuuDL9YAcBK7iC9plJRSUk1bt6USS9PVSU+NS3eD2sSt+q5awRG6x4iiUrQigVXu/8BZKe+eham0QZSsD+OW95VgyvRZHXdYTux/XseEZa90F+3riQSBAEBuTSF1Uho2rdm3kTF0DLfizMcDDM4imgX2DCY6nDQSEm2DIMXM3+dtm9cvxTiW97IiGUZTrQ30ojrA4Q5R+gOyTUueCClZcRZtbU5yDdNkPmn+QyjPQvAB9LukvkwRp/23WmUjtT3IqJEsipQaQOqfBkTCqSLKfqGK5cP5i1JWvR1ZuHjp0bI+ighyEwlEJaWRnueFyueH1uhGzHIjs1jKAMHXKVPTr3w+LFi5ESUkJ5s6bh9atWqGuvh6FhYWor69Hly5d5IUKBAIYPnw4PvjgA5lIevbsKWWi+dLNmDEDBx98MDp2NAba1rUfm/3qGYCw2bt4oxdoKUAwizXNmTNHxuvEiROlUM9HH32EDRs24Nprr8Wzzz4rQODUU09FLBrHo6Mm4OCrWqNrj45NCiLRdfvmHTNwyN97oaht08z/pLlIs53/lO6zvbLJ013Lz2xZePvOeRh4rAfde3VJkLbdD9+NdQN2Qckv3yL2j9saJ3rHYvAefxCqbh6DUHUd8vbeD6tWrsU3z63E7iO6o/fQ5jM7lH3bGNOr5bfBBRpLdY8b9w1mzZqJE088CStXrhAwwMJNLDzHSrWs5njHHXfg3HPPlTL1nTt33uhFGnEQmtg7FoyhtioiXgSRVM5xw5ftEtc/6y8wc4DTOz8nMZC3zTBDEuBIBQCmUqIJTlIASqJJtjGe8tlqGa+/fbdeDM2A/UuE97B0ZhUmfrhaNBTa98lFj50LMOigUknBVGmYxma0RbIYfnhecRD0arjhd/UMEzoB9jlMZn5qn2njJyvkxMo2eSho1386gKCvLcRGG2RYkRBa53kRjjslm8HcJGRhDDXxvthyx7wp0/2eACn2CdT9qj+E4NeEhLMu+6yfk+FASGQ3EMhIeqJdWEm4GEYYgseSeyAhCNOzkEClye9LAiA6gMWLl6N8zVrEKuuQ37oIgXAQHbp1RqtWBQLiguGo9HW234e4wwXPvve1yIPAinZt27aVlRRXTsuWLcO0qdNw+OGHYfr06Rg8ZIi8SJxI99hjD3Tv3h1PP/00jj32WDz33HNSGre4qBgbyjYImDjiiCPAXOn6ujrp0xa9/s0xRo2HnX4e/D2zY/qWbUp7V8yuxTu3L0y07m+395ISq0umV+P9exYnPj95TC+U2Czjjc5G21M/mB3Vgu7f1OfGCW5jqXbsx00BCF999RUOPPBAVFZWguWfuZWXl4tRYaU/GoqysjKp8lhaWiq54k9dOBmjntgBhUVNCwIRfPzy0RIEK4Hhp21/6oK8z6cvn4TT7+8j3pOER/e267F2xDFo/eKTcD38bKNha4WCsI4/GBVPvIKssZ8g54xzpcT78iWrMfbJNdj3xK7ovWvJRof75vqSgM/v92Pu3LkobVeK6ppq4Y9wXuL8xfLerEZbU1MjPze2bZSDYBhRhhbqqiLIynbD4XIoUFAfFfVEVm70Zbkk00H+znEhGrGEW5Dob9PjnWTcjDfHTI1L48mgIVu3uA4Lp1aAXgSCk/57t8biX6uEsNh1QCH67F6Mtt1zMfunDVg+oxozvlmHa97cA4Xt0qTDaw8CAcJPL5ydNDfqlTxVBQkutKtbZxnoZqebJ0yXPwWB9GZzCBOGw5RHThVZSugdaE4CE0iD9WIQme6XKtyUADQa5BglmxsBGEOyWY4zNBR4Pyn4Q66lQ0s6BCBeAvvEGiwQIMjxBIu2KJRJUtTZF40AgkYduiE24VCKYAGIWA7M/HkCajbUwed2oPceA+Gw4igsLACTWHVohCBGJJ3hgmevlnkQqqqqBEh8/PHH2HnnnbFi+XJ07dYNs2fPwd577yUlcAkMyNie/uuvOOCAAzBt2jQplcoJnPXWCTL4stGVS7T+/2XbVA/C/Akb8PV/lia659ir+qCka+7/l+760++zpQDh91y4rjqImZMWYMg+feBupux02foKvHPrIox6aPB2F2bganP1ivU46Ix+CeVEiUfffBWqRp6PvNuvg+uFtxt3YV0tYqcfg9hL78F1z61w3nynZHgQfC1btArv3bYKJ920Azr0yf893b/NHJOkpGgaiqQQtrJxoboo6ipZe8ES45xT4BZPN8MPkXBcVvEEEsG6KLLz6EkAsotsL4Ix9yduPtWjwC82AhJoL+g1IAGR12Jmw6SP1kg7mIpaviqAKZ+tldoMQ0a0Q69ditG+V65kVDQKnRhPQDwIqQBBgIC9mqYx9NpiYTptMeEit42rudrVkECvknWoIJ0iozkS9IKbRlbjCv0c2J5IoA6lrXNRGVQsfuXFaLw2EQOcxtAngIomSprgLGXpyK8iclOM6TsT9R3Eltv/aWCg/6Z+gxmGMduXJBOd5EFQF9bhCglr2GELk++yfM5irFtfhtalRejbr4cMOJIUuY/uewn7kGRJgLB3ywDCNvMmbocN2VSAMGPcWrx///zEnZ79rwEo7b19T6Bb87FtToAgXrD6egmlNScEFAmH8d5Dv2Hvo7pvV8+TBuW10TOw28l56NnH8H5EIgiPvhbhi66C/4q/w/nqB436wKqqQPzSUYg99Qrc11+B+N0PJ9Iho5EIlq9YgbeuW4nTxwxCu+7bLwhOG2IwDbfBA6haH4ZPNA7cElIgB4HmiXoFnKdZ58KX6xZhokB1FLmFXjFUUkY79ZypYMTkG5g2zz6Oz3LqZ2tQvSGEDcsD6L93K4x9YSl2P6aDAIUPHpgvC92DRnVH685+/PjGCpFhPuT8bhgwvE3DKjkNUGkEEMTA2saT+2viIg0Q3dgkE4pMo736Vrn3rGyoDLdpa3medJUY000samVtk/TssIbIKdvZF854FDlepSFdH1XlNfXWfEZD8hXZdtacIF9BNvse9F68E48VRzwUQCQrp0GW2b4mwwg6RUJ7FTQhMxngKK4EQwuJsERS+mPDPShPjZJUpFdA3579EWprapHtdaIwPxuBsFKWTK11QXaGAIQWehC25gTf1LWj4Ziga9mYp7uNStlmAMLWHT2bEyBs6p3NGr8CE97cgJHbkbIgyXIv3DgJJ47uLeGFxBYKov62G2BdfRP855wE67WPJQxjbtbqlYiOvhqOx/4D54VnIPLwc0lpoARYCxYswHs3rcMFT+6K3KKmqwVual9vyf03Wu45DVBgpca6iohUcyxu75f5i6WX6VFgxcTK1UH481yiCcx5jvaVokkef0oBRH1uM5SQDpjQTsQt/PzuctEy+O+98zDigh545+65or64ZHolvv7PMvz90Z1FVfHVf85CfXUUR1/ZCzvs20YIlYmtibBFWg+CrH5tkmB2bgnyOvRHzeLv0KrHfnBl5SUARMKghgOoWPi1xN/9RT3ga90TwQ0LUV+xoMGIN9jUJMNe2OsAVC38FlY8avMBHCjoui/i0ShqV41HPBaV65GhagVq0LlnP1h5vVG99FswBKLvK6/Xwahf9BVi8VhCf8Cd3xXxwFrEI0pakps7uwTewq7wt+qL6pkvaTukcEICL1jwOpXLPhh1IGqTCTQoSYQctGqiDWy4m07XFPvmcCgSpQ2mTH+HeFh4Qda5YG0IqYWhPtOwQdpjEzZ4X7k+l/RFgG2K2dUkEoWf1EUIMrZngPD+v+ZKzIwb0ffFz+22JeeEFl8rAxBa3FWbZcdtCSDQ2/DilTNxzkO7SOGd7WEb/94KrFtViUPO6ZNcmKmuFsG7R8O6+mb4Lj8XkcdebKwBsWgBQg/fC8+/Hkfs4jMRv//fjTI9yOeYP2sZxj1egb8/OljIcdvbllYoKR0z3zYctRVhZBd4pOgOXfosotSqYzaCNVEppFRUmoWaDSH4c90I1MWQlecSmeS8Yq8oLCZtTV3H8C7EosDCSeWoXBfEhI9WgWHLd+6Zi8Mu7IEJH65BOBDBiTfviGevmIa6CiWNTePy8o0zkFPgwTkP76wuaXoOUoCCAISfXzg7YYuEXEiXvl2iecChNwEeFxZ/cQuyc1vB6XIr974tiezJ6wi3vxjVi75Cmz2vQt2yHxEoWwhvQScU9Dkcy78eg1gsosICslhXhZJo91r1PQpFfQ/E0k+vFiPuK+iA1kNGYv3E52V1XzL4DKyb8gpCVctRV7YO9bU16D1gV2S3HYDwinGIxR2g1gTPV3rAXdgw4UFEalYnXGJt9h+D0LpZqJr5SqLvc7seAEcsDF9xL9TMeC6xCrftsIYCkj3B9hIgcEGrH59ZvEnLK7PPzNW87vNUoSSd5sjvEymTggEUKNCltkUB0gYHVEZkX/D9crucUsgpFDNVKFXLNRFVhKT22H6llt+7by5mftsAEC59IQMQtreJdUu0d1sCCFwxT/p6AcLlPux1QudmwxJbon+auwZFeAYdm42efbsktdeqrED4/jFwXncLXFdfiNC9jwvpL2n7bQZCH74D91U3ARedgcgDz6RNBQ0GApj242L89mkIZ943aLvoF/M+mwQIqfwAY8XPFMJY2EJBG1XmmUCBHgR/nhuVa4MickQgQQNN0JCd70WoPiL8lZwiT0PGTKq73zDckVAMc38pE2/FnJ/LZCG107A2+OrZRThwVHd888oy9N2jGAVtsiSsecqt/aXa5Ntj5qBNtxycPHoHOD0O5Z1N9RzoDjBJihNeVACB/4mcsb3ULe13IPxeN3I6D8WcT0bD63IQK0jYQBVWcqDdXleibPzD8OSXwluyM2rmvZdg8xf0PxGVC75AuL4iYQQ1tZ8go3S3v8Phy8Pa8Y8JQOiwz5VY+/NjQDwozfQW9UBe9/2wbvy/sW7lSmR7HYigCG133ANVc8fCn+VFUVEB3G4XXEX9EYyEEalYoDIXsorQavfL4PTmYc2XV9myy0CrXS5C3YwXkdv3BNTOfF74BfpZJMIADAuoCptNFkliXxE4pNAXpN08Z8ILoNM37bAMv0+3xtAhFol50scuCFKUDeC0LGR5lVokAQKzORo25UnQCpb0IGQAQnPT4x//PuNB+ON9+EfOsC0BBN5H+fpqPH7WdFz79p7b/Go5Gonh2Ssn44TRPVFcXJz0GKwlixB87QV4rrwRzn9ehfobxiA3N5lHYE2ZiPCk8fCecyFiF41E6J7HExoKqc+UBOaf3l+M6mVunHC90pjYXrYmpZbTkBS1oaXioTfbLcqHtRURFLT1yfzM8APBgcp2cEllRfIPmPHA9Eca/XjUEg8UeQxcFDKbRzbampiFWDiOGd+tQzREsmMEy2dVo+euxcgr8uC7N1ZgxPnd8dXzS7D/6V2kSiSvN+TQdnjlplnot3dr7P3XTvjxreVCpjzxpv5plRPV9ey4PrOF6EH4RWcxaO4BAH92a3Ta9TisnPwmug+/FL99PFqOJSdBVWUEcgtKUdzvCJRPfRpZRT3gbdUHNQs+kawHEi4Luh2IylWTEa0vB1n2yhArIYCuB43Gqu8fQJshZ2PdxMdZvhDt97sGa78bk1BAJIhovfsVKPv5PvgccSyatxRxRxH6HnAcapeNQyAQRnaX4fD4cuBb8yWyd78e4Ylj1P212gGWuxDejkNROeVpREM10v7We1yJip//hcKBZ6F+wYfwdz8EDl8O4M5C/ey3Ea1eoR4OQxsuF6K2OU8AgRREoIGV5l+Ih8EOEwjgsvkKqrKl6mAx6AbXI90L05AKaQn50G+7LgkQ6NVoTNRUXoSMB2HLTD8ZgLBl+rmpq2xrAIEh0PcfnoHBB3SVlLJteVswqQzTv1+Kwy/YoXH4YMY01H35KfyXXoPIvbcgfMFVyM9PJtPGf/oOtWUbkHf4McDFZyH4z7vhL0mvNsm5sKK8HONeXoK2pSXY64RO240noclqjubDTcMNoLIiw+3FpX7UVYURqosJUKgtC4lXgRkfsYgiWrm9LoRqoyKJHAnGBDAISGCNAQckNTJqy/pSRrm+KoT5kyqx/LcqdN+5SDgI499fiWOv7YuPHl6AA0d1w2dPUviqB6Z8tgb1NVEcdVkvfPjwAmxYXo/jruuLTv3yk5UcxSilEP5ND8L4F89OqERqkmKf4ZdiycSXROq4hwEQNKjhzy4Dj0P9vI8QjIfhcTlQMvQi1C7+FoGq5XDndkRh3yOx8rt7gbgKMegtu3QgPL4CVC/5TjwQFVMeh9vhQvEel2D9d2MS+3LFXLTbpYhPewi1dQGUl9egdZc+yG4zEBVLv0Ful2Fw55Wiaup/EKM2wFGPoO7b65R3o88psBa9g5ivPRzebMTKZgF5XeHrOhy1059H3oCzxbtQPukROK0YXAVdkNPjENRMfUo6L7+uFtFIFIGiQhVPSbNJ9Ud708JK5EVoD4L0ua3JYGpRSBYIxT1sGkKqcqbwEtRONqCIw+9RbaAwEqtbirejAegl2hGznNt1FkMmxLAtm5Ztp23bGkCgIVy1fC2+fGQNTr9rQJPiSlu7ByV74aYZ6D08G4OHd29U0RY/f4/aaZORc96lCD92HwKnniOiaUk28atPsD6vCCW77Q5cNgqRS6+Dt3vPJm+N11y7egPeuXUh/nr9TijpnLO1u6FF109Kc9RHbIwbYO9Dg85CTZVrgiKMVFiahep1QQEHNP4MDZC0SF4Ayz8TCVCK2V/oRqQ+LrUb6GUQieZIXGo2eLxO5BSyroKFt+78DaU98iSM8cMbK3DCDX0x9rkl6LtXK8z5qUw8BW/fNQen37kTvn9tOZbPrsaZ9w2Q0G1J52z03bN10ymT6TgIBAiaI0CbV9p9N5Anv3bxJOTkFiV5EHTGgD+vBD12PxO1P45BdQSIOD3IKd0ZRX1GIBaugierAGUz/4+97wCToti+Pz15Z3NklyVnFcScUTFixJwAySoooAgGUIKSJKpkxZyfqBieYtanGABRJAlKhoXNYXLs33dvdc30zs4mgr73/2/x8e3uTHd1dXW4p+4999wP4S7eCJNBGFKOu1tSkH/uGOz/cgJ/ln3m/aj8bTEUxYLM04ej+LvpGrFPhZ3iJKfcC8/Pc1Hl8iI91Y5QQnOY0johaLTClNQMlb+/LBQYAaT3GAfn+pcRqtyFlDMfQNm3U2CyJiDpjPvhXzMblna9gEAVgvt/hOXYwXBtfJ6NOQMogxmp5zyEsv9MQZBc+pWVsCgKPKmpkYqU+rtKpj/pKy9SVwEdEpIcBVJEFvaeSImKqG6pkRhlWqbEbwKgCeKiBCYGhGHTck2JnOgPEwdBeBZYB4H6Cof5GGHVAGOPJxoklNSgp+Rv3qgJIPzNE/4/erj/NoBA00jEvKV3r8OtE7shq8V/nxFkkvVXn+K5mYW44YnjkXaCRlLT3QPqpx/BU3QQCX0HI/T8YpRffSOrrFZrH72LnV1PQpvWrYEJ9yN4za0wn3xqnXcSeVh2/rkP/3p4L8a8ceZ/bXaS/iQa7EHgF7A+bz7M4QUKI6TnJaBsv4fP15pkRMVBH6caFu92cwlnR7EP9jQzfE6R1ZCYZYazOMB2yZpoRsAXRMAThi3JxARIClV8svgvdOuZje/e3IuzbmjBPIfCHS50Pj0T+7Y6EPSFcMIlzfDiAxtx78un4ecVe7FqeQFGv3oa0nKsYqx6pUZdRqBeRpp+j5AUpSCSYjDihCsnYKMWUrAnpaPNeSOx+d+TIxF3Agn53a6E5+AGJPn3whMIQU3phKTm3VC6aUXkGFldr4d770/wO/ZzjJxW2dknD0Px2iWRmHn66aNRsW4JDAYTMk+/mwECVctOtAqXvPHEEShZNQ8Bnx856XYErc1g6X4nTImZcPz+KoIHVkdCJvY25yMUCnJIw97qbJT/8iwTKtPPfwzl301DUvcBcG96AyF3KdJOvAPuDctgNikweAOA2w/LlbNR+e1E+FSA0lMAxTr3AAAgAElEQVQJ0ZBQEZMqJYtRu4OkF0DeUDLDQV/kKVLeWZs59tpwhUbBGZAhB53oIndH10LyIciDQ4CBAEIwKKpyURaDbBy6oT9YWElFUDH9T2Qx1FYNswkg/I9a7L952P+NAIHu6S2/7cKBdSouGNAaSkx64N88RdUOx89bwA91+EA8X3gObr/RCsvtg2sMSX37VXgNRtiuuwVY8TYKTj0T+S1aRrbjhcny17H3jHNZrlpdMAe+7ifD1uP8ek+PNBJ+/OwPoCoF59zy30/mrCGUVO8Z6uL3mgEu3uVijgF5B0r3epDePAHuMj+TFj1O4iEYmU9gT7VwMaf0XCuLLVEaKldi9IXhdQeRQqJKRoD0FkgxkYqEkSfi1CvzsOy+9Rjz5ulYOPQX9J9xPN6fuw3HnJ2Jdt3TsODOdXjgzdPZE5HbLrEmONBsh1hl6nQF9CEG4iBIj3a3q6fAZElEKOjjfQwGI0wJyQh4Hdj66TT4XeVQFAMoBLHj2ydhM6nISTLCdOydKN76MdzluzncQIbZYktEzklDULLmKXaZ25qdgPSThyLkF3wAXkVbkqAGXPAeXA9zWjuUfPc4UsyCsU81CCwnj0Xxj7Oh+jzITLUjYMuDsUVPeLe9g9QzH0bFD9OAkC9ShdHetT9UbxH8BasZCNB5JnW9Fb59P8J+zPWo/HGOELDoNgjODc8zITDk8hAbA6l9X0DBc32Rc0pXwYNQAX8wDF+YMhmiRplDA/r0RR16JI+C9CJIgBB9uqJ3mB5wxoqxSI+I1FYwKSpMJgUetxd2u40BAj+o2sUNk6ZD5Pf/DR0EipuR64saud2uvrcTM3mbAEJD3kJN2zQUIJBU+Lx58/Dwww/j/fffR+/evVlGfN0vv6Bjp04wm0w4/YwzuIATudKbN28uUo3p+aoR+6t/3qsKD2LZbatw13WFsN8dp9BR/V0clS0YIMybgTXGU+D3O3Gi5U/YR46tKYL00lI481sh+aLLgK8/Q1FaJnJOPLkaQMAbL6HgvIuRn58P9Y2X4E5NR+LlV9c7bhoDqbcuu3sT+k8/4aiEGqg+TMeOHfHJJ59g4MCBXI+B1GKDoRDOP+88FBYWYvny5Xx977333oYVa5IcjNjMAv0Z6zIZIsYW4EwFWv2X7HaxHgTdUkRUJHlj8ixQmIBElexpFuYfEFGR+Ar0XVKamTl7zko/MvKs8DjD8LkCsCVb8Mq433Hp0Hb45tVdOOXK5tj0bTETEX9Yvh83TzgWTw1YjQEzj4ez1I+CvxzodWf7mjyDusavfbe/oECkOUruQXXDBdgT09Hm/ChJkfbL7XIplKADxTt+4NVuuuJF6jGXo7yqDI6C9SwJTC2pWRdYk5vBu+c/AgzEYf1nnDEalb8sRiDgQcZp98H921LYFLeojZB6DMzNT+OsA5/LgYz0FAEQUjvDs/drGBIykXLavSj9+tFIkafkcx6FIeBF5eo5nLnAaoMGK5LaXcxkROemt3hbBggbX9B0Byjmb0Zqj/Go/HwcQmYzixtRHIkElYIFpQiaTQinJiOgkRa1qtY1dA8o5YkuKlFQQprrRqpI6nkY9BXrO2gfyvmX14z2kUDBbgZCwSBcHh8XafIEtLRKXdEnKT8dhuF/woPw3qyo3gERcsa8cQYXDWkCCPW+Z5s2aGQthqFDhzIwsNsTcd5556K8rBy7du3Cps2bWCqcijWtXr2a55UK+hCTP7j2RwQuv7Zxcx0OI+GB4Xgv9UbkrPseJy67B4pehKhxvR3RrRW3G7a7B+CphAdw4g0pOGX1a1AfmFRDHtr2/CIUHXcCUk4/C8GNvyFYUQHr2edX9zy/8gyKL7uWQw/mVd8wCTHpqusaNF72svy+A1s/DeHaBzo1aJ/6NqL0cKvNhp07d6KgoIA1c/Kb52Pvvr0oKy3FlVddhZ9//hnnnHMOxowZgz59+jD3oj5p+LhSy3WBBDnQGPc9AQDiIlCIgAx/ZisKO3iRlGmBt0pIL5OAUVK6GWUHvMhqZWfOAqssQoGz3IfMlnZUFXp5MWW0GfGvKZtx3q2tsHz6Hxi29CQ81X8tBs3tjs+X7WQJZRJOevmhDXjsi/O4DkVkEapp70TLSWqDrgXgcDVH4iCwB0F3JSRQiAcQjrnoQWz/dg4X6KB0QJu3CilON1JunAlPVTH8FTthT28Ha3Z7FH03HQmprZCY0xGuv1byEViJUGvpZ4yG49clUANuGGwZSD1zNEL7v0VIsUNJ7wz3b8sQ8pbB63QiKyMZflseTKmdOYuBbGtC9nEwtzgblb8+w8v61O792Cvg2vS6AHLacdLOmwzv9o/h3fczfxIBCBrxz0gchHPHo+LbSVqtByoCpbIehOrxQwl6oSalIKARFsl402lIGWVZwEp4DYQHJZIKqaWPkndBcA+EgdfpIEXmQ45XKlDScZItgM/nh8vt4znwBKg+hLhgMdxT5iA0VGqZijBdcsklHGdKT0vD3r174Q8EWDileV4ez4M9MZEfOiqCQrUXqJrjBRdcwLrrVJeBij3R/hf07Fmvbr3+QW8CCE1Sy/W9+Ov6vjYPAqXVvfPOO1zWmZpcKY4dOxY//fQTGwVSBiSlPyYTh8PodVkvfPrpp/w+u+KKK+AngPCvV2Eb80hNEl8dg1L37oHrnTdw8IrrsWb8KtwwtBnMF/c6nNM8Ivuy9+C3X7B75y688Xoubn+yHfLmTEZo5kKYzfINph1q3jSUn3sR0k8+Db4/NiK4ZTMSet8QnYdwGOFZj6N8yD2swOj+awuCGzciufcNDc5OoGJub0zeiEsHHoMWxKg/Qo3eX1R4rnv37li7di1XnF23bh17hshI3njjjfz58ccfz54ECpHU1WqtxaDfKR5giK3EKG5EDjHYkk3sDa4q8wt+QoGHBZSI0Ejqi6V73exV8HmEkTSZDXCWEW8hEUW7XOx5oLoPG74tRtFOJ/I6JKHgTycDgrX/PoBrx3TGs6N+Q98px3HhqJZdUmIKDtHKlOL9EWJc9Hd5XjovQQQg1Fah0Wy2Ia3tmSje9jXvbjbbkZTTDlUFG0XIAoAVIZgL98HYPB+GzGNhz+kEf9U+uA/+zitsi9WGhLRWCFf+yStyYbiFIbXknwlfwWoooQCsZor1G4C88wA1CPe+H6GoQX6IA14P0lIT4TUkQ7Vkwlu5K3KZkjpeCef2lUA4CGtONxjCfnhKtgovgJYxYG1xJvyFv3M4g88j50QEin7l34UWggHW1ufBt/troW5IK3gDwNkoEdGimsWc+CJGymTXzB7hCo8RkSgxZJEaKVwHXAhLOxM5n/y3Nk/kqSCA4Pb4OK0zKzMZ7oAoaR0Jc2h9skeiER4EWj1RjjMBgo0bN3J1MyrQdP311/ODRqspctGSa/bcc8/l0s9UFrdXr174/PPP+aVx2qmnYfee3QwYrr76an4QqTR0fe3j+TuxdVWFuBY2A+5+vjtzMj9ZsAt/fF/On1PFs6GLutbX1RH+Pp6fq+Yh9m124O3Hokqht03vhGZtE7Hz10qseGJHZIe+T3RGdms7tnxXhpULo8Wa+kzrhByKCeoUPHWXvRHnpD1PDEjjqXJU70ofzhKb179PIwZTbVM/cXu0RjndJJPekEYGnNzCdbVYgED33dNPP80VGqky6fnn1x8Tr63/0IECGGY/BnXWogYDBF4YTHoA+6+6Cdldj8fHi/5AF+NfOGbkdQ02nA2Zm0PZhgswPTgCe4aMxIezKjBg3rGwTx0P76PTYE+M0TiY9Ricl1+L5OO6IbhtC7w/roK936BqACH0yP2oHPMoayg49u5C6MdVSL3xtvjnGc9YAszV+P0DF26ecNyhnNLfsk+dOgjxiH1yVPKcpRHWHmwu9QwVxbuIoGhjIqPZKhhopHFgSTSyR4GyF0yk+eMLs6YGFXxKa57AAIHeJeX7vUyAfG3CJpZRfuLGnzD+gzPx9MBfcOWI9jCaDGh5XAqHKKIiPzpgUBtAYLe2LmNPVcEhhjUva1kMsctR+XDrlAJlRUf6SqoBsgqUMYQkmxnFbsGmlyx9WRmSjBeBVUrnpyqPImefZ45DAUTSp1WzSOFTOJ0vkmJKvwT9sNutcFPGhEb20xva2DtGvgiJLxC70ta/JCNZDIowurQt12rQ5onrI2iNUkyoBbW/9a9WAiP60tLy1SvLSMuQBH0ui0nJ/fUvdplNIgGCGWEkWg1wunzweQVAcPnFAOT86GtRNAYgUOlTqsq4b98+ZGVmYtfu3byKIsPfumVLvgYWq4XRNoGJHj16YM2aNSgqKoqstqhENEnNEpA49dS6mcz6a9TkQRAehD9+LMZnz0YBxS3jj0VO++S/5QV4NA9Csde5fYS3jhqxqq8c0fGIHTKeB4FA6gsvvACP24NR94465GOFS0tgGDsc4Wdeh8EUs8KupVdSIAzf3R9lc59FVk4OyLh8PnMfhi7s0WBgdMgDrmdHtaQY/jHDUDhhPtZ/WoJLBnWCae40uIaOQEpWVrW91ccehOu2IUjq0BHqnl1wfLQCSXeNjAAENRyCOnIoKh+fg/T0dHjKSuH59N9Iv6VfTT7D158DH78HnHgqcPk1UNLSI8eiRcRbUzfg8sHHIqftP1fQiTwKH3/8MRebIk/owoULI2OsFSDILSRIiOWq1AKK5EubDD95BqhOQ2Z+AissJqVbWMAoKYM4CT5OaaSwAxEV3aV+pLdIYHJiVutElO93IyXHivmD1+KWicfhgye3ovuFzbiKI5EgWx8X4zVgM6vZMT14YWOkAwSxmQ2UxUAhBiIpcjVAHUCQ5Zhj7z3ahGSIKUwgiyvJokxZdoUNuNMfNZ0kqMSrcSr8RP9NgqVv04QB6JgkI0w/abVOBpkMJvVPhpjtezgEIuolWE1w+dVIbQRhJKuvgOSqWsyJOCFZD4Hd/jpyYVTjQoYFtAlQVRgNwosQDNeCmrRjy3FKwy+vhayISX+LVEjBS5CjpTHR3wQsYkmNeg8CASriIFQ5vAj4AwwQHJRmoQUX+LrpLlJjAMLReiE1pN8mgCAAwu9fFXK1NdmGzO6O3M5NAKG+e6ihJMX6+on3fdjhgOGOWxF66V0YLZYGdaGu+RElu3YgtfeN7MUgA/j2A2/hnAG90e7kqGFsUGdHeqOvP4ejpAhF7XuhrKoIJ5/bGf550xHoOxjJzXKrH+3R+1E5bDRSm+cDxQfhXjgP1kenRQo2qVQTZ9jtcM5ezAJKXqcDwZeeQeLw0TUBwkMjsPWG22ErLUbLV5+BYc4SKNnNIoZm09qdWP++E7c93u1In3Gj+iOCKr3rZ8+ezR5S2WrVQdBrBcQxqvUeXBqecBhUT0HwEuwMAPI6JqNwhwMZze2c1UDyywwQWgqAkJlvR1WpDwmJJqxavg+OMh+LT6VkWpgMGWky9BHrFagLIEQNYqQbBghrXxlcr5+RQQEpAJOR0+o1kN2jcXDYQBGGLNGioLTKj7CRkhWjjTIbqJHej1BjFPuRHLTVBPhDsXF5BQGSlyRDGggi2WZiBccqHfig/qTWgI7WEJGKlkeXQIFGQMeXGQrk+ZD7y/mkc6LxEUAgaWnp0YieiZwqcT76/fXnK4BR9QJQVDuCFKmoGqaeh8H9xClRTZeb5ob6Knf4oAY0D4JPABpqUlNBHrs2gLBp02ZMnToFl19+Ofr27VvvPXy0N/hfAQgFWyvwy2cHItNxQb/2SEyz4EgpKTYBhEO70+oCCM888wxatWrFobBDaWG3C4Z+1yH4ynsw2e0N6+K+O7Fz5ENo06YNGxt6L2yb8wS++PNi3L00mgXQsM6O4FbEGXh4FArueRAfTT+AC+/KQ4du+cDiJ1F55fVIa9Wq2sHUh0agbMxEZGZlIVhWCv/sx2F9fE4EIIQDAWDQjfAufZ29jyG/H5g4FoZpT9YMMYwagvKJM/lFWH7gANpNfQh46jkgS+gqkOfxrWm/oc/404Vy4D/UmDi5ZQu6dOlSLaQUN80xjhGtPoFx1OuEoYhupjcM2iJWDYXhKAtw/YSDfzmYc1B+wIOUbBucxV4k51lQts+LtGzBT6CKkQmpFiaZcgiptqZf9dc1vzrQEjEsMsTw00uDVVnWua4+ZHiB8/g1oT8ZZqD9KESQk6jA4QvDHRAx8thGQIGMNO1PICHdRqt0EYuX0d9I4SGtDLPXF0ByAsVTAKcW1pQue8oU0M89u+h12QGyr0hWgM6LINfhNXUSVSZfSoBA5yDJhfJ8ZPiWpI3pBpMpibyt5i2RY5FzRB4S+oyFk+jB1QiP+kJPevhBfVqNVFVSQYXTj4DXi2bZKRxikOcsQyE8LjWMIEywnDO9mlBSRUUFli1bxilcFJ+tj737dzynjQUInyz+Ezt/E5wFW5IZA2cdf0hpaI09t83fFeHdmdsiuw1fehKj+yaAUPdM1hZioNjpojvXRnZu2z0VvUd3aexlQW0A4ZFHHkGb1m0waLAubt7I3sN+Pwy3X4vgsjdhSqrfm6Pu+Av++bPgnTSTV9VyQeL68H18uvAvnL3wDjSLDRsV7AdInthcfSHVyKHWuzmFCTzzpsH18DQ8fdsmjHqzKzIzM4CXn4Xj2OORcuoZ1fu4fxgqHp0uiH0V5VAeHY3wk8uiHgS3G4GRg4BFL7OnhACDMu4+hGc8Va0sNHkaiufPRtIdI5GQYGMRqYM7d6Ll5DFQlr4GJYUE6FT8/tN2rF3uxOA5J9R7LkdjA0qLJLIl/Rw2bFi1Q9TwIEhjqwcJckWu9yroe4kHDGIBQqxx5sq+xLUXi0leVGp2i7Vz9C7jeNkH+s+YEa8BCOnyjwca9J4FGXYggEC1GCiLQbqq9Ua92nxoq1Xqh7blbAltIlgEiVbeRuERyEwADlYGETQIl4dk/Mtj0EmStyEjQYEroHJBJFkIShpjPWnS5Qkg2S5kJj1UyVAabF09A/24STxIGm5hsKMzKn/Tx+2pQza0kU5qAgT6XlM7FkWtNKAojbu+PwkmYvUNyCNC24lQSvXbXc9n0eeD2kSmCxwuPzxOJ/JyM6IAQUNU1a5DHJLigQMHOM7Ws2dPjhvS/3+6NRYgvD1tE7b+KMiL9hQT7nvltCaA8E9fxDqOXytA8IQw86YfI3u2PyWVlQcb22oDCJMmTWL3/hNPPNHYLiPbh0MhGO7qC++M+bBlVo/Rx+tUffU5FOS3Rt65Pbl+i2z+zRtwYPaz+DRxAO6Yf1J0168+heOrz5Dk80KZMB1IPnJM/tjxqW+/hjKzBbaeV2PRHb/gnhdPYoMdfOcNosjD1PuG6rs8cA8cj05HcnIywlWVMAzrh+BL73KMnprqdMA3ZjiM81/gDAhOoRs1BIE5SxgwRJqjCmXL30BKv8G8L4EB4oiUffMFcpISYTjrPN7U6XDhjYmbMWT2yX/L8xw7P6WlpVixYgV7fi688ML6AUI8IFCbV0EPHvTGVBilKIks1qDHGn25vX508Y6pH1u83+P1E0uo1IckpAchXoiBgYoGVmoAEB1rngyk4C8ItUHqv1miwgJDFZSqYTByoSZO22NpYFIpNCA3WWGugkPoMVULO0hDzK5+BXC5vUhNToA3KLgJ+hV3NUOvm0AaBxlhURKjepPqg9KAS70Bvoba+RiVMCwmA4cYqElwQ5tILoPsVXoKJPiIBQb8YGkFnOh38iDQnNI4WKWRtBMMhqh0snbxzeEQbAYTvEYVBJJcVQ7k52WwUJKsQqlQaWhdC8FUI82RCIRvvvkmvvzyS/Tv3x8XXXRRnFn5ez9qAgj/f3IQ/EcZILz00kv8LjrppJPQteuhZcCQ0cO4e+Ed+SDsFIuvq3ncCIwfjbKxE5GTm1ttMRIsKUbwsYfxmvUO3PLICUhMpXxlL0JTxmN/nyGwlBSh2TuvAnOWHhXjqNK7YfZU7Lt5AGxKOv7z2i5cfX9nzloKf/05Qrt3wjzgjsjZsat63L1wPzqdqzOqLheUvlcj8K9Po+mQFeXwPDIatvnPi1AK7TOsP7xPPlOtLLT67xUo9QeQ0fv6KMFRVVFRUYnEp6bBNGEGf05z/et/dqJwUxiX333kSKwNfZv98ccf+GHVD2jVulWN92INqeXYTuN5FPTbxGQx1BiT3sjHAx7VVo0xcs7CqMQHGvI7CQhit4s3OfE8CLKaY20cBLmqZhd59ewHNpJyFR3JWNAsZIJZhBoOVPjhIzUBzQXPfAWvGzZvJRLzWzCAIIVCIi/yCt1IxxFFjCRAYYDg8iAj1Q5/SI2QBmXsP1r1MHrW8juiK0jDHJn/aNZiNZEQeXocalFVmNQwrJRiomVVEHLglE3iYujCIVFQII6v9/7EAgUGBBpwkT8j3gYZppJxFsqmKChCuLICho7t4Q6pcFRWokVeZjWAQKWg9alqFGKI1UEoLi4GvTgpxnbcccehbdu2DX1+jtp2TQChCSDQzXWkPQhffPElNm/ehBYtWuC66xom3hN7k9M7w7NwLsKXX42kdnUbLfXLlajYuR222wYiIYavQCtmw6P3Y8NVd2HXTwb0vq8z8J8vUPnHZhhuGwgS+FGXLUTiVddBaX/kjaPq9SJABn/CDBzcFIDbVITupxwDo9EALtn83VewjnowChBCIQQnjkVw/FQ29qrHA+WGSxF47wuYpXeguBDe6RNgm7uU92OS+H1D4Z76VPWSz1PHo+TsC5B53gXVQBOJGGHgjVCXvAKTXaT5VlU4MfeWdRi34mxRo8Hvo9z4o/bu0XdM2Vm0cKIQCCkv6lvcEENdRlnurA8rNOQs9N6EWOOu7zM2NBDP01AbiNEDinjHiPVIaH9ziOG310SaozwvXpVrGgIEQtmFrYUydCWqI3ZJb6TphjEqKvKSjFz0qNgpY+0qrD43kv74DUqzPJTntomgZrNBeB+Ym6CRF5lMqHkw3G4vMlMT4AuGwUS/mEmoYYg1FwOtram6oryRYwEbfSUFiWSXIuNBhTEc4BQ/EkqS7Ah9iqe+XkK1zAkJQGSlRh1ikJ4P8iDw5EmxJE2rQX9fhclVsnUrTAl2BFu15HOXAIFAC3sQeGgiTVS2eB4ESkskDgLlLRNJkQhc/3RrAghNAOFoAIQFCxbAarHguuuv59jyoTR6h/k+XI5A81ZIPuX0Wrtg9dLHHsK+24Ygv0OHGiQ9Wh0Hnl2AyrMuwLPjKzDyxVORNPtBFN50O3KOP4G3L96zB9lTH4ay4EWggRkTDT0n4kZUvfsmLHePwYdz/sJpt6aidbsWfFzvrh3A6y/C+vDk6Lj9PnhmPg7D2EdFGWgiIF5zAQLLP4NZAz/hA/uZb2Gb9mTkvRqYNAaBsZORmBRNV1RHDkbZsNHIPKamzkFw7N1Qh94Dc6djuA8CDV++tRGdurVC68rfEH5+MZR+Q2DoeUlDT/WQt6N343vvvssAaNCgQXUDBPltrKFuaCghHoCIQ1gU8Xvdqlzvwo93prFAIRZw6MFBvG3jcRT0AOHX1waTrzuS+y9V/vTGUy5spbnUTFzE3a43blRlMMkYQk6KBcXuEBx+BZawH+k7tkBNTEZlXiuEtCwHWlVzUSYNkBBxkYiMlN4nDTK51jPSk+H1q/CrCusNSJBAC37iL0gQQMcm/oEkdcTOJ4codPvHhhtoeyMXPgrDbKbwiOiBORFaZ/r7Q1OVFtvpwIBIVYxqRdCACazQPPH8av3S2dDRxDFEaiXzEygF5tdfkdqmLTwZaQiEQigvq0TL/GxOm6TiG/xwKYZqJE2SWo4lKdJ2pEdPCoikNnbllVce8gN1pHZsAghNAIHupSPtQZg+fTpI32PmzJmHdat6f1oFj8eNtPMvqlXoSHU54Z0yHr4HJ9coiSwP7vzyUxgqSvGb9RSYS9zotn85PMPvj/CAqIBR6OlZsJzbE8qpZx7WmGvs/ME7qHC7kXxDH0zt/T3uXNYFzfJyeDPvgQIoyxbA8sjU6Pk5Hahc8jQSRoyBxWpFOBSE4fJz4H9rJSxayefgnp0IPb8E1kmC40EgKThhNHwPPs6ia5HW/3pUTn9apEvGNMe/XoU5Mwu2C0WWCfVRWFCC18Zux+i0xdg2fAynRSbc/4hIizyKjVbIEydO5PoNJLmtb/V6EPgdr+MSxBtnbOigNu9CPC+CNDTxQg2xK34xkVGtgtq+l2OM5UDoP9edB3sQ1r48kOiS/HFkZaydNxEPxUo1suhlYymurCZCxMZdiBvRV2wswyG0zhAM3QOOMDISAIvHjYNBM/wG8TkJJolqhaJDDkFogkomReGQA/XlcwqA4NEBBP21IPoMjZOOb0RYAwh6Z390azlvDJoU4gMQoKhOZKSJtqghmC0m1mXQ7R0FCTEaE/rx6MGUbuqYPyGyH7SJ48HE3lUivqKEgrA6HAjb7VwHgjgdpCHfukUOP1A+P3lmCEwIQCEBE/2ddO6MalkMRFJcvHgxtm7dyhK0l1122VF85BrWdRNAaAIIdKccaYDw7bffssrnlClT+EYksDBt2jTMmjULP6xahbPOPht//LEV2//6C2Xl5Uiy23Ht9ddh9eo1yMrKRLt27Xi/4I6/EPh9HaxX31ijXoG8w9X3l6OiqgqJN/etTtDTPQKev7bBtmA2KibOwrLbf8S1d5vRsuc5YoWuGcfiAweQOWUcDHMXQ7ElNOwBasBW6uzHUXrxlbC1PhZL7l6LYc+ciMREkbbpLy9BaO4MWCY9Ec0+qKxE1YtLYBt2H58PZSIoV/aA/7WPYMnIEOPdtB7ef69AwgMTI+P3TXoQ/tHjkZKaGhmVelMvuJa+jqR0sZ++VW3eCOuqb2Adek/k40AgiGdGrMOl7X9D9h23wLFnF/IXzeJsiXicrninT3wCMmiUqbVp0yYmWm7YsBHZ2VnIy8tjXgq9A4mPRSmaDz30EAu/7dixAxs2bMDUqVOrdVtDKKkBc65NSt2FkRraj7hBjlxfjTmutm0NgBBl4AsAECErxkuN0DqRNk6SFaV4kSnoR16mDYjz7GcAACAASURBVN6ACptZQYkrDFcgms4oSIhaKWWtL6m4yF4FMtxqCCG/F2kpiRx7Jx4CGXSpgChCIQoLDlGjYeqVEPU8CTk/rG6oi1PI35lboKpwVDmQnmyFPUEoN4prJF36WgqHdiw9kZO2kdeUi1tonodIXQbpOuDvFEQIhtpYyOBLgElhGpvFAH8gjCCBgFAIZaXlaNMiBy6HGwazGarByLiOwi4ktsS4LA5AIFenzyfYoMQoJpLSP92aAEITQKB78EgCBHrvkKcsKysLt99+e8SAUbGmXpdeity8PK4nQkaBVowffvghq4TSypE+I8IdVXakfkoPFCCJSh/3v7NWueXkqeOw4+aByGpfM7wgn6+gx4O0R+5D5eRZ+GDIm+g44jIcd1Z+NaNHz2fZFyvRZu8OOAdHjebhPqPJMydh1+AR8JXY8NO7+3HNgx2ihEGPG9aZk+F5JCqChIoyhN95E+H+d4ishXAIKQNvQMnspbBQSibpyGz4Fb7vvoFh+H2R4ZlnPw5H/7tgyxb6BtSSh96CwqeeZ0Mc2zxuN5Lmz0Rg7MQI+GLex4ef4aP1LXHtQx2ZvBha/jqyTjgJ7uO61zkVRHYk7wXxCL744gucffbZXJ2TAAGpxJJ0N4USSOn1gQcewF133cXvyg7t22PN6jX4ZOUn7NEZMWJEteMQQKCwLPUrbItIaZe/0xjp2OKdL7y/8nv6nN7ZdX2vL6Kk70v+Lvuk/us7FhNrdWOMFAgkbzhxXRo5bpF0oC3c1740MGouNdcDGR4+uRiCIhtcXRYDd6Sb1khGA7n+EUSa3cjZAFWeENxBqm+gEyKIOibEyWn90LGpHzL8lGdrVgNISbYzQJDllOUJixW54BJwTQQNMJCBlbwKFi3SiiuJiylFmWjs0e3oO3L5uR0OVJRVokV+Dky2BK5vIEGETPGUeIknUeeW4P7kxMa4k6gf/XkSy1hQDPUM0DCDIotZzJvLR8qRAhBVlpSgbcschF0+Vpf0JtiFwBLpKgDwkTw1DDU8CHRMIkwRMHjllVe4IA3d+P9kawIIdQOEHb+W4asXo7Ubeo/qgOx29efk/5PXVH/sfyrNkTwFxLG5+eabIy9ukl++9rrrsGnjRi7gQy/8ivJyeLw+Lit/8imngFafJDNOmQ/0bqFtTJMfRHjSTBjjyC2rXg+CMybBfd84rmFSW2Pj/82XyHn3DXzXszf2b+mAG8cfW2NVXFVZBeWNF5CUng7lZgFuDqtxtsQj8Dw4CX9+74QxvQrdTusYOS6lcoZG3wllzpJoCuPBA/B9+A7Mg4YJrwIZQFJNnDAD9vwWYjg/r4L7l9Ww6wACZkyA67pbkahxCvgdN2Y4PFPmxq2pQYaTxJvCj8+JeFI4w23IrXiipD+GLeuJ1GwbyvfvQ8aDd0N9ZUW9q2iyVUQ4pBVv+/btWfiIQCB5QoikTaCka7du2LF9O1q2agXShqFqlORNuPjii7nwXLw0R3pP1ubBiAUM0iZJwCCzNKThbuj11Pcr96HP4oGAhvap3y4e0JHnqAcltA9dK4UAQsTggSoFCuNMBVYEk46Mnoh1R8IN0phrPwWxUXgDeAWPMFJMIaQlW+EPqgwQ/Cp9Go3ny7C9XIXryZF0IOoy6A8g2QzYbBZ4mJwnOAREgKQmDbcITwgRJh4711aQQEOvnlidA0B9SKlo6svpcGLjzxsRcPmR2SEP+S3zYUlIqKF8qE91jAKkWPqkJrCkASqpfigvlgQ3ci8BaFT2LCTaRBEPp1+cL5EWq0qK0a51LoKBEIccyH0QCTPQdQsDgbCC9J5PVAsx0PE+/fQz7Nq1k12o55x9doRxTTcAud1I4IVekITESeGMWOBU8Y4eNrrRqZQqZT9QjjkV0iHAQZXzaH/6TyJMjWlNAKFugLD5+yK8+0RUoGnw7OOR1/no5cs35to1ZNt/CiDMf3o+35fjxo9ryDBr3SYUCkMZORChuUthtsYpHPX2ayhRDEi+6rqokault8rKShTt3w97air+PWs/eo86Fs1i6g/Qc1908CBSn30a1l5XQznt8PgI6q7tKP/gXSQMvQefLd6Nk29KRn5+84ixI29JePSd8E+fz7oIbNT+2ATHmp+ReNsAkelAL5T774Jr1ENIaiNCL+qXn8JbeAAJt4lqmfzZExMR6nERTGf1EH+HQnAumAXrsNG1hl78D40ERo+DJUdIPavBINSBN+CzSyfAGkpHz/5t+R1TsfIjZFVVQLmtP7/vjnRzOp2cscGAKKbVG2KojRxI/dTGKagrZFCNyKeT4ZX9RSZcl96oP1bsdrVNVuy49dvFjJtDDOteHqDyyl7zBpByEyEGIUUcrV8gFQEj56Fj6ktjz8aWCgy5K5BYWQF/i+YwmsxISrSg1B1mLQNeMfPqWefG0HEQiKhIjRwYQa8PqXYTzCYTqyhKYyz1DWhlrScSEq9BgARZyTG6T6yYkT77IhAMI0gvBYOCv7btRIsWzWFLsKKsrJLBSXJyouAriCW/4DlEH5Go/yNCQNA0DnS6CdL7IkIRhAiF8ecaDdIFRNurIaQkmFh+2hnQeB1hFQ4NILi9IT454inSf+YgaOMKqAqyL6wJED786COUlpSw242ORSVR9W3H9h0oKy/j1VBZWRn+/PNPXHvttbwtoW0CCTarFYFgEDt37ERRcRF27dyJ7iecwIWacnJycOKJJ/L2EunW9TC/P2cbNn9XyptYbAbc99ppMBgVfDB3Gzb9R3yenGHBPc8Lmdrl07fgz5+FkmJCigmjXvx7hFW2fF+MFbOjVRvvXHQCl2Xd/Xs5Xp/wR+QUB8zuirwOyfhrbRnenrI18vnAeV2R2zYZG78pwodPbo9+PqsrcjvS58X48Mlo/4NmdUWzjsnYsqoYK2ZFPx8wsyvyOv3veBA8jgCe7BdVTOx+UTYuv6cDSAdhzq2rI/PQ/uRU3PTosTVulXgvbP1GtQklvf3225xuR9k6h9M4PXrwzQjNexbmWA8BfXdnHxTfPwHZnTrXGyOnvgJ+PzPlV6/cifI9YfS6s0ON4REoKd6zG6lL5sJ2S3/ghJPr7btWG/D+2ygLq0i+7DosuGM1BjzZpZrXkI3/hLFwPjgZyckaufDnH1C5azuSb+wTcUuHJ42Fu98dSO7QiQ8V/ug9+IwmJFx2VfTtt2wBAnktYLniGvGZx409n3yE/N7XxzW8tElg8ZMIn3AyrGdqoMLphP+xh1B5/6NYPmknhsw9BWabEVX07pn9OJJOOwO44jooDSye1dBrT6FXCjNRKII8EPrU2LjFmuojJdZ6QWrRLNAb69gwfm2ERjpGQ8YR23dD+Qy67Rgg/PJif20Rq6Pik/FXjGzIpVwxGSX6J0h9PMpqqZFyRWwPupBaWgw1LQ1/FRUhJTUJGempUAxGmCxmGIwmBh/ExKeVvjdM3gmSXBaywgxEqHeDirDHg6xUKwsuVfhlZoMuqEGFnXQLdwo10L56sSU6X6njICWlJTGSVRe10thCwEhFVUUV0jLIbUheCBVulwc2qxkJNgt8gXAENEmvijy81HiUoCr2XtHNrvAKaBvQMSIERgiCZLJZgQtGUMVccbZhVJYUo2ObPDg8IfhUUQCL5Zt1nArSlYgHEGbMmMEPAj0QY8eOraaFQAQd8hSQd4CAAb2cyUVHoQgiUxUXFSEpOVloqpeVoaSkBF9//Q0GDOgPIkBSIy8ClYcm12WDyj0v2FW93PNzJJ1M5Z53449VWrnndDOGLDqOz//9OTuwY22VAAjJJtz5TNea/M6GvhUasR2Bko+ejJYWHzC3C9dv37vJieVTdOWep3XUyj1XYcXMaHXG26ZRGWg7tnxfXq3c821TO6FZOyoDXY6Vi6KhhFundkJuOzu2/VyBf+uOe+vjnZDboYF1ARpxfkdrU68ziMVDN0a679ozAxff0QoBbwgLBm6IfN66exKue6i6sSQ1QlrV1dVqAwjvvfce38MjR4yArZ4+6jv38J19EZo8E+ZcnXeMwMGBAjhXvAX0G8pEuMY0Ik2+N2Un+k3rzqV8Y5vfH0Dhrh1otmgOzOdfCOWMHlDTMjgFUomtGljHgdVx96Ly2lsQbn48Xp/yGwbNPgF2jaAod1MfH4+q4aORKtNBv1iJMiKEX3Mjb8KhlmfmIXDupUjS0hXDK/4Fb2o67D0vjhxd/fA9+CrKYOs3WHxWWY6iNauRdcHFtfI3XN98DlNRIaw3aXVhtm3B7l270LznRfjq1T9hVmy4YEA7XmyQ4U58biFSmjUD+gyCElOiujHzH7vt999/z0qKl156Kbp164bc3GjxqhpCSbUx/9kUxlnxx/MIxPYRu59+gHUdL/ZE4gEGPSCoDWxIUFILmBAkxZcGaDZOIyVoYQU2kBqhjlxOvAJWqZwzLc9FyEHKLEfvFpGuZ1RDvK3R50DR3r0wJyQjq0U+G3pHeSlSkhKQkpzIYQyzDGVoGtRivknFUIWz0omsdDsDk0pvAGGDmVf5FE7Q8xBi40SsUKxlRVB/5JWgs6MUSl7l6iARiz5R9UgSMQqr8LudSCSpUS24T8f2ejywJ9igaPMQIk0GWUtBZidooYQ6SmdEL6umrBjhQ+hAjj3gAgqK4WvZEj6maoq0R3dFFCC4QwosVOSKwi5a6EcQMhWkX1DTg7B06VK0bt0aLpcbubnNmMjzT7amEENTiIHuvyNJUqT+JkyYwM83GW4ipB1OC48fDX+fQbAdKxQZ+X1DxYru7IO9o8aheddukfh9Q49DQPrjZzejVYdsdL8oppKi1gm51skoBrdtRv7K92Hatxdo2RrKuRcClApJ8s9GY+3plzTOUUNQ8ugM7FkTQMGuUlw1vKactfrUEyi/oQ8yNH6B+q9XUZWcilTNO8AA4cVF8J3WAynHHS/m4I0XUXbcCcg8Plo7QSVewvp1SLxDkPzUb79CodWGZqefWesY3bt3wfz2yzCPEdcLC2bjwHkXI69bd1ZbfHXMVtz9zKlamBu8uPH/vAr5/34XyvgpYj7qIM439HoUFBTgnXfe4YXO+eefj0suiWov1KqkGG+lH8/wxxtEPKNdm+dA9in30YMJvWGXx4k19vLzWM9BbSGGOPMpQgwv3q4t/oV/nMh0GluASXCkCUCMeUIEtEKnIkOyL/o74vbXu8lppYcAEoxBNr4O2LhfWsHzDSG1D8IhKEYjrzwJPBik6A9FPCjH1utCfnYqQqUOHNy6FRkd2sGQlcnG0RAKwX+gDL6sDISI0a/VfYiQHRFm4iK5rmU1ySD583UOCJm1IRMMgqTW6HUjIUmEFEgbms6fwwpqGD6vB6kpSRxiCJD0M+kyaJLONRkIddymGkCQQEV6TeinLeCG3eFGSXomZyVIgOAqK0andsKD4AgoSLJStUkVdE6SE0EBiYxaAMKtt97KHAM9Q7WhD9KR3q4JIDQBhKMBEKgWg8lsxiPjxx/2Let66xUouc1hP09o9JOyIB4ZjX3nXoikcy9k7YNDMVJ7/yrEZwsLMHjeiXHHyOENVYXL6USVwwmPy4mg1wOlrBR5a35A8pofgHPOg3LbQKiZ2TXGQARKz9RHoT40GV89ux+dLgU6HyNCBPrmfmEJAj0vZa0VPr8l8+Do0h0p518QAUT+N1+Au0t3pJ8oQn3qC0tw4JKr0Dw/qm/g2r4N+HIl7ENHCCb/rMdx8NLeyO3Wrdb58Xm9MEwYA+OMp/k9j6vPR8mS15HdsiV7I796fRtCbhN63SkUJmk+qqocOLh3N9o+twDm+8dDaXH4gm8ExggcfPDBB5z5sGjRosgUxQUItYGSurQK4hnk2ox57EWqzQsRa/zldrHAIRZUxG4nJrdWzgQDhF9f6q/yTRnJKhDcABNFx4mHoBhhQAhhlVQLyOCK+gqCXKgp+WmradrPjBCSLQpsFgVFxRVIz0hDuU+EJmTCvhx3PKlkFkjSJkDxOpCbnQLiCIhSz/TwkDNfuNhNoQAUClsQaJEESNqfNBkCPliTbHz+FM/XElRE3oBMi5Srfm0VTl6PcNAPk9Umqi5yvEBMIHMm1DBCAT+HQsxWK/fri3EZkBeCWoSOIM9F+1CGN/T3gpx/dlqoYRiCYfgIlGmiT+xBKC9FhzbNUOVT4farXPCKeQi64k8EXOKFGCgvmFYlRDSUud6H/QZtQAcfPr0Nu9ZXivlQgOFLT2HA1gQQDg0gHNzuwAfz/ozM/EVD2qLdCf988a0axqcqgLl9fo58fMIlzXDliI7MQTjaxZqIL0OehMNtzk2/w/LLapj7DgI2/Ab1+UXYfvn17FHIb54fWd029jjE2Vk+cwOuGtaN2fp1NU7304jAtJ/T6YK/sgLq/r1otn4tEosPAoOHQ+kc5XGQjPKB3TuRcenVeO2RTbj64dasBRDbfG8+D9eJZyGjs6imqT79BNynnIVESTakd/yXK1GSmo4sWfVx2UIcuOI61hWQzXVwH9R33kLi8NHiOR90E0rGT0NWh9rlo2lB6H98HMIPTERCMIDgPQPgX/yqqAGhqigvqcALo7Zi9KvVi7LRHBQXHEBSWhrSMw7/vl+9ejV+X7+ebVq9Sor1GfX6vAPxVvLyxdjYm6iu7esCAfr9YusvxOEoiBDDc31UTmnUoSNacTMAkAtYWilrHAEKO4i+9HrCZDxDzFdIsRqQlmhCWaUHTpcbGZnpqPBpQkqarLAALiJ3VN+Ye6ABBP7pdaB5TiqcHj+cQVMEOcjwAXswiJFrMIDCCuT5UCorYdi/FwFLAmxdOmhEPhk+EUdjXYNqrFht/R8maxuA0WLl1TuPUQMR3IP2Nz24BJJIoEk1mNhIczqixmmQ6pXxAGfMVIuHUwMoBBCoRTkJMhMiDEdJETq1a85Frlx+lb0xJCblpvLP2iSSZkI8gPDaa6/BZDCiWV4uu9L+rvbWY5vx55oybc6Bh987+4gChFVv70H5QQ/3bzQZ0OvO9o2K1dY3D/9Uuefashj2bq7ASw9GY/s3jOuCLmfWX3GwvvM80t//U1kMzz//PDLSM3DNtRph7jBOjFbu5kdGw2hNQGl+SzhOOweJbdshKzPrkMGBfO/9+vVu7PnNi2saWeqa3keUbeTz+VFeXgYU7EfGyhWwkxegz2BB4ht/Hwpv7Adb3jFYPm89bhp/XFyuhPruWyhu0wE5JwnvAGZOguPS3kjuLjwb7OldtwalpSXIuuRy8S5c+hSKrruNScmykQS8+uISJI/UQjo3XILKBS8jTQci4l0G77PzoXQ9AZbkFBRuXI+sG/rApDHU6Rx/+mQ7vMVmXDRIZFDIJvUFDsV7EzuOVatW4ZtvvkWzZjkYMmRIta/jchAiL+vqditCZNO/8OMY3Brz0JBtYneqLWSg366ubSQwkNvXMQYGCL+/2E9lop92zhz11sBBhKDIRpK8CeQJiNao5uIJtJpXyZ0fBtVVyEq1wOXysuEK+dxIyUhDpa9mDQU5Pn3yiqz1QN9RnyoBhGbpqHIHOB4v559DA5orjtCfEWQwFVhNQLDSi1AoCCTZuUpirLwy7yv/68EIKRMGg0LhkU9ckz3WxQ7Yo6CZY55XzsZQ2a1J3oQAf0/7CfKj3kNU37tKpDlq/+X4tExTOk6VBhA8AZW9KTTEJIvCHgUJMOjapMVJc9y4cSP+/dFH6HXZZTUyGOob1+F8f7QBwnP3/YoDf7l4iCarAQ++dTqHrI5UawIIhzaT/wRAIAO2du1a/Pjjjxg5cuShDbyaIQpj95/b4FPBqYAZGZlISWkcKbG2QVSUVuG1h7di2JKTayXy1XcCdL4etwdlxYVI+PxjpO/bDcMZZyOw8iM4H52Ogk0h7PyjEL0GHxuXK6Gu/ABOgxHJl1whDjXxAVT0GYS0TsKjQC2wdTOcWzYirbcgLoYWzoKjz9BqJeNDLhecT81AysOPCY/rFT3g/tcnsNdTxtr56y9I+HolL/B2XnsbezelsBAdq6ykEs/etRFj3zrzsABZXfNI0vPkRdi1axf69etXDfhUk1qO57qnjmPDB3qAEGuI6e9vPofy1zaopENz/iXAxvVQiPD5wXKoZ50H5Zn5QFY21HYdoDbLg+HLlQCpa559HrB7J7B/D5fpxsmnQ/3+K2DYaGDz7yK4/stPUAoPMkdFveRyoGWb6Knr60XQmCXhNV54QTdh+/ftg7L1zYFszYTt01j6GmAgI0QERbLMftUAJRQQfASZ5qfJBJIwEV3opAQTC/xUOr0IwQiz6oMlIREuEjni0EA0fCD4DaJFXP668ALzIHwuNMtORZU3BF9YhBX4umjXxkzueJ8XthQ7eyPISHu1tAb6W4xUSyXULmgsV4DVHGU6YigIi4mACGUW6FwokQsv2Y2kVyB+F/Mm1KqpjoNPNSAgCYzaNkxniEgtx9f9kOOSXgR5nTgDVQcQAiEVZR4RJkm0iPLRpBEheBLxSYqkMPbLL7/gtNNOQ8+ePet79xyx75sAQnfktkvGhq8L8f7caGhg8JxDCzE0eRDErRmbxUAevcmTJ7Ny31lnnYUePUT63OE2cmlT35RVcSRWrHI8oWAIK1/Ygs4n5KHDqYdWVCrSF9VpKS9HWUEBMjesQ9nxJ6NN5y7499Pb0b6HFd1Oj1+9Nfj151D+3ArjHZp647h7UTVkBFLatY9Mm7+sGKEPV8DabwiLyoXnTIXzjpHVxKFoUeUfdy+s05+CQsI6V5wD7/vfwBZHRVF/PVwuF0yP3o+AyQTv2InI0ikxMhgJhbDux83w7U3B2be0OqLzL8dBwklVDgfLLVMmA4U4ZKs1zVF/EnoQEG8lLrkJZD/27QHmz4LyxHwmZarnXAD8/guU/ncAsx4DKLX1icnA/Oeg3jMQ6lXXw1BeCpVqVowdDnQ/BUrvG5igqRYXQ7nzNmDoCICAGElan3gq8Mj9wKQnoNIiST8e/Tj0Y5afy21jXN4MEDa/0k81ESuWgEAoJNfHmhUjPQQDew6iThURGiA1PxFuF054syGMZLsFFY6AKMakhpGk+KAaLXCFTZwlINd2+nHIcEGsO56KhZiDXmRmJKPCq/L+ZBSZaCiSLGGsKofi8sKQmwmfwRqtE6FVahRyQ1ElRRouyTUT8JEyzHp9BBL5SCI3RDiMIHsCBCjRb1PjpUNuPwI/oSAqf/sdzVo2hzszm8mcEsxI/QS5b1zPgjbB8QACza+juBDt2uTxdSeAQCdmDAWRmGBClU/LxIjDQaCVBpFwKP3wmGOOafIgNMJqNHkQGjFZuk0b60Gge9RRKiRtjSYF9lRznQahtjTHZ599Frt3747UYji00f89e+3ZVoQVM3ZhxLJTOTPrcJvf54PD6WI3fXJSMl6fsAGXjMqrtiquZtvW/gT1P1/DOPph8Z4aOxyue8chSaom0ruyrBjh11+GZfh9XDcnNPlhuO5/hIXVZCM+gTJiEIJPLYPJ5YTS92r43/mCCz7V1Qh47d69h0MmHdq3ixsaJA2WJ29dj/tfPR3JmXXzNQ5l/ijEQAqz+/cX4OKLL6pWcKqGB0Ef229oaEC/z8b1UL/9AoZ7xrCYFA4UAF98AmWADiCMvhM461zhST7xFCgfrYBiT0D47PNh2LxBeAsIEFA4Z+lTUMnOntUDSvMWEYCgUiEt6SGIF+OOBTV88WMkk7VxC5LiC/1UqzHKB5Ayx26YYVeCYnXMJD1ANZp45cwERq1fycRPspvh9YXgZ6adAgN5FOwmBINhuFWh/0+LezKbtLeURpYQg86FwwpafCPk8yDBpCI9NRElHuGyj9fiCWxRmCC20XGJIyCrKtL3mj6UABGKwlLL6XYz12CQYkziPOvPUaB5MAU88G3dAXubfAST05j/oCeSSrIAe1KkNyRGGCsWIHC0Q/MgtG2Zy0CORKeohalORXICKr1CDyIeSZEucn5+PusX/Prrrywt+ne1Jg9CkweB7rX6SIrhkIpp16zi27LDKem4eUJNOWL9PVsbQIi9r+m5JS8AeQBINY9WiGSQhPS4hZ9BqjtAn9FCSO/iPtrPCI3rxdEbMXD2CbDaiUF15JrH4ce/pm3E9eM7Va+yqDuEunkjQi8/A9OMp8W7/L474X1oMhKaRdMvw5UV8L3yPCzDRnEYN/jQvfBMmF6N08DvxhGD4Z21EAllpcCsyQjNWVKrSJL+LJnLFVYj3IPYGaDvd+zcia0fh3D5PVGp6HgzRR4HksgmpVd5Pemn9PwQEKCxyro0tF1dXqEGpznGG0w4zKFOBgJkrMl4FewH5j4OZc5SqA+PgnJLf4T/8yWUe8ZAmTAGKv2c+ihw30NQv/4cavuOMBwsgJqSJjI2vvwUuP4WoFUbqAX7oSyeA/XuMVD6XgPMXlTdg6AHCLGeBL2eRmwYRJ6L5llggLDlxZtVylQwIoSQYopoBErRItpH6geQ8TKZRMaAcB6IiowWi4kng2SVyXQRX8Aa8iEz1QZS/qO/I1LDmmXkSo6aWiNxU4j9TxkKUvgo7PMg2QqkJNlR6o0BCPpURcmd0LwCbDglmJDb6XkEWjkI2kaLnkSIkQF/ABmJFrhYX0DKTgvSoAAKUe2HWMzAp8VS02GY1SDLjNK5UIEqeZ8wWNAqScYCgdj7TJJExSmocJUWo1XzHEY1pW6thkQoBJOiImwwipTLOB4EUgkjQibpzdPDcfnlf181xyaA0AQQ/kmAQAaCivPMnj0bb7zxBv++fv16ECeHPGrkmifhMBLMoeeVxL4ashg4EqacjrPxpz0o3R7G+X3jhwEO9Tibvy/G3p0H0fPmzrXKHav7diM8dxqMc5eKw4waAvekWbCnR7MDqKS1Z8EcWO4fzyTwkFZjoVppZ9p3/L2oHDsJKWXFqPzpeyTffHuDAEJDzo/EoxYOXYtbJ3RDbntdSWndzmTo6d1GsvFUb+Ozzz7Dnj170LlzZ67u6Ha50LFTJ67qSd+TABwJwTUIIOi8JZFDxq64pXHQr/r0BoLrGqnASeN/HgAAIABJREFUH5uhLH8NuOIaqBQSWP0D8NWnQO8boeTlAy8uAe4bB3XJk0DHLqIg3+lnAfNmAO07QiEvAvV10eXAts1QBw2Dsvx1oPvJQKcuUJ9bCNx+Bxnp6iEGOT4950ACF302gjxBbTsRYnjpVpXkfSVDIEToxyTdOWJ5K3QEqksjU4o+qQaTkTWbSRkxBFVl1QCEKDUy4EVWegIq3SHWQBBLZs1i66o4yo/pG16Fa5v4XC4kJ5hgt9tQ7hUudUni4w3J0hqMgifJMSsBWsjwSs9AvBuQjbRW2pq31YgQ9HnQF0CzVAvK6HiSX6Ct9unYXEtC84TogZkcV6QvbZ8kkwIbpeYYLcwPkACBgANHdLSx8v4xg5XZHLIapKOkEG1aNuN5JIBAjR6eoNuB5rmZqPCpXIshNouBXoSEhqllZmZWS1FqyAN6ONs0AYS/ByD43AFsWy2yRajltU9CVstoPPVwruGh7NvYEMPR9CBQNceJEyfyM3D88cez94DkxN999z0kJyZixKiRWLduHX9O1R7JcNPvf0dzOVxYcPsGjHzlZCQkHbkqq29O3ILjLk1Et7Nq1woIlJbAMukhhJ9+lg2leeRgVE57CvakqBGmYnmYOh6h8VNBozOMHQ4nbaPjF3CK9qJZcN46BMlFBdhdUYXWdYgkHcq8krH/4slSDJjVPS5hkcAdgQMCCQQIPvroIxQeOIjUjHSc2+NcrF79M3r37o0V776HXpdfhqKiYrRuXbeOQlySYiwQiD0ZvSGIJQDGGoxY4iP1pXc3x/6uP1a8vvX7y31j3dTxUhtjgYwOJLAHYdNz17PCgay1YDQIISTyJhDzjiU+mV1PmQKqdoEIHRjYe2C3W+Dz+Lmgk9QAYN2AgBeZ6UmodAd5ZWswmUTsX69zwEZXeA5IHpmOwa4+UOEkB9KSbDBbzczUl14LGiet7vm89L567cSiNQ+iM8qrde24keiDpqAoKjSKMErI70dumpUBgr7GA+MRDVTQT66jEKMvwV4L3bkJ7oIKU3k51AQL/NYk3ZjFvcCeHA0YyWspjytHzwRKA5iD0Do/m+ex1BOG1+nAvu27kJaVgbycDJgSErjiZer5NZUUD+WhPBL7/K8AhIAniKA/GsOyJJo4bfJ/hYNQWejB/CG/RC7Z5cPb4aTLGldA61CuN9Vt8TqixtRoMcCSYMJ/E0Ag17M+jCDe8dGQqiyHK989hzIPh7oPudDfnbMBJ13YEu1OOjIVVuk8lgz/BddOaIHcvPhqjTTegLMSyn13QVnymiCijxgE9xMLqht/Csc8PBLKtKdgDPgRfGgE1FmLqxWoouM5F81D8Ia+SPtrCwoyctC8S5cjSiqU2hHdzmpZqwIljUOWRZallONdZ3n96wsnNUooSd4AesEkaaSlt0Fv1KUxjwc49BkH+u/1fAZpPKRnolocW3c36jkIeiAgxyRd7dKbEJPdwABh/dJrVaOWzxgbuWedAeIdcDKfAAQEGAwUZlBVWMwmvihCTZCYk2JwXGPB7UIepSiSkhCt9Kkks0iWZMBAvxMRkAsfaUtoVaulQMeprHQgM83O8akqv2Dry4vLhpjFnbQSyjFS2LEPrHTnV/Ms6PaJFKIK+JCbZmPOA0swa8TISEEkrWOaLjkeHeASIYaYschrqHcRSMDBYEUCDc37EQskecwAyIPQqnkmjGYzyj0qPFVVMIV98PmDHGIgwJaVkQZrT1Fmlf4f6UYPamy/xG3Iyoqfi/+/AhBWf7gXXzwXrYlw9zOnIDXH1gQQ6rmBXBV+PDVgTWSr069pjgsHtP2vAQhH+v4/0v2RASvYW4SvlhxE36nHHxGj6nUG8PbM33Hdg12qsfJjx6663QiOGgJl8cugRSEeuAe+mBLNVNRJHTUEwTlLYHE64JkxEeZpT9XgDHifXQDXuRch4/1/Yf/N/ZHf6shnHRw8WIj3p+7DwJndGYQe7RY3i0H/cq6NRFbbql1v4GN/jzXkEkzURjKUYYF4/eg9FTUuumZs6HO9NyFemIGyhVhqedHVbNaJWyBU/oRFkmCBbh4y7uQhELwB0bmpuATm1i3gCcpcAekkV9h9Th6A3NwMUN4+gwpOBdSrHrA2YcRu0sOiJwZ6KiuRk5nMHgUCCGSkzZEIhVZTIaJKoIkLaYWLBOkwOjuSHBk73wwANA4J/Qz5fMhLt7EHgcMAkkjIyEQrL62VtGZSoEZCZECnnX4syJLfSTAgQWEkx1MSGSV3IhZg6ABCy7xMmC1EoiQlRQXllU7YbVa4w8RBAAJuD7KuWNBggEBzPmfuXPTr25crmhGRi5jDROaiAk4UkiCW8vrff8fpp50Gl9vNsVu6cSh/mGquJyenoEuXzrxtbPufAQjv78Vny6IAYcRzTQChIS9gAgjz+kWrM55xbT4uGtQEEBoyd3KboN+PpaPW4aaHuyG71eGHhSiltsxRhDN71c4/4HdQwI/wPQMQmv8izKQXQ8qG46dU4ywwQLirDwLzX4SltBiOpU8jaeKMGmTO8KvPAUnJUD56B8XT5iM7u6YEdGPmJN62wWAI3727Df5yMy65o/0RAVN1jalOgFDfycRTyou3yo8NBUiyWoAqE5oAnxfY+RdwTDco+/ZAbZ4vFuHEMYgHUGo7hjQ6sUCkrjAGpxPvg7JmUW9NoUBLCeSMBRVWTdWK9QTIk8CrYwUm+v7AQfh9fljat0OYQhFhSsQHextEnYUwy4LmZqWxLDCdEHMWpOYBkRs1pEMeCAIh9GdIM47EQ3BVVCA3O5X7cwUitRIFgKFsBI3RQJkC+tU522kdUNL+FPOpN/Kai1+CQp4rrwfNMuwo94k7QEog6/uToI3UEyXwkuEF2kcWf9L3Sx4MWZMqAhB0BEqeCo3HwuBOR0iQIIU8CAQQqPw0jYs0HwqLq5CdncIhGHGeCtIaEWKgfoqLi/HDqh/QuUtnjs3Rw/3111+xshi5Z/ft3YuWrVoxcCC5ZhKMWbxoEfoP6M8McSkFy9Ucw2E4HI7I3H00dyd2/SqEjGiuhr/QlVJV8PmSvdj2g6jOaLYaMHTpMXz++s8T08wY8LTQkP/4yT3YuU70S9UcBy3szL+/PXE7inZ6+XeTRcGdy45lchSNSdackG5HvpZaCCuWiPbrx8VY9UZh5LHvN6cDUrKt2L6mEivn74t83mdWe6Q1s2H/FidWTI8Cipseb4fs1gnYvd6Bj+bsiWx/85T2yGplw7ZVFfh86f7I5zc91hbZbezY+n0lvngm2v+Nk9sip60d21c7sHJBtJ8bJ7dDTtsEHPzTg3cej1aL7HVPK7Q/LRmOkgBeHr0t0v8FA1ug60UZjZ4HKe1dfc6EFkp0Tg0Ih0NsJFzlATw/Ilr2+sQr0nHWzc3hcwWxbFi07PUx56XigsEtEPCF8czQLZFxtj8pFb3ubQEKVSwasJk/b9UtGf3qWU03NIshcqD/8l/WfbULlXtV9Ox/+GTF50avw5l9MnHMSXWv4sn4h+7qi8BTzyNBAZwL58A68gFO+5ONy0IPuRm+hS/DdmAfHG+8hGQqlhTT1C9XIrjmJ4S3bIRv/vPV0iCP5NRXVVXhlQc3YuD0k2FPqzuN8nCPGzfNUW/Q5Uq9tkwA/QDihRekIaGfLieQmARl1w6ordoAhQehpKQClMUwbhTw4nLgxl7Ay+9xlgjX4UhMBlq0AGz26op8sUY/1qMQz+sQy03Qxs4ehNWLrlWp1kK0kdvfyLoGzAcgJiLXY6BKjoCVDNve/VBbtRTLb7ZsYYQMZrHiplRFtphhpCZZ4fCLQkrUpFKiZI+qZhMrF1K4gDkARJAkj4WiwFFejrycNJEJEBQAgfwPJBQkiyvF88DUuDEiKRfaNxoIkfvKr/mnx42czEQGCBIc6D0CzD/Qwg6SWMjzrxEXY70HdEQ6TixAiDyAeiAjOQmaPpMEUzK8UVl0EO1a5sJsNrBXxhFQ4XG4mOfhCqhMJCUiZNK5MxrsQaBxUEUzKjxDxC3yAhBgaNGiBZO6qAIkzQPdKKR0RqxwAgV0xomJdrjdbjFPqhr3pdDkQfh7SIr/FAehyYNwuGZI7E+g+uWxmzH0yVNgsR2eEugTN6zC4MWdaggP1TDqFBp+eBRc46ciRQ2j9K1XkTboLhhpdapr6uCb4Z+9GNaDBXB//AHs94+rcdLuPbthe2ICp4kbFr3c6CqXDZ1Fes9s/X03rAlGtO3UsqG7HdJ21QCCfJHXmETpNpauZt0LXR/zl/vHGGeF1BHzWwL79wKUXlpWCjU9A0pVFcl3AkWFwKSxwOJXgJsuA975HOjbG+qzbwB39weefBbK4rnAHfcCLVsJu1uXF6EuMKONjeyvsN/A/oICKD88fZVqkakDGhVQGGNRoIji/OQRoJWx2WRgl7YaDopiRmTUtC3FtsK6qeEQbCYFZrMR3pBJ84bozKfRCJMo3wQDFRTQVA/5A8YjCjyVFcjJToc/EILDT6WnxYNDY5f8RHm9uMBTPOscc0GFF6Q6mVC/id/pQW6W8CAQ4VLOdSyvQHIjJSGSvR8acJCfRfrVPCcMErRj10hZYDilhXW4c3CtBT2QKD94EK1bZMFqtaDYLXgfAbcb6al2OIXGDAtaNcaDcEhPTiN2+icAAoHWtf/eD2dZlDx37m2tYNQ8YvGGv7opxNCIqxrdtAkgHNK01diJPDZfvPwnEmw29Lil9SF3SvyD5bPW44aHu9bLQWJgP382Km/tj3RVRcVnHyP51prpieEhtyA4ZR6M+/fA+/OqSFEm/SCp8qT9hotR1WcIkvsMPKp6ElLHgFIVj2Y7JIAQzwDH4x4QMKC0xtJiwJ4oMvICQa6lodLv7Jo2QikpAiY/ADz9HND3GqhLX4M6/VEopH8wazLUec9A6dMbeO0DqHOncj0OdDm2eopjXR4ENhox+XM6Q8oehB+e7KWSx8BgMMKkBDmjwEB6z5paIUMEMuBGBXYSlzAo8Hp9IjNBIy1Snr3UOVCIMBfysfeAyie7qMiStpI264otsAGUFltTaqTaCSzMRJoKbhea56bD6w+hKiBWx0xw1NIF5bnxXMZwDqrdOGRstdRGua2sqBipNaFlKbiqqrh6ZMSDoAOELBalaSPo+2d1R63uQix4YwAlr7d2LRh86XgPtYVHyDEjvQikHllZGAUIZV6BknwEEFLsrNtA4zsUD8LRfMj+KYDw4thfsX+rO3JqDy0/AyZSyKyl/b8KEGglcOAvZ+SsE1MtSG125MirTQDhyD09xQdL8f6MXRg876RDjq///lUhvEoZTurRsUGrePeKf8HX7USkGQ1wrPkZSdffUpNfMGoIAveNh/XPLXDt3YPEQXfVBDihEAq//BSBjsegVdvDD5McuVk99J5qBQjxSIC1hRD0PAEayoH9QGoaFK+XOSBISgEqy4HMbKDoIEAcg8JCIDmZctjJtQRl0lioMxdAeXwc1Cuug7J7O9TkFChFhVCP6QrlP19CvakflCenQ525EFi2ABh2n5BfrmusNB49iS5O6IEBwnfzerG+IRl4KrhEyIU4BwQYSOhAmn5rOIjE9BS4PD42/CykBBJYilpAAgpcJTHkR2Z6ItzeILxhATZEBoHgMwjwIaURon/LL0h0SQ36OAvC6Q3AFRCjEDwCzWrrCy1pLv6IsdU8BTIDQNZliL1d+MgRz4MKZ0UlcnOoPLVYxpPKVzVeh9aBPnwUyRjRCi3JY0iwoDkEIv3oM0uqjUcH5IQIVRQgEJApLSxGq7x09iCQ9DSBHqfTjYzUBAYonEmiGmDt0bgQw6E/QvXv2QQQ/tkQQzgYxLRrf4pcqJ79W+LsGw59hRp7xZsAQv3PQEO3CAaCXJ+hZdtsdL+49vTE2vojLYlnRvyCS0Y1Q9tOLRoEMtzffAp/Vh5SqypQUVWJ1EuuqAkQxt8H7+1DYd+0AQ6/D8m33B53CMRRonTSGiJKDZ2A/7LtapAUaXx6gxvPM6A/B/1qsapCGGOLDSg8ALRpB2X3Lqh5zYWhz84RAKF1W8FDyGkGxeEAZZooUx9mxUT8+D1QUQrlrPOgfvw+cNtAYOEcYMJ01qpQ+gyGumMblC2boI55BPjxO+Cq66MjigUxtY1VZ8A0gHCZSqWayYXPSYe8mifZUeIMGNljQMWCbHt3Q2ndBiEjJShG/AUiJmCQqzPxOdVRaJGbjtJKN4KKVVY0EkBBy4rg+dY8BjzXmngSeSAUvwcGJYTc7DRUOf1wq1RASbAFmI2gkSV5hc1AReQIhrjapOAqSCBCX1FwQqYtMnDS/otrHrXM7vJytMjLYICg5xhUm0ttX/5eEzxizwKTJ2uGgGoAhEgqaMwToX0ekXfQsAs5XVKsCvbsJZJiRgQg0HYBjwepiVSaWvRFHgRjj5mN4iAczeeyCSA0AQS6v/4pqeWjeW8f6b7pHXJgbwlWTNuNYYtPbpCB14+BiKFTr1mFUW8cj8ysqBpiXeP0rv4eLl8IGQf2oiQ3H1k9zq9xXHXOFLguugJJa3+Es3lLJF121ZE+9f/K/moFCDTaeETA2M8loCACIsl6H9jPWQhKaQlU4hfQO5uqDhOxn1X+wgARE6lGA21XXgbV64MybTxw3a2AzQb1tedZaVFZNBfqPfdDmTcD4dHjoMyZAox5VHgZJs6A8vIyqCR4RcWcEuxAvHBMbTF5HfBhgLBq7sWCOsCGzwQDhC45+Q6oiBNrDaghJFhMTCDUy1NK3oFWqUEYeTJcfj9aNs9CRaUTflCsSCMOaH5zcvGTweZUQUqfpHgYZz8IoaSQ3wubGcjJTEW5ww9PWKRaitiMCHkQsZF+/h975wEdRfWF8d9sek8glNAJvVdp0kFFUQELCAIiKnZRAbH8wYKINBtFFEVARAVUqmJBeu+9E3pJCAnpdd//3DfZZFlSKQK675ycJLMzb97ceTvvm3u/+10hNgpRUkIW8sZvyh1nyEDbFZnSoEDCFxnTUddksPNkyBc0+eJFShYPyuIgZCRI2CCErciTfZaBCVIuFU+y50VmzqUMw2s+g116p20eaU+EA4/CJT2V9FMncS9TmojzUZQqFoi3l4dZe0HsnJCoQznJVlP+Wi7IveV/WyhJboYzxGAKJTk9CDfl2pPjoKSWwOIpu6nZqAyh9QtW5TH8WDwLxu+h1/A6OcorO544af9eUtetwjfiHNGt7ySoYaPLxmb9egIJterjs3Y58Y2a49u0+a1l1CscbZ4AwfbgvuTt0Y4Bb003F4WTJ6BQYXPtkloVUlfhaBiUKq2zFRDvQcQ5KFoMoqNNsCD7R13AECXL0e+gGjaDezvD4BdRvfthHJRMIAPKV4DZM6D/6zB5HLS5E2JjMNatQr0/FuOxh1DPvQrt7eT17cMeOf2dsX6aHISP7pC1OZOrYHExwwRmKpNrpsvJ1UUWaVFWFP+CGS6wByFmDFzphTwpOZWSIv97MY5Uw11fjHghdFVIuyqHtoXXdCCIzoKZxZCWGIe/rweFAn25EJNMEu76M1uzLbI2ToHN+yD9SMllLfxkV+7ZnoZhJmSazd57IOAiJTaGEsUkxGB+ZstYyJwLtgXcIRxgAwQ2wCH7Z+CWzLLQ5hkzijGIHW1hEbu0xkxORAZw8Y2MIM3NjQT/QC5GRFAi2B9fXy8tPa09CBkAITHdBGYSYvBp5QwxOAGCEyDYvt82JUVZfG0FexwV9mzKe9eypPOVrEsyrmMHwpk19DCDfmhaIC/CnlXhREVG0/S+ivkmCVpPHseY8BEqPZXYx58joFqNy4advGAWqUFF8V29jKgujxBUueqVXNp1P0br6KSnZ6Y5S7hD/s9cMzI0eGzbJB06X7UYAgIuHXtOrnrbIppBPDOOH0NJHQepvnj8KBQPgYQEEwBIWWnxLHh66f+N9DSUX4DpZZBaGO4eGDEXISUV9ekIjCLFUc8PwBg/GiVZJre3xpj2pRlK+GwUdH8cY8EcVI/HMaR09CeTYcgAKF8R9ewrGHNmaGCRmZdvHx6xvzoHzkL2ACHDkLYwguYiZDQXV7dMTQRZkrREZ0bT6YoZoCE6No7ypUMQdqvoBaTpYk1SNtqiyyILCVLi5pms/owFUTsJLAYJMRcpVtgPfz9vIuPEgyAplOaCnQkKMsIGZlaCeB/MNErJqZawg42IaP82L0PVACGjqqP51m16LwTApMTGXgIQNA6wRxc2gOiwOdfZn5l6YnNNmR6PjIiEni82oGXvQZA03+R0RaIesEFUeAQhYhN/70wPQlpiIv7errqcttxbKTvtzGJwehBsUsv/dQ/CxYsXef311xk/fgLR0VEUKlRIFy0TQbC1a9dqD+lzzz/P8uXLtRpojRrmAmlL87ruq1o2J0hOTuHnEQd44LXqeHjbC8vlPppfRu+nXjcvypYunW9goS5EYgx6DuXmRsyQkQSULHnZSZLWriA5Lo7AjWuIeKp/numTN8Jm8lK5Z/du/SCVlG0pRy0VPKdOnUq7du1ITkmhYoUK/PXXX6xZs4agoCD69+9fcICQ3cJqDxhsIEHKXvv4ak+BCvDXGge6mqOUZT57RnsLdKhBiIRRkSahMOai9hgoARJxsRjJIh+cCp+M0CBCPfUiRkw0asHP0LwNnDwO4kkYMARe6gujJ8J7r5uhBingJO3l11F9u2Lc0xnV68msIk62m5RHqMTkIIy5Q+kMsEz0cOmSqjMUlLzZS6aDcBNc9OIri7AWOEK8BuZE1vUHLAbxCYmUCilCbGyCBgjCDZBqg1qu2eKi387F06D5AjZPhCzwGaGOuOgoLQrk5eXO+VgzpVJXXrSxH2SBFU+HXX0EnRWRUaNB8yYyVl17r73WVBKkmVnt0VRzNJdgRXJcLMWCA3ThI3tvgOYF2OkfZH4J7EzlkCyS9T2xHZyBNOSMZnkLyYrI2i3LG6PwTk7E3d+b6AzBJtnrwrksgCAkRatwLtKS8fd0JVG5kS5FZqxOgOAMMUBeAEG+A0c2Xcicf4EhXgSX9i7ws/1mJynKdUqxprFjx3LmzBlCQ0PZtm2b1vdYsGCBLoE+ePBgfv75Z9xc3bi/0/3m88HuzbPARrnKA+SZcOzQaf787CxPfiYZDXl3mJZq5fNnNiNCXgKC8tvSExJwf+IhlJsHsR9Pxqfw5ZLp1kMHiNu4lsDD+4l8fpBeXG+mpgnoLi661PP69ev130KUXLLkb83X6tu3L3v37qVu3boMGzaMZ599Vu9bMhswZH9d2YYYMl4oMzkI2aWtpaVinDyBcneHosVNQCCy98IJkL9LljZVEYuXgAvnQQSPhIuQEA/BRYXAZ3oXRBNI5uG0L2HnNtT9D0Klahi7t6NOn4Q2d8Dff2B4+6AaNYN5s+COe2DPTgzJgHi4J/R/Qocf9Lk+HArPvAJNW2St9Y6ky0sY+ab+jbF6bHtN1bdlGWi0ol/TDVMiWesPmF8aM7MhIxtByBUZoECQuP5bFn0R4EhPo1iwP1GxyXox1p4DHf/PKJLiImEHoRPIyu+WGXu3eQdios4TWroYHh6uhF+UYk/o2g1Sq0Ev6CZa0NUkM4aKq8WiQxy2wlImp0Je1s1z63ubQXPUy7PsmnEt+jNRFkuIo6gDQMhc3zNmj22MmYt7hlfB9vafuebbhyEucUtlQA/7myGlrm1ASVlxjY0h3T8gI5XUvI4oB4Agw5F00wBPCwniQRDviNODoAkhzhBD7iEGyRL68KF1pAsRB2jZvTQtexQ8u+FWAAjyxli/fn0tJV6sWDH9HBNFPvnueLi7Ua58eV32WUTAREX0ZmjJScl8/OhGXvi6Eb6B5rMyt3YxPIlvXt/Kk5/VKlAWQbosZr26YDEsJHw585JKjrbzpYafI/WH6XiEnyX+tbevm0piXteY1+ci8Cb30M/Pj/DwcMqVK6dF4GzKkHLvIyMjNcCJl0rBkkqYS8tRSdH+GMdwQ0oyXLwIUpsmIgLkf/EWiACSrJ2ieRB9AQoH6xCCcvcwCWwSehAAIaAiLtZMcXRz11LLxsxvUHt2mETDhs1QpctiHDkgKWxwR0eTg1CrrhmqkBdkEV26uxPG2GGoV/8HJ45izJyC6vUUSIlpCXn4+mVxCuxDI7Zry7guDRD2rfkpY/W0qxqUsZCbpD7zbdwqXoQMDoGZHmgjLpgaCbZXbr0YK4WnhzvJqaKrYIIC22+9cAvB0MVMf7S9qZvv7JqtQFpqCj7eHhpwJGstZVsGgwlObFkPgiy0dyOD12DzgphgxLZvhtRhxslsYzFPZl6D9jYI5yAtVUsZi9dD96H7z/Iy2McuzRCM6dOwjduGCczR2h2X8bcGMBnjEnvKF9MEIFljuHRcpj1kn5SkZDw9XHXNjDSryfeQ1CZRUEzVhE0Lrq7ueJWo58xicOog5EpS/K8AhLwWlZv1c3kebF11CBXnTf0OJfIMGRzecoEdK4/T6cXa+eYfyLXLy1zS1xNJSk7G56kXLqnSaLNNiri7x76vU+5Sh36YawGom9WeVzKuHGsx2NYNh8VU/yvaBhHhIORCIR2mpmJER6HEM5OYaBLThH8gSom2YnrJyeDjDWlpmnOgt8uPcA0kzT4+DhUXY5IdZfEX70JAoBliEJLjQz3g5++hVj04chDEm/Djt/DiIIxFc01vw/MDYNc2+GGa6Vno0s0cvSNJ0SFcogFCcnKmkH9mZN3RXW5zwttSALK8XnZVnbK5Czb3fcYKmrGHAysg42S2hTbbm2n3Wn7pG3qWZ8B2XHZju2bjvYScmGNQIYO34DA2u3iCA60hyy4ZA3W0d04TPNO+GSYV0CHyx9ermmNBv2g3W5rjhdMJJMZl0VSLl/fBxc2Ff6tQUk4cBCdAKOhM/uf3Fy/H9AF7eebzhpdVT3QczZqfTuAZnEr9VqEFGqgAkXPnwomLj6N8uXLaPe/YUmWxG/wiVl8/0l9/95Jy0AU62S22c546CI7XI2/+EiYILGS++Z8/j5K0RW8vjIg8iTDcAAAgAElEQVQIlJAdBQRI2EDsLM9ssa0QFUUJz9PD5CrYN1su/SVFDoHN601PQ3g4LP8THnlMCybR+Hb4c5GZ6TBlIlSqimp/N8akT1Aikd/vRfMcMkbJlHAEOdkBBGVP5b/FbqJzuJdaQNynouueX4Agt15cc0LsEUKXHCfVGiWOKfFZcbkK70RcdkWLFkVkTkXiVB4atjoMcs6bqdxzbiGGn0fuYc+qC5lGe3XGbXgHeDgBQh4hBpknSXbAytXdgpuHCzd7iOFWfz6MfnQ1j31Qh6JlHRYOuwuTezN7+G5u7xNEyVKXkwzzsoFUaxUSn5D6smu2ok6RDZsR1Odp3N2zijnl1fet/Hm2HoTcCCHiHQg/h5EQbwID4WqcP296FYKLmKEHiUNLqCAxCYT4J1502Sb7OxIg7f93yC7ItOvSP/VCb/wwFURAacdWaNcB48txqBcGQthBjJ9/RD35AlSqApPHY+zaiurcFSTkkB1AsG0zDJOD4AQIt/I0vjqAIGSdhPh49h84oGNy8iMAY9WqVTz++OMaCJw7d44yZcoQEXFeZ63MmzeP4OAi7Nq5k1atWnL02DEd9+zSpYuZGmqTipRqi+/v5dCmaD1I+W69NqcJFheDeWMPsGdlpN7u7mnh1ZmNdDhn/kcH2b3ivN7uV8idF6Y00H//NGIfB9ZH6b+9/F3pP7WB5pZMHbCdM4dNSWVXDwsDZjbE4uLCtNe2c/pAltTyoB9v01LLv4zay7415nikvTStASI/vHH+Kf6aklU98fnJ9fAv4sneVRHMHXMoc/9nPq9LUIgXx3ZEMXNoVhXDPmNqElLRj0ObIpn9flZVxb4f1aJYqC+7l0cw/+Osfh4fXYvilXzZtSyCBZ/YbR9Vi+KVfdm7JoK5o7K29xlZk5AqfpzYc5EZb5pVD6U9MLgKVZoWIjo8kc/7bcvc3uHZ8tS7q7iOt496MKscc6uepWj2UGnNtxnddUMmB6F5t1K06J5z8ZvE2FQ+6bUps//b7g+hfd9yJFxM5dPHsrY37lyCtn3Kkhibxie9NmbuX7t9UTq+UIHUpHTGPJI1ngoNAug6pLrWLxn5gKn4WKFBII+8XSNXt/q/rZpjTk+gDb8exWK40qBDyRztkSSVM1/dRO/R1a8LP0Drw0z5nKgKVQhp3S6nof7rthdIajklxSQmFitm8gyiIjGiMkIL8v/Z0+Z2AWHnI6BYCIi6okgs64KHGa7jHKoqXmZcu5oPauUys2ZDojzvFBw5ZC7+A/rBXfdhPNgdxrwP+3ahHnta8xPYuRVq1wdb5U4bALH1a89BcAKEf8/cvhIPwsKFC+nQoYMmah06dEiLrOzauYtHuj+iST8XIiO1RyExOVkLYAl4OHHiBD169NCloGWhlvNKuecrBQivfNdIA4f5Hx1g9woTOPgVduOFrxtmAIS9HFhvLuz2AOGbgds5eygDILhbGPB9Q51tM31w9gBh7uh97F1tAg1p/afV1x6EywDCl/XwL3o5QHh6Yl0KlcgGIIyuSUilywHC4x/VpHioH7uWhbPgk8OZ5318dE2KV/Jj59JwFn5qt31UTYpX9mPv6gjmjrYHCDUIqeKfDUCoTJWmhZFqjhOftgMIz5SjXocQLZQ08qGshbp1z1I0FYCQns7obhvtAEJJWnQvk+MX4XKAUJz2fcsTH53KZ33sAUIIbfuUIzEmlU96Z22v3b4IHV+oSEpiOmO7ZwGE0Pr+dBtaQ2fkjHxwvRMgONwB8eItGnOCXh/UyZFbELY9ihWzD9P1rRo5egGu9gknXkbhaeXkKbza/m/G4y/xIDi+zcuA7b0JQhBMSUFJ9UXJSBD9g8AgXUuB6CjTnS+cgsjzpjCSDSTYlda+xAY6Zc4uxTWnIlA2HuDZ0xiffojqcD9s2QiR4ZqDwPgxpnSzCClJGelZ32Is/RPl4Q4ffWkWjJJmDxBsrH+p5uj0INyMU/PKx1RQgCBv+/JF8Pb21g+ggIAADRRKhIQQdvQopUuX1ou+pIiJF0EAg1lNzcDb20uHI+Rz+cmOFXyzcRCcIQazFkNBOQgCEMb2MBdwaeIpuOOJUGeI4cq/qvk6Mj01lUkvbqbXB7XwL+ST7TFLp4fhUSiFph0r50lmzNdJs9lJPE7Cm5JnxH+lXQYQHFIAtR1sokinTqAkq69wYZBshaQkjIhzZqqjEBTlmSnExEJBIPoGEmbILZPAvoiSzeA5vOVnLvDLl8DSxXDvg6gVS3SNB+PxZ1BSDGrmVAzRW+jUFXVbE1Oj4beFqEf7ZF7DpRUEzZM6AcK/bLYXFCBc78t3AoSbsxZDTgAhPTWdrX+c1dkx0opX8KVMjUCcAOF6f1Ny7n/h53spVTGAuneUuGwnEYX79s0dtH46mDLlC84/uHFXdfOfuUAhBskskDCDgAB5YfL2NnkFQkqMjzUr6en6CyorwyF7ERzTMI7pk5ekxFuzvAv2+wkAEBElSaOsVQ/j6GHYvhUl6pj1G0FAEMbfi1EH9mKEHYY69WDwe+ZYHcWeMm6PEyDc/PO0QCN0AoTGueogOD0IuXsQkhNS+bjXRtJSTCWxpg+WpF2f8k6AUKBv4bXd+cSRc6yacZZu/6t12Rt8+NE4Fk/Zy/2vVtJEY2e7dha4TAfBvmuHhdkQSWTxCojHQGSSJTVRAENSIkq4B/KZZC+IJ0FUE7MLLeREgHQMb9jCD46kRhnf9i0g2QyS4VC7PoakQ+7ahtqwBqN0GahSA9WgERQNgb07oUJlkw+RQ3MChGs3n26KnpwAwQkQZCLmqaSYg1CSEyDcFF/jSwYhROIZb+2g4/NVKVbOzGaQkN7Zw3EsnnSYWvd5UadpedxkcXK2a2aBfHkQMkIBRmyMrrwo0shGaoopeufji/LwNEX94uNN0ST531a4yVHFUEbuCBJyyl6wgQP7z+WcIr60YQ3s34Nx7DCqbEVo1c5UZxTdhD27MFYt1fUcDCka1b0PSlIjHT0ITpLiNZtHN1VHToDgBAhOgHBTfSWvyWC2rzzKjt9iuOvJUKIjkpg79gBu3tDiKT/KVi5+0yhAXpOLvUk6yRdAEK+ALLyiiCiuetE00BoHhimKJJkKAg7kb/EkCO9A9pP/RThJyIIihnQxKkswMKjwpX2ItoLsbwtZCKfAKyMjQhZy8UoIMVJ4BbLfof3mtjUrMJb9gdRRMIqWQFWtDh3ug0KmnLaRnGRqI5TMyF6yBxsZpEinB+EmmYzXahhOgOAECE6AkPVtkhTdoUOH8sUXX2gd/iFDhmhSrmTqzJo1i0D/AJ546klWrFihZZirVKlyrb6K17QfKS51eP8xEuJS8PBywcVDERgYpMnFwcGFrxs58ZpexHXuTGpsJCYk4OXtzbFjx2jWrBnLli3TxZok60oKcW3ZsoUZM2ZoueV33nknf8WaJCPB1rKTJZbFOTFR6x9oJUQBDaJ9YPMIuLqiREbZy1t7ELRq7/OPw+F98NkUM9Vx7QpzcZ81A8Z/g8oQMTKEePj1BHj2ZWjaEl7oAxWrwdaNqHFTwM8P461XddaCmjRDZ5SJ90AVC8EQj4V4NrZvwViz3FRZlFRIkXG2tWIlUN/+klWvwF592ElSvM4z9gZ0f6MBQnJcKpt/P0OTzqV12qKTpHhrkRT/bSEGW7Gmbt266cVBCjOJwNfZM2dYvmKF1viQbZs2bUIEgxo3aaJ1PCST52ZrsbFxxMXF6lRGAQZSzvi/lFWQ0/0Q9UfhX8i9Xrp0KS1btkRStzt37kxYWBghISFs3rxZAwap7Pnyyy9r3Y2SJS8nfdqf4zIPgm3Bl9/2LvlTJ0yBYSlCKNwCEUDSHAOpGeRi1kewZX9IqqOrm1ZcNEYMhUf7QrWa+rQiiWwMHYj64juThJiehvHiEyjxSJQoDa+/A327weTvMCaPhzoNoGYdlIAGARSD38MoURK1egXGhQiz1LMejxuGSDd7eZmC/wJeBLTYLjbDo6CvyXZdGaEOpwfhZnsKXOV4bjRAiA5PYsJTm3jjp2ZYXC1OgPCpEyDIlK57ZzHufbGS1kEY1XVt5iyv0DCA7m/X0lkTH3RerbdXbBhEt6HVr4lQkiwaixcvpnXr1rqKY7Vq1fQ5RDVUQIC7mzvVa1TXhZwEGEgqr7PdmhY4e/asTsGW1GzRcylRwgQAIlktIEHe3GXBE0+ReGTyInXmSFJ0yD4Q/kGmCqL9Z5lmzNLPF06CXqylDRkAPR43AYIUOJwwFuP+h0y9AqnNI54JAQSfTEZ9OhJeeg3jzVdgwjcgMsrVapllySVbQeo+SInph3uiVi/XP0ghRAk1WK1Yws+Yng0Zn2RUpCSZngR3d9Q3c0xA4jh2p5LirflFyG3UToDgDDHI/HCSFP99323nFf2zFsiRg2A/DFlUI8LNqsT6BVx+yyIsqYguZoVF8RpIgUH57euHYZO0tgMIuqDS+29iTJxuVh4+eRyjeAjq1Wfg3dEYY4ahBrwFrzyN8eFnqMnjoFtvjAljoUlz0wOx7C/45EsMISluE5EysyKzzqwQ74G3D4ZfgP4tUtAWGUdQYZQIN9mJI2V6EfITYlDWdIwYiV2cBvdAVEA1DNfsNbv/2dvnPFt2FnACBCdAcAKE6/Ns2L1rF1WrVdN8hdq1a2uPg3glQkNDOXDgAHfddVe+XP5r16yh4W236bBGo0aNdC2U7du3a6Kh1DwRVdO8mhx74cIFChcurMdRvnx5NmzYoH/LW7KUtxb107zaX3/9pfkYIoBWrmw5LZS2YeMGKlasxJEjh/U15dWkpLLYQca9fPlyatasyb69e3F1c9PFn6Tccr169fLqhj179nD8+HGKFy+OZG5UrFgRKdVdrmxZIs6f1/+Ld+CfatkKJTmmFsr/kefN2L+LhBjcMzQKMkCCAIXUNDOLIC1V8xB06qEs6NMnY7S+Q5dvZv1q8w2/aQvz8j7/GOPxZ1EH92Es+AlVPET/b121DGPl3xgSPrjrXvh2MsYrb5rHSNih/d2oY0cwLkajxFMREJRVYTLqAkb0BVTMRbPCpCg8pqVhfPuLGW5wrOyYK0BIi4dDM1B7x4OrF4arN8qahpF6BlW0A0bt18H3n7tZ/9SkuNXP4wQIToBwVQAhMY2Pe25w6iBk8yCQhVfc1iJ/LAtfZGSkXrRmz5pNy1Yttctaip3l1bZu2ULRYsXYu3cvdevWY+eOHdSuU5tffvlFkyRbtMhYJHLpSL7n69atyzyfAANZ0FauXEW/fk9pV7uAh7zanDlz2LlzJ7169eLixRj8/Hw1x2H16tXcd999uLt74Obmmms3P//0E40aNSYqOkqDlcqVK+vj42LjdPEo4UsIQTCvNmnSJBo2aEhsXKyuAdOqVSu2bNnKokULefrpp7Wce7ly5fLq5pp9nqsHwZ6DICJJQlKUjAABAhmcA8PVzZQ0lswGeZsXgCDVG6Vwk2OKo438mMNCfVkhJ/urtB+LCDMJ4VG2SSlo0TqQ8IIVDUys1WthCa2oiZGaCKk1GezSYx3GkS0HQaXEYvzeDkq1QNUdc1ksUJ1ZgbGyB6rtQozgutfshjg7unoLXCuAoOvEJyXph4X0Kf/Lm0Z0dLQuCCPkKNkuTT6TtwRpTg5CJD+8tzfzRj55q3EQnAAhxy+hxLhl0f3000/1Ih4UGMSq1au488479YLYtWvXfGUTiCeiYqVK/PDDDzz44IP6e7Zo0SLq1a3L4bAwunTunOeD4Ouvv9bfuTKly+Dq5krhQoXYvGULzZs3Z8OGjbRp3ZoiRYvk2c+8efMpWiSY02fOaK+IVGoV5r8Q/cTT0b1Hjzz7kGfC/Pnz6dmzp34+HD16FPEqSKaAuMvlWSEEwbza4UOH2Lhpk+aBxMfHa0/Cxo0badumDTt27KBmrVraW/NPtWw5CNkt7OfOYrhYTEEkSXcUyoFoIohYUVIiGBbw8TFLQW/dqN/ydcqjtOw8EvaLtA0wZMttyLCEvXZC1AUIOwS7tsOqpRj+AajWd5iFmaRq5JFDqJVLMPbvM1MwH30SHuqevUlz4iCoX6pjNBwDpe/J+V4kRaDmN8C4fwt4mnmVznbjLXCtAIJ8yaWJ23P27NkUCgri/k6dGD58OLfffjtNmzZl165d+u1A3KPytuHj4+MECBudAEGKOCXEpPLRo1m1G24USfHGfyOdI7hVLXBZuWfHBd0GFiSMIAuzeBJSUzEk1CB6B1KsSbb/ME3zAlTbu6BxczgeBhIesE+ZtPcC2ECB/flsRrQPAzhuk/9PnTDDFQvmQJMW0OUROBaGMftbLbFM0eLQsp2u8oiEOoQXkQNBUcDLqdOnHco975kAru5QOaNWdFokzGuceY9Vm78wCmW4eSK3wYoe0GmnSchwthtugWsFECQ9SOKR4kr9+++/dQlocUP269ePcePGIbFLcbXKG4u4AyX/uH6DBqQkpbF/w1nK1w/Ub1OnD8aSeDEt0y6hDcztZ4/EEX8hVW83XAzK1w3Q288diSMuY7uLm4VydQL0PmcOxZEQbe4v2RGyv7STe2NIjjc9GVIuulxd07txYneMZszbWrm6Abi4Wgg/lERsdGLm9rK1AnSZ6OizyUSezCoPXbpaAO4+FmIjUwgPi8/cv1S1ADx8LMRfTOHswaztJav44+nnQlxUKucOx2XuX7KaH54+rsSeT0VkcW2tZDVfPH3ciItM41xYbOb2ElV98fJ1Iz4ynbNhMVnbq/jj5edCUmw6p/ZnbS9a1he/Im6kJls5vvNi5v7BpfwIKG66hg9vykrZCyzqTeEyHtrrc3RbDKLlLy2wmBeFS3vqbIKj2y9mbg8o5klwaS+saYqwbVllsv2LuVOktA/padJP1nn9i3hQpKw36elWjm7N2u4b5EGxCt46vSxsS1Y/3n6ehFQRjXo4vNkcpxQlKlvTnCc5tf9Kuecb/kD5Dw8gR4DguLALMfH8ea1JgBRskjf4X37A2L1L1ztQIk50cD8s+xPadjAJjPd0MuWXcwMGjmEHe29DdjLLIqC0c5tZj0HqLzRsCvPnwL7d0Ko9tLnDBCXCY/h1rpnhMHGa1kzIBCv299vRg6BUOswMgofCMDwy4ldp4TCjmHmYTyvUg0t0OV1pmrH5WzNouwjDM5t416FhWE8exeIRAEHtoWouHolbZSLuvAOKfQJF846p5feS1MlxGOnVoGz7nA9RCbBqMLQYl2u31wogiItPCFNSoVHAgbgzS5Uqpb0Fsk3crVWrVtUeBCEUpaakUjg475hnfm3i3M9pgdws4AQIzvlxvS2QqwdBTm7/Ni81EP5cBHt3mZ4DKbsssf5lf2Hs2o5q0cYkKG5ca0obS/jhgUey3t4dBZgcUikvCUVkBypk26Z1poxyYCGtjqhVFEuVheZttHgSfy/G8PA0z9/+HtPjISmVOQHxy0IMqXGonythdDuTZfvUc/BdcRMQtF+BUfw2cM0i4qiw2TrEQtmHL79fh94nLaAHrkUy4kb7RkPSKZSgrXbfwqmZGEf+gEJNoFQD1ObRoIpCxeoYRzejjCSMct1R4dsxaj8Fq15DtZ1qvlkc/AJOroOiLaBqN1j7MqQloGq+hRG7A8L3QMJOVN3JkLQMI+x3cCkDNR6CXVPgtndhyQNQdyAcngfJ5yCwHsTvQxW6D6PqA7DhZUiOhiqvg+tF2DoejLVQa4EJEKyRsPwFsHiiAutA7f4YW1+D2HOoKv0xknbA6R1Q6U3x1UPYB3DisB4nRe6ByN+g1NvguRCstSDiR0gJgJR4VIvPMFZ0h+Y/wc4B4N0INr2EavQVBLli7JkFPtWhwWuX2P1aAYTr/eVz9u+0wNVYwAkQrsZ6zmPzY4FsAYLtQEdOwLhRIAtzs5YisgG/L8A4fADufxgVHAx//Aply0GJUrB2JcgiXb4iVK1xKdBweIO/TJvAHpjYj2XF3xiH9+sy7rr40rpV2mugUyzFo1CyFOqOe0ySpHgyVi2D/w2Hhk0uNYUDWLiUpJgSDfPqwcNhWQelRcCc2pB0FpQr6qFTGH5Fsz6PPgRHf4C6/8sGIAxD7VmE4e4Ddd6GsIlQezKceA0qfYr6qRhGq99ga2+o8QFq6yToOB++LwoPn4PV92PI9g3PYzQeijp8DqPZU6i0OJh/H0aXP1DrB2FU7ID1rAVL9Wbw80OoKi0wootBzfqwfROkfw3lh6CsJzACqsO6oXD3QpjhD+2mY41ywVKiCNbN07G0HgU/N4W7xqN278AoXxZ1aC3GxZ9R94RhbGsOZaeaACH9NPzWC+6Zj5pTAu76BWPzDKh6P2rHjxilyqNoh1GznWmbnY+gXNuASzwcWYzR4kv4oROqeX0Ma0s48SHW5puwbLwH6vwKv5WCh6JgRUtotBD+aIvqvBrjW29ovwy2vQINFkFIVjWuWwEg7Nyxk4DAAM3ejouPp2PHjjpFq1TJkhwJC9OpX/lJ0crpSy7CKOLhkPQxCZMIsUmU1cRh7enlpVnWVyOpK7Ktko515swZYmNi6NS5M5s2biIwKFCTs0qWLMltt92Wn2dQtvskxMezYuVK7akR0lebNm34e8kSYuPiNHFLmmy70ibeIbG3pMLNnDmTRx99VKfpRZ6PJDklWZNPu3TpcqXdazb9/n37qFuvHtu2bqV2nTq6f0mlE4KrnF/kb6+mOQHC1VivgMce3AWVTLW//1LLESDkFBb4bZ5ejEUTQXXuZlZK/H6qmb0gAkgr/taaBEb5CrB7h+YDqOatTaBgW5jz8iTYgwK9rxW2bTa5Dls2Qq26IGmQ9z6A2rgGwg5j9H4KdfYMxtwfsQYVwtLxAVTdBqb0s/APcjrn5R6EGNTP1TG6nbx0HqSehu9KourNwqhzqafAenoploT9UPGZbACCgwdhQx9oNBWOT4AST6J+9MOo/LJ5kSUbo7bOg7u/gBnl4dEzGCs7Q41RcPIzrBGnMO6Yq/NNVUo4/DYY4/4pqNgwjIt/onzvxQgqAd/VRNXugZHQEKqUhI3LoFkn1L4vMY7NQbX4HGPtULhHAEKABgjpSUG4FCmOdetXWJq/D7MboG5/BA4dwQioAN71YdsA1CPHMHa2h5BxWQDhjyehwwLUvKLQ8B2M7b9Bsdoo99IYllNQ6DkTNWYABNzbg1scHFwMLb+AmfdfAhBovRN2d4Xy32YAhAuwvAU0/hX1R1votBxDgE21gWCkQuVXILBspu1vBYAgIQtZ+MQT5Ovrq7MjpK1du5bGkhd+/rzO577SJszpsKNHmTd3rs6bfuCBB/j99991WtgTTzyh09Pyk5ed0/klhWzp30tZs3aNZn536tRJ54FLfN3FxaLz0GXblbbjx44TVChIM8ObNmmq2ehTvv6aKhkhHWGaN26cxQsq6HlkgRaZXpGf3b17N71799Z/Cyhbv369XsSvBiCIpHFwcLCWNF65YiW9evdi3dp1mm0v91pSAcVuV9OcAOFqrJf7serUHozwMygPqR0gRLsIDLdUSFKoRm3zlamR5+giD8GBfShvXwyrJyrYBU7HYPi4otItGBWbgI+ZGXXVTRbsfSvB6oURGQkqDlU4CCMyDtWsI0Z2pZeFu3P4sM5aCZBaDNloBFw2rvdeh3Z3Q+Wq8P00jNXLUP3F++wKX34Gj/QxKyyKa7+IAH2FcSwM1aUbVKxiFmiSll1mg2yzyTXbTpyUhLFnByopEWPO96iuvWDOd9CzL3z7FTS6HaNuA9Sod6FydXisnwYTxkyz/oP6+IvLqzg6AJBLPAiic6A5CD0iMSx2uZEaIJRHPRqPYZcTqxWflnZCNf4ci0/Jy+/j4eGwfyW4eENQZ0j/A5rOgOOfQ4m+qLUPYMTEQ/JpaDoWtXUOxj1T4a+6kFAULq6Au7aBcRaWD4SHNmedY8k9EJdqal63nQw/VQd/L9IrjMXFegLi60OVErBpBbjNAZeScGoT3L0Efq0DfjXh/Cpo+w3pyUG4BBfHuu1rLLcPgzm3Qbc98EMZKF4W5XsPRrESsHo6uGyFNpugaHXTgzCjHBRpi4o/BQ9uh59LY3iURwW0xpCQfNAzdgChBxoguAtA+B1aTIQfuqBuFw9CczgxClptg93docJMWFoHKAYx66BLNPxeFlVpFKT9gnE8DlJOwL1bs1JmEK2NdM0ZkIdwfnKyr/rLdwUdJCYmaqnTb7/9Vr9tS5qY5GMLCVJywSVdTMiRV9pkXor3wMXVlb179lBJRF/CwqhQIVSL3LRp3eaq+BKyqApxs0ePHhw8eJDCQYU02ze0Qij79+/Xi7csslfTJAVOMkN+/e037u7QQd/X7Tt2ULRIEf0G3qBBgyvuXjgjYvvHHntM58BLOpo8lA4fOUL5cuWIT0igVq1aV9y/AKgFCxZokZ0ff/yRunXranuIvLEAQrn3V+NhkYE5AcIV3548D1TrfsDwCEVdOIux42/wKwH+hl7o0u/tj4u7xJSvsu37FSKAC8fh3DJUifKwcR30+wZjwTeop3MvpFSQs6v0VPjuJYiwYKQcQXm3BrdkjGJeqHteyFI2dOg0XyRFx4FM+hRj/izUA49g9HwS9c5gSEiA19/GGDUM1eZO1LkzWKR2xOGD0LQ5rF+DUaMOSkiEUpHRHiBkVFU0lRlNOWSRYFYHD8C507BlA8apE6hnX4GPP4AXBunfxvMDUZvWwp+/wqdfmWGFbyejHuqJ0b2PmYopKZmOgMTeO3I5SVHBqn5QpS9G0aZZl55yFpVghQBTzzoTZMQdh0WN4eHjGJZs0J41BdJtVa3cwFDg4gnWVDDMYhFGegIIGBEpSilO4eIBW99Ale2FsbITqs16jIhvIaIINH00a0xCqExLAldvc5ucy2pFuXpiSP9YMgpepJsILjUepG8Zp95XBC3S9TZdwELOL0JQMhbhCLj5mGO3pqJcvTFktLLdRa5DfqSYxmn480loNxvl4mWqacm501PMY5Rcu1sW8ktPEsq+Ro76/DKetCSUi046h6MAACAASURBVAUDF/NYFy+wJmleA6Rn2U9vTwFloFzcTLsZHiZr1q7dCgChIF9u575OC2RnASdAuH7zQu3+C8OtBCrmAsbhzeAdDD5SeMgVa7OHsLhdA4BwbC1IMktsOERuRckL2OmjGEn+qCqlIKQzRgnfa3ORKh316yjTk960F3gWwlg7DVavQQ36EkMLGV3ecvQg2Ha1rYWyeGdIFatpkzFEV0DC028PAlmoK1eDt16Gt4abGgSibhgfi1G6PGrdCmh1B8aWjdoTIMWXqF7LLMksZEeLgWFVem3k8GGMrRuwBgZhSUlGbd+MqloDS8268NFw1FvvmyBh8LsYHw5Ftb4TGjaGQc/BY89C2zsw3n8LJRLL7wrfT2WVpbalOuYplCSL1M/loP0SCKyahTAcmY6y3x8doO5QKN7q2txIWy8xQjAMR3mWxvAvCeGbILgZuF6DiXktR6qSIWo/FLo6d+m1HJITIFxLazr7ulkt4AQIN+uduUXGdfoApKVD6ao5svizreboeHn266INKLzxEsaxIzBiHEr4AbOmwzujYMFPGFIHoWIVjG2bUFKhUQSTdm0D0UjYtc3MQqjTEEIrmSGI42Go40cxpJhTjdoYAjYuRutsCaNCZa2GaEyfjBrwP5j2JTz6OHw5Dga/A5M+xvAPxPpYP4wRQ8wqkm++b4o22fgHtjFnd9tyFEqK3I6xui/UH4Qq2e1yJcX4UxgruqFCH8eo8sQtMiP+G8N0AoT/xn3+r1+lEyD812fA9b/+y2ox2HsOsnv7tn0uKoZSX0HqKRzaj3p7JEz/Erz9oMnt8NU4GPS2XtitzVpiuRiFOnECOnZGrVmOsXm9znIwQkqZokp7d6NKltKfSwVG0TDQ6YslSmvioXriOVg8H1WtFsbBfdCirXmOYR9jzPgKzp6G199DLfwZqlSH21td6jmwD2M4kCUvF0qyXWTcEVg/ACU1GULaate/LtyUeBB1djNGnbeg7JUzna//7f1vnsEJEP6b9/2/dtVOgPBfu+P//PVexkEQUGAjC9p4Avb/23sT5s42dQiGfojxyQhThll0D4a/BR98ijH4BdQbwzAmj0M93BP+WIhRNhQlIGDcGPBwx2jQFE6fgB1boUUbM01RFnwpstTmLvh1Lkbt+royo2QucO8DsPwvKFve5L1JxcfxU2HqF7BnBwz/BGyVG23mtIEDe/Pa8RByBggZB6i0ZIzD38K5FRBUGVWxH4aXXZrjP3/fnGfMxQJOgFDw6aHiozGs3uBnR8wteDfOIwpqgYi9qMAKGLpYjILTu6BEBjky+Qwq2VtryWfXrgYgnD19lB+++JLCje/mkbtuxwVlVrPLIJC7WAzSJTwr2xUkx4ZzxiWYiv7XiFVfUDtd5f7KmsKajRupU7Mevt5e3PH8xyye8CqnD+9j/BdT6PvGEJZ/9RHude6mXMI+/j6YxOMPNmbKlJ948q13KettsGP5NxzzuZ37GlbOeTQqhWVrNlCzUXO+/mAI29au5Y3pcwlJPM6XM2bRpvtzJOxdjVH5dsqmneD3HeE0DE7j29kLsdz9Ep91qsHxjVNZl1ifri1zDtuKQN+ujcuJKteSShGbmbD9FO/36EJs+HHGfPEdde9+hPur+ND1lxM87X+QFXtO8fTDd/HF1Fm0eXEI7Yq7kX5mO/O3RdHl7tY5Xk+2AMExm8FR3VA+l0VX6ygZ8PpL4OmJeupFjCEDzN/rV5nhBUlNLFoMRAK5WSuY9gWGhACEvChegrvvxzhzCjashYd7oGTfz0ZDxy6QGK+zQBBw8b+XYdw35rneGYnx4ds6o8GIi4Ppk1ATvzXLP4u8siMwsCM/XiKYlAESTp086SC1fJWT0Xn4jbWAEyDkz/5q+rsYqQnIw5PWj2KkFIJ1s1GVb8doYdZXvx5NHfkbNi/UIDstqC4u8adREckYnvvAzYC2wzBEx/2faHFHUZM/xKhUHVW0Npw/DjuWYQRXhCczSsher3FIxtSorqg734GtU6Bmc1j0Nbz4CUwbCo/2gfhQDEn/yqblCBBEVjbjAa0PE4KyxG3t2qzNm3m4vmSBpHHH+CU8mbiTXSnQoWEZloYHEbjlB6IvhJPk4kHbe+8gqlhFEks2p1f5DNb39bLJdez31PHj+AUFs2/RGN49UIN5Qx7gwNLF7HcrQmDp8nharcz84y+Ku6dRJMCXpx7oxMmju0kpU5MKLgYjpi6kdEl/et7RMtdRHjp0lMCy5Qh2g7d+XcHwe8z9z+zfwU9nXTmzfBaF67SGPRuJjIrnzRFvc3LXaqrUMb9zz42cw21NSvJ4KzuSfDZnjDp5lJ3upZj05iBCCvsz9N3/cXTjCnwaNWHykI9RnomcqdWD6Q9W5YtPPuPpV17m/JHN7C7ZkNae8MyTw/Du1IIx97bCkoOSYK46CDKm7MCCDTDYUhLHDIOnXoSBz5pyx/J2P/EjvaCrl5/CeHOYWaa5Rx+txCg8fiXpiCOGYtzZERLiUEv/goFvwZrVsH4F9OsPM76Gbj0xfp0HVWtCYgLKxwdj9w7Uo33hjf7w8ZcYfy5CnT4FQz641Ir23xHbJ5pkn0W4lM1OgHAdv5Q3omsnQMif1dWPX2D4pKBCK2NIrQj/auAfgHX1LCyPPJu/Tq5kr7ClUK4JbD8E+5aApF35BmA06oX67GMYOfHa5JnnZ2xzh4OEEINqw7rlqEd7YC3SAJfZE6DPoPz0cHX7/D0EFVITkipgHFoOlpOoUuUwypeEmCQUtxUcINzbUj8sM5uUtJ39+yXj/HPxMhq0b83A7n042rI7/RJ3sj6gLG80CWKNpSJ/zF3IhNf7MXTo67zc+y7mnUzHrWK7fwVAiL94gWcnLmX6e4/y57p93F8nmIHLT3JHuSA2bN9LnUBFaU83jnhb6VyzMR8e8+SdGmnMm7eUuNN76fLMYLxz4YpnAYQ4/tgRwZ21y/Prqk00a1ieUVOWElijATHrZ1G4eCgdKngTX6ctP709jBFjPwCVzNLFf5J0eA0tnvsA31zOYwKE0nw3/G1GPtaAfUEtCD6/lzMlqvPV1wsY1qcdLy08QuUy/jztsQNLs7sY8M1Bfn6hha4wuWzt3/ifWYu13UBuC8y+RHe2ACE7l7xtdjlUetSaPbJtlLyMpMATz0O/Hqjpv8Brz0O33jp7gRo1YcsmVOeuGIOfR309G2P8GJMv4O1tKiGOmQBiIxFKq9NAEx7V8wNhyKsYX/0Aj3REffEdxgdDtBaDklDC6Hcx5v5tjsGu6Yw9UVy0AQL737Kf3TU6AcLVPeJuuqOdACF/t0RFi9aHQrl56DQiLJIy6oJKuIgReB1rSiTHgbu3WQ42KU6nrqo0K4aPOxLOw6+krgb3j7S486iEBAy/wqiEaAy/IFT4SazLluDS8zqCJNvFJUahrB4YcZEmSBJZcw9vVFwCRoAfCi8Mz+wf3lcTYhAX9fmz5/ArUoz02PPEJxm4+noT4GEhGXdcUhOISrTi4ZKOv48XSbiQmphMYMA/5Nm5DjdfVCyliJn8RETH4+dqxdXTg4jwSIqFFCc2MgI330Bc0pKISbZSKMCHc+HnCQkJQaUmkmK446ZSSDA88RNPVw4tNTUNi6srKuECyisQa2K81v+PijhP4WLFSYqOxOrlj7dLGlGxyRQO9CUq2aCwtysqLZUUZcHNkkqs1YOAXM6TnpZGquGCuzWZiIuJBHm7ke7uRdyFSAKCi+BuMYiIT8GfJC4mWfH3dOV8VDR4BlKqsA8pqWm4u1m4mJROgFf2ocVs0xxzitnbPAqOn8v/skBLmuLgl8wUxibNMd4bDBOmwcDnUJJy+O5rqA/HYXmmJ0rCDBvXmQ6K0MomwXHCVHiiq+YtsGYFRuFgnc2gChcxAbGfv8kzeOQxE3xI30JoDK2IsnkLHBUTZcz2vArbPXUChOvwDbxJunQChJvkRtyKwxDdj30bURUbYkiluZu4XQ1AuIkvyzm0m8gC+cpicByvg9DQJS574RYEFcJ4rhe89o6ZsSD8m6LFUDu2YrS/G/5YhLVsKJbAILM8s6gh/jAVNXYSdLsbpv0Cb74MLw7C+GwkvP8RCKiY9jPGM71Qg4ZiXIjQYQdVsnT+FCAdpaPtVBudHoSbaEJei6E4AcK1sKKzj5vdAk6AcLPfoVt/fNnqIFymB5ShcGi7XEeA4EhiTEmBFUt0VgK9usDI8TBuJHR5BOPvP0AyFX6cjur+mJnO2LELxlcTYNwU6HYPaspsU/jonVEYb72CGv4xxvC3UD36QuxFjJCSKCnA5CjXbE9GtHk77D0Gjt6FjOt0AoRbfx5fcgVOgPAvu6HOy8nWAk6A4JwY19sCuQIE+zRHe9Bge/vOLX1QBi6fr1+t9RKMoQNQIyfAM49ifDcf1bsLxrtjYNKn0OtJmDgWNe5r6PUAxpiJqK8nQrsO2sMg4VGjzZ0QFYmSSpKOVSbtiZQ2gzmCAcex2qc5njrlzGK43hPtn+z/qgCCNYZPR0+h6d0dKBfowsVUbyqGhnD48DHKhQRwOk5RyCWJVBRnEjyo4JuMJaAEq5YuIComjZN+ofSuGUSyT1GM+BjiUtIoWzKY40dPU7psCVzdPDkVn4pbZBiGux8xyemEli7GwUNhVKhYiRNhhzgcHka7pnfmy2RJEQfp+fJIZk35mEH9BzD288+Z8uazqNRkeo2ayujnutL7s+8pen4nkxbv43ShGozsXJsxC1fQrUlN1q5YQiEjkSKN2zLpr6M81aQIFUqWIcAne+lVGVTM4ZW8Pn8nE195jkMblrLWJ5Se5bx5+NOfmfPGk0z4ZCR3d3+MNet3ExlQiv6tq/PVzJmopGSe6vs4u9f/RrV6Ldj24ygCOzzFooXLKVOnBGHDRnP3yElUrlQmR5KiSk1g6459rN1zkBoBaYRHJ/Nwrz5M/+AZat7/Egd2HcDby0KnTvfz++fvkhhzkBoPDCHm/Cl2nwzHFXdWn7Qw4ZV7aTdhOV89UIdNO7fgcWYfIS3v5ef56/Bv2Iwn6pSgqF/2sX+xQeKx9XScsoslg9oxYvpK/rCUpV7UPlRCPAPvKMzis4W5q3VNRo1fxP0P3cmapSvx9HFn8JOPsn/jcg6di6Zhh04USz7FsbPp+HonMHNnOjHLJvNInxcpnfATO1zvo3bVKrjnoJ56NQBh0e9r8PdMYuzKcKb2bUKSV2HcLEpUbfF2d8Pq6sKxQ8epWK4YR87GULlcNnVm8jVDb96djq/7jXUnIogLuY1zu/ew7lw8HctauBgZRfs7W/LjrJ/48L33QCWy4/h5pk/9hn5tqhJd5yEaBRRM0Xbp7C85XKQ+R9fvINLdh/oe4RgpiVRt3IhDB05youztDG4UxOHYFMaPeJ93HmvJvvJdaBGYfy5O0qndzPhrC9GuhTi3eS2RqSncG2oh0d2P8h164nr2MDM2XuSjp9uxP9nCxy8+wceDH2RL4Y60CvHJ9kblqxaDfXxfenEsquTovneQMtYv81KrITEeNX4MhiguPnwX6pOvYNgbGM8OhE+Gw9ujYOirZvGnvTtB5JqbtgJPD7N+g+3c9iAgu6tyFHiygRVb1oWD5+HScs8373x2jiyfFsgJIPw4bA+RpxIv6eX+lytSqqpdnrk1hn4PP0HVezoTcOgPWnfrzL6li6hx78v8tmgu1bq9xPiPf+DtsptZufMcB3yaMGL0YFYsX8Rdbe4l/sJp3v91PyV3/MJ+3wr0rO/HFlWSZuVKkOznQaNylRm47hw9rLuZfTSGzj5W0srVoHwRX854eHL+SDjW+CPc3bpjPq8WPnjtLd4cNZx186fQ5L4+LPr6LeauSebd/k3ZuXIFFXp/SNkLO5lxxIVp05aybNprjPz6G6pWbUhq8jmMEztZEx5I174Pc/J8DJs37ueDnrmXUl58bCdtCxfj6ZlbaFWvFOt//QufKhV5wCeZDamFqFcrlNvKl2DQlwuZ8FwXps3/jfjwIzz35PPsWjOPdycsY9pn/fn8o7FY2zxFjX3z2ff3erq93h6POi8S7JHzAzj52HpWxhanlnccI6YuYMgTd3DuxCmiijaihk80i/cm8Ej7+pw/eZQBg9/hqxnfMHX4aHq/MYiUU1v45mQgLzUtzePvT+fR+1uzdf8+KnlHsXVXBPU7Pcz6k3FErVjF58OeyvUevLP0IEObFeW+ZwbTuN8ghlSJpt+UnbzSzJ+N68Io3KIdW1dvYWOKJzVLlSDh8Do+/t9gjJQ4+r/5ASNGfYB30mmG9O3Ps1O+4+jPIxl5oRaj2qdRJT2MkyF9CTsdQ4s6oQXyIEzuv5XUZDMPXZq3vxt9Rl2aU//Lki00r1+GJz/4gZatG+C9ZRnnK1Sn9Pnd0LANDZPCKFajJedPbOGspSpt6ueS+5/vmXrz7bhzxa+omm2p7pHAp2sOMaBpMM+N/pmxQweweuE02nfqowc9ZP5qmsWuYuHZkkwY0LNAF5IQsY+v5izFpXQVjp1N5tTiuXwzeyLfTJ9B+WL+tGjViv6j5zPprUd5cOY23i2xkdF/u/Lt8H4FOo/sPPvL4VC7C/t+HstW31aEnDvDiNdb8GtMVUqf3kjj9nfhQjplPtnGujsP8MYXJ5j00SC8XbMnXeYrxGC/MNs0EOzrGjgu3I5XZf82b1uc9Ru9AeHhEBAAFyIxgougJDwhgkuOVR0dwxgadUjhiYxaC45jtI3BMRxivz2jDydAKPA0vLkPyAkgHNxwgaT4tEsGX75OIL6F7Bi81hi+nbaIDl068tvHA2jf5xGObV2Ff6UO7N++jnrdX2JM/zeoYwmj36dTmPb3Th5r14Q5v3xPiVJlmL09nLSIKNSpvXiEVqFvAz8WnvOmeSlv9viXpZmPhc+PufCK/zEmxwTycOwhLMXK4VumBMFe3izZsJ2E+Ah6d34g30a+BCB07MlzfQfSsUUaDR8Zi+tvQ4hr/zQ+HuWI2baMVb616V27GCPmrsA9JZ52gUlscK+MZe00er78DsetMGPeRt7rkXttEQEId5aqTuKF0yw8k8T9lUox/PfVDO3QnA3bdhMcEsTes8nsiUunc/UQKnspJs5fTP/ePbUHwXpmA34tBtB/8o+Mr5/OCGt7qk95lT7j+hLn15Hi3jm/OQ3/+ife6PsgP0ybSHCwN23aP0LikbXst5Tm4N693NuhPXFhW5k66RvaN/MmtMvHHN2+goYNqvPOpOUMfOxufH3ctQehlEc8g0pEs863PlFrZ/Psk8/wRUQgB2ZM5Ivhuac5CkB4MzScmUf9+PjLBRSpXpl25zdQ47ZquBcpyokkNyJjYd7GHSwf/CjvrdjO040rcWjfbgKLFkZVb079tFPs27qVfUYFjq6bwUsvDeDRLo/x/QctiKo2kN27w2het0KBAMLuFRFYReUoo7m6W6h2e/Alffz09zY6tqmLR3oyg79YgIo8yXNtSzErKpiUlT/R/cH2+Jevi8vp3RzwaUDTSsXyPR9vlR0v7v6dGadL07dRCToO/56f3uzO+zPmUt96ntueeJXjf03PBAgfPN6Zhz6eyrivZjNuYO7A0fH601JTSTyynh8ji9G1tIWhy07SIvx3Kjz8Cv6nN7NFqtm7VWJc+1A+6nUXHcfPZcTnM5j6RsEAwrnN8/gjvDAndu3kZIwnQSf/pEJJbwqFlqdit0GEzZrIfY+/rBfNSd2a0/7rFbw+fjpz3ng8x1t2WRaDY1zftvA61mPI7m08u8U4t222UTlyB+xHm51+Q3ZjdAQp9kWmHIs0OYRL8lRSvFUmvHOcpgWuKsSgFLExMVgtLni6Gri5S5VNVxLiYvH28kC5ujNn/DD2xfkS6hVDy8cGUjbIV0twx8cn4O3rS1pSAtYMWW53F4N0w0JSYhJ+vt7ExMTh5u2Lh2ElRYGbsuLi5kpMTCx+/v4kxsXh6umJRw712bO7x0kJiXh6e5GWkoyruwdpKUkkpYKvjycqJRHl4kqa4UpKYgI+3j4aWCelpOpqmm6uLlilumZ6Kq5u7sh7p6Q/ebnnrpiXmp6Om6REKiupVnB3sZCYmoqXmxtpaelYXCwkxMbi5euH7OtiTdMVON1dXUhPS9WlrNOtijSlcDcUybhqF6OHtzvKcMtRuEWuX8bu6e5GanISKekKH28vXektXSl9Dww3D7wsCsPFQlKywtfHg9S0dO1CvxiXoM/t6+NDbHIabtY03NzFBq5gTcPVxZVkZZCekoyPV84hBhlHYmo6nq4WkuLicPPxxZqSRBoueHu4EidzwceH5Ph4XLy8UckJuHh462sXm8clJOLv5wfKqu1gld/poi7rSnxCMr5S8NXigTXdiqtr9mDpakIMco/dXF31XEhJjNPn8nQzSLGaFWXd3dyIiY3Vc9aKC64uBXOp3wrPotTkZBKSkjBc3NDlkMXb4uVJcprC19uT1JRk3DLKAct3x9Uz4/4V4LuZ+UJqTdO2taYk4uHlQ2J8HGnpVry8fUhJSsTH10/fi9TEeFw8fUhPT8HNtYCqpjL/4+Jw9/HV8y3dxQNPV0VCYho+3h4kJqfh5Wn2mZ4Ui+HhS3q6zIOcv+s5ZjFkvF3rzhzf0rPzCOS1f6ahlK4IrNMS7UMR2YGCnMCF/bnsj3MEDtl5HRzHKUJJp087OQi3whc6v2O8KoCQ35M493Na4AZb4GoAwg0euvP0t4gFcuUgOF5Dbu56RxKjbSHOadHOyT6O/eTkQchuv5zCEDaQYzunQ5/OEMMtMlnzO0wnQMivpZz73coWcAKEW/nu3Rpjz7YWg/1Cml3GgP22/C7o2QGG7PrJjvBov8DnFXLIabyO3gq7fpwA4daYq/kepRMg5NtUzh1vYQs4AcItfPNukaHnChAc3fGOdRlsC3d29Rry8ig4Agb7/7MLPeQGDBwBTW6hC0cvg2GgAUJ8fPylYs23yA10DvNyC1itVkRWVWLN8uNsTgv8Gy1w/vx5/P39cReejLM5LXAdLHD69GmCg4Nxs/EusuMb2AOBvMIM9sc7jjendEjHbIScjsvt+nM6b268hIzrOhcejnHhwoV/HCDoghGOLo88bvKVHHOt582VjOFKjrnacYttdbnR69Su5Jqu5JhrPfwrGcOVHOMct2mB62m76znHr+e48zs3rmQMV3JMfseT3/1uhjHkd6z2+2U37us5x65kjDfiGA0QbIawLdr2xrL9bVtw8ruvY1+Ox5sgxVzIctrX3iC57VvQcduPxf5Blp/rzm3cjn0VZN+rtZfjZM6rv7xsltfnBbm2/NzrvOaC/fXldy44nje7OZzbXCjINeZl74LYIK9xX01fec33/Mzh7B6sBbVtdvay35bTNdrO7Tgfchv3jbZXTs+VazFnrtcz0hHg2a8D/9SzIa+5WtA1Jbf5ZetLvLBS1Cq7fWWbfGbbR8Zn+1t+S7N9Lv3JT3b95XXf8zPOvJ6X9ufNbtwSjhYvs/255BjbuG39G+npdonDOUCUa4sK5c32ejgtrn2/YrC4uDhtSB+f7BW38kZ1135ceZ/TcY//2hiu3fVe27lf8Dt3pUf8m8d97tw5vLy88PX11Q/kf1+7dvP3Uttcr35vpTuQPxscPXqUQoUK6VDWP9cuHdvmzZupWrXqVaw9Vzfys2fPOtMcczOhAISYmBhcXV31w8jZnBZwWuDGW0Diw97e3vrh/e8ECDfexv/1EdhIioGBgTfMFOvWraNGjRr4iW7IDWjOLIY8jO4ECDdgVjpP6bRAHhZwAgTnFLneFnACBMwsBk1AcLZsLeAECM6J4bTAzWcBJ0C4+e7Jv21EToDgABAEJyQmJnLkyBHtUq9YsaL+nVuLjY3V8ZHc3HzSr7jpA6TwBJCcnMy+ffuoXbv2JUx7WYwPHjyoY4tlypS5KeZbfgCCXJ8QPmxN+ArXM4PgWhnGNm7beCU9Mq/7fa3O7ezHaYGrsYATIFyN9ZzH5scCToDgABBkMRw0aBAPP/wwW7dupXTp0tx777252nLEiBE888wzBAUF5bifgI6hQ4cyevRovY/kML/99tuMHz/+koX0xIkTfPTRR4weNQrXK9D8zs9NL+g++QEIYWFhjBkzJrPrsWPH4umZu5Z9QceR1/6bNm2idu06uOdRR8C+n127dvHdd9/x/vvvaxLmm2++yQcffJDXqZyfOy1QYAukpqZqfQ5p8gJwtc0JEK7Wgs7j87KAEyA4AARZyAcPHsynn36q34jlf1m0J0+erG0pn02fPl0v8PKF7927t15gypUrR4kSJdi9ezcJCQk8//zzzPxuJmfPndVEonr16rFs2TJ69epFo0aNMgHC//73P72wyptsrVq19CK1ceNGnn32WX799VfkIRASEqJBy41q+QUIEyZMYNSoUXqYCxYswGJx4dChg7z00kvauzJx4kQqVapE27Zt+fDDDylZsqS2x6RJk2jZsqW28/bt23n55Zf58ccfadOmjbbrb7/9hjU9nYOHDvHQQw9pew8cOFD3OWfOHO2NuaN9ez4cORIh07z11lvMmzcP8ezI/ZExiW1bt27NypUr6dChQ6YpxfZJSUkMGDBAP7QFIAwfPpwlS/5m7949vPDCC/rely9fXnuJ5P6KaEilihXZs3cvderU4bbbbmPFihV67P369fvHgdGNmhe30nm3LvqU/h/OJblaY1ZNGoGblJK92mZNIzE5FYurG9a01MwiMwKMs/OetWnVVnsmGzW6jcLBwUz64vMcR5CUmIgyLHh6uJGUZBbhcnMomJQfgCDPsHfffZf33ntPn+v777/XLz3NmzfPPHdkZCR//vEnXbt11c+h6ykuNnXqVH1u8cxGR0cjLxK29sorr2jGvLPdPBZwAoRsAMLrAhA++ywzN3LIkCG88cYbGv3Loi0LmXgYNqxfT/nQUJYsWaI9CGfOnGHx4sVERETQrFkz1qxZo99GJVWkcOHCDBs27DIPggCEpUuX0q5dO2bMmEHXrl355JNPXS70yAAAIABJREFU9H7iYZAvtvzfvXt3ihcvfkNmTn4Bgng+ZCGtWbOmBkCykMrD8sKFCxro3HXXXdpWt99+OzNnzqR///7s3rWLwKAgXbXufGQkFotB0aJFWbhwIeKZkYeVgABZxH19fDl+4jhNmjTRNgstH4p/gL8GZCkpKURFRdG+fXu2bd2q+5T/pYlnoevDD1O3Xj2OHTtGaGio3i73SUBNx44d9YO7W7duGiDIPZF7HHH+POvXrdM5vMKilfMKoOjRowdTpkzRIE7Aw/PPPc+s2bO45557OHcunLZt29yQ++Q8aQ4WUFYGf/ktI/r15sKxzbw6eQ/Th/fOdufEuCh+mD33ks8MDx/69Oh6+f77f6Ns+/+zdx7gOV5tHP9l7yFTIkQEkVixxd5FS1FKS7U1SgdaLVqjVR0oLUWpWkUXWtTeRGLPxBZJRJbsvZP3/a77SUMSiYzWaL/3XFeuJO/7nPOc5z7nOed/7vG/36TD+19zZOFUXnR34PfLtzkTEISd4YNhhx3bd1LWgg4dOzB5ymTWrF7NNwu+KbEf9Wq7smTTfrp6VuXPRZ8R3PJN3vMqanIsD0CQxvfs2UtOTjZ9+vRR5vfEiROV9aggxlveAwHUrq6uxMbEMOjF/Ge9FwP+Vxx7cS4YuaYwEJLrC8ell8QdIxrT7t274+7urqwLc+fOZdSoUcr9xKQqa0bxuP6COPqS7l/Qh4LY9cL9LviutH7J9/+V6A/ZyN8YPUZZR+u41Wb58uX/iIlXAxCKAQQBAXJaHzd+PNeuXlX8BjIyM/Fs3FjZNMSMIGEXspGfPn0aZ2dnDh8+wrBhQ1m/fj39+vVTTpOyUe7du5c5s+ewa/cuOnbseA8gyKQsMDHIZiSahW5du7J23TplkyoACNOmT1f6snDBAiZPnvzEQgzLCxAKNAjyIhecVER7Ihu0v7+/cnIXwCCnhwULFrBo0SJmzpypaAyio6K46OePm1tdRUMgIS0CzKQIQJDwSjldXLt2TTH5iNZB7iPyF0Ah2hu5j8hfgFjTpk2xtbVVtBRr165VwJb0pXA5duwYO3fuxMPDQxlL2fylP6LV2LJ5M7Xr1FH8QYTKtn///gqwEO3C5MlTmDFjuqKZEG3Fhx9+hMTqnjlzWgESAhQ05SmSgFrFqKWbWPHWi2TcOcXQ9UFsmf5yqR3MjLrG/B/+ULLYShkwYSr1LUrgGagEQJD02KItu3HjBtk5Ofy5rSgYKejUrYCbuNauo8zxnKREUvSMsTIuSqlcXoAQHR2tvBOLvv2WqdOmISd10eZJbLmc4mVub9u2TdmcRZsgQGLNmjV4enoq651ozuSwY2BgoLwLog09deqUciCSzV2AhQBv2ZREmybX3LlzRwHWaWlpiuZO3lvR0Ml78tprr90DCGLaa9++vXIQEF4H0dD17duXc+fP4+7mptz3rbffVtoWACEHAXkPBeBIf8PCwjA0MFC0i6IxFA2jHFR6PvMMPr6+yvu5ePFipY9yYEiIT+CV4a8ogEjuK8/4Xyi+vr4MfWmY8ijfLv6W8+fOMeuzfK1R8ZKTnsioGd8xd8porl32Z/W2w6xe8AV6JSjVNAChBCdFmfiyactGLi+LmBn279+vvKzyMsl3zZo1U04DsmklJSUpL4A4HMpGKJNdVM8CNuR/2ajkZLt582ZlosqkFOIheSnl9CqLhSDqEydO0Lx5c+WULRNdBj0sNBTnmjUVjcSTKuUFCAJsevXqpXRTNnzRrsimfP78eeXlFqdMAQhyjWzGAhBkQdi4YSMWlhY4OVVn0KCBivlAgJKYYh4GEJ5//nm2bNmCW9261HJ1RRZCWQRatGjJunVrlTEQ4CByLgAIq1atYuTIkUq7X82dS/8BA7C3t1d8EORkJX0aPHgIO3ZsV0w7EuIifX4YQBAzhgANASMyF8TMoClPlwQ2/bKWGzeiyciMI97cme+mvklpVgbZxHNzMwgLi8bOyQljXd2ST2OVAAhWVlXYsGkDmzZuYuPGTaUChCmTPuDzufMUU0jM+cOcN2/IM7Vtigi1vABB1iHR1sm64+FRn/j4OEV7NmTIEEWjIIcPmb8C3OVzAfIC8MVZVzZdWc/ELCCb/aVLl5T3WEyFcq28y6JZE2AhQF7Agfgjybsj9xMzrLxDAihkfRDTbY8ePYoABC8vL+Ue0oa8s2JWFM2C9Ed8hOSwJdfIOirrcHGAIGuv1Jd1uk6duhw96q2YLgTAy8FMwMvQoUOJjo7BzMxU0f7J2i3f/1cckgsDBHkm2atOnz1VoskmNyuNHwLVvOWRz2mz+/ABunfqim4JtPQagKAJcyxzJS8PQCjw1yhoTF7YgpdPvpNNVkwBArrkJCKLjWgFxHQgi4AsOra2djRp4qmo/UV7UFBffAwKqC+lLVmEpJ6AD/ktKkQ5nch3BZ/LSUP+l8/lvvJb7i1tyf2lTkEfpM+yuMj9pF5Bu3JPaUN+Sx2pL9cVtCknK2lD/pdFWH7k739D9EaZg/4fviDwyglG/3SNg1++XvpY5USzaMkGXh4/DpvS8n2FneGVDxfT8IU38N+yhvY1rPG9fZfFq3/EUr9kE4Nr7VqKqUtMV+npGWzZurlESY96/TXSa3Tjp487M+HNT+n83ucMcLerFECQuS4aO1nsxYdKNuJDhw4pm/6mTZsUQC4+Q3Xruil+N6IFkEOQnLDlBC/JemReyzogdUW10qhxY4WgSQC4HJLEb0rMgqLBE9BeGCCIZuDixYvKJi2HpBdeeOEeQPjm66/5/IsvlOcSc52ACvEX+njGDF4fMYKw8HCMjYyUTV7uI88gGj8BJ/K+ihZBmO6kH05OTooZVsyyokUQACDAXvoloETMkqI9EXOxAIf/kqavACC8M+5txo0fh1udelzwO18iQBB/mXMJalrY5mukAoKDcK3pgrYGIJT4Lmp4EMrYDMoDECq7n8gJQ071stnKiUbU/rIYtWrVqrJNauppJFCmBPJyVejoPl564nNnz3H16tV7fev9bG9FVV7ZUl4NgrSfk53NrM8+UzZPAbBiJpV3TXynBFSLk+ILA/rz/Q8/KJuqaBTEBCHaP3G4XrliJbl5uQrQH/H664o5VADzsGHDlE1agLSczJ1rOHPs+DHl9C/mNgHNYk4VDaj4H8hGLiaWAifFlStXKgBFym+//aYAB9EiiOlATIPi6yXaivXrfyIvN4f0jAxeffVV5RAhWgUB9LLZi/+Wro4OA154QXGAFtOtmCXEX0i0BaJ5EC2KrC3i2yRARoDGf6UUAATf4z7ExsbRr2+/UgFCdloCI787yJKxPbgbEc7XP/7Cktmfoa8xMWgAQmVeiEcJECrTH00djQQ0EkBx/H0cVMsCasRnQU6Yn8yc+bdAzd8Zt5s3byobvQCWyhbRbnh7eysalf+Spk80O009m91L+ica3KDbgZUV0716GhODxsRQ5iTSAIQyRaS5QCOBxy6BxwUQxERRwN8g2oInVWQdEk3F3+lDAZnbowzlfFLyKRijgvv/E/4VGoCgAQhlzmcNQChTRJoLNBJ47BJ4XADhsT+Y5oZPjQQ0AEEDEMqcjOUBCOI0JCo7san+l1R3ZQpHc4FGAk9IAhqA8IQE/390Ww1A0ACEMqf7wwCCOACJo1FBZEA+K+EHWFtrGNHKFKzmAo0E/oYENADhbwhPU7VcEtAABA1AKHOilAYQxINY4qjFM1r+FprjjPQMJr7/PgsWfKN4PEuIk4RQVbWvSs9ePR+IOxbNg9gDhT9AQgbr1q2rhDGWpwhLpdy/eJE2hWhJ7i8ESMJrIfHawnJpbGRMl65d7jGobfhtA4OHDC7P7TTXaCTwVEmgLIAg75S8e0L2JfZoIRiTMEKNhu+pGsanujMagKABCGVO0NIAghCjSIy0MKUJgYrEL0sRRkkJIRIyKSFNER4CWaAkk+Xq1WuUkKeMjHT8/PwZMeJ15TthKPRwd8dB8llcvkJiUhKWlhYK6dC6tWvR09dnzJgx9/oqi5wABCGW8vHxZcKE8Urss4ACARwSxiRhVnJvYbYU4CGfHzhwQCGhknsKOZK+nj4jRo7g559/YdDAgUTHRCtx1UKeJN7OwsSmKRoJPI0SeBhAEMA+btx4Pv54hjKXZb4Lm6KEGMpPAceHXFfA81EcOAjxmABtAewF/CPllYO890JwVLzI/QofAEQDKcRImvJ0SkADEDQAocyZWRpAWLZsmbLYyEYsm/qNmzfuMU2Kp7EQschCERBwi82b/1AojIWARXIoWFax5PiJE4x75x1l8ZKTvoTqCLVr82bNWLFypUJqIjHUEl8tG7/ESx8/dkyJ8x3wwgAFIDRu7MnVq1eUPoSHhaFvYKAAE2E1lLak70LiInkc5J6y6QtBijC7Sbz1kcNHaNK0iaJdEGIYoYg1MDCkRo3qSpKoghjtMoWkuUAjgccsgYcBBGEtFC4R4QqQBElCbyzRCJKUrIBBUBgIZXOe+clMPp31qQKkhVNA3tkCwjHhI7h165bCaipcJfKdvF/CjyA5FU4cP0H1GtUVkqLCRQiWhPNANIgC4gWYy1oh1PGS1Vbo0YVlVgjSBLDLuybrhUJtn5GhAHpNefIS0AAEDUAocxaWBhBk8kh2xILFRxYDyVchhCfjxo1TFh9ZUCT8JiszkypVrBQ61uYtmiufy49oBQQgCNiQk44sKrKgiF+D5GgQgCC86bI4jRgxokhfBSDY2dqRnJKCi0tNZbFJT0vn3ffeVfoh6lShjBWTg3DGC4GK+Ep8+OGHiklj2dJlqNRqunbtooAIoWgOCgpUqGPFLCGLoJCraIpGAk+jBB4GECSDo2zEohUQhsLRo0crjyCfC4+AaP6EwXTfvn3KSV9AgIBqOd1LtkehfRcgLU7HwmIolOiiTZAMq3PnfMWIka8rNMpCCy+MqLIGSO4ZAdnCzSAAQUyOsvGLeU8OAELhLH0RrZxQokvGVPFVElAiwF0o54WdUcCGaCU15clLQAMQSgMIahXbNv/K1TvJvP72WIzTYvhmwRKG9O/B5p1H6DTwVbzqVX/yI/gYevAwJ0XhVheOdGFfk+sk0ZIsDMKA9m+zdapVKkVzIYvpv63vj2EaaG7xlEngYQBBwLOwCApIl81Y8pH0fKYnC79dqCQkE6AsGgQ3Nzc+/XSWAs7bt2+n+OYIaBBALpu0nPQFSAiYFxOhbPKfzfocofQVkC2gXLR3kmMmLTUVI2NjpQ0BCAE3byoAXDQZopEQsCDfSc4TAReS0l3WCgHkchAQkCD9FbOgsKpqypOXgAYglAIQwvd9y/dndejdzJxFe0JoZhKEX5YdcWd86PD2LIy0chnVpQlbt+/CpU1PmtjksWHzXtr1HkBthypPfmT/wR48DCCI2lLMBnLaliI87nKK0Gyw/+AAaJrSSKAECTwMIIhpYOnSZUybNlXZ7KXIeyobumjt5P2UREyiFRCzmkPVqlz081MSzonGQLQAsnkLkAi8FYixibFCUCRAQtqQhEnSRmBgkKIFkM8LFzEXitOxJKUTDYWAEfFLknuKlkLAhvgfiE+C0C6LBk+0FampaUpCJQEcmvLkJaABCKUAhB/f7o95n+kMeKYe3V+bwreDHMloNIZv3xrErPU7eOeLbxjqkEBKo/5EHz9A+Jn91GjenZNJevy54L/l2FYeHoQnP5U1PdBI4P9LAmVFMVy9cpW169YqKdHlhC4bvpgXnmYWwQsXLijppDXl6ZCABiCUAhCids3mlztV6dXIhHlbLjGllwW6Dcfy2ai+fPrTLt76dD5DLMIw7zcZg7ArrJg/m6nLf8PSxJhaDkXTsj4dQ135XmgAQuVlp6mpkcCjkkBZAOFR3VfT7v+PBDQA4SFOirt3b+OofyRfTH6DiIub0Hbpw8/fzODVD79k0fpNzBzag7lzF9DzzQ9p5qBm0rvTeX3iJ3g4awDC/88rpHlSjQSejAQ0AOHJyP3/6a4agKCJYihzvms0CGWKSHOBRgKPXQIagPDYRf5/d0MNQNAAhDInvQYglCkizQUaCTx2CWgAwmMX+f/dDR8GEK7HprHuZjzTWzgy9mQsVgZaXA6O57MOzqy4lcTSNvb033aLlMRMGjhZMMzdmp3B8XzZzonJZ+O4eDuWr9pVZ8GFGKLTsnixkSMj3MwekPHJkyeVSBlxqJUy79h0jHWNqW/jyf7bO3AwdmRk84ksPTUHIz1jBri9wi9XluNiWQdPh9bY6jvgF3uSKobWbL7+Ew6m1alZpTZNHL3wizxNo6rN2X79N9JzUuno3JNctRpt1FQ1d8LWxJ7w8HC01OKOryklSkADEDQTQyOBp08CGoDw9I3Jf61HDwMIGbkqWqy7zKquLmjpaTPfP5FfulTluZ2hRGtrcaavMzpaUPOnAG6+XJsxB8NIVan5prUDvf+4wcnhHpyLzWTKkXBecbdikFsVbA21ywQIU/aN5jXPcZjqmbP5+jqaOrShjrUHh25tp5FjC07d8WZgw9fxub2fambVqWXqztGI3dibVOVIyH56132BW7FXuRJ1nto2DahlVZeMnDTq23qSkZPOjxeXkJKZyBfPLEdXW1cDEMqa1BUFCNFR0WRmZT7QrBCgSBy0pmgkoJHA35dAeQGCnH3kHZZ3T/6W8ET5X6IZCs5F8lnhv/9+7zQtPAkJyBgWjLHcv2CsC/4u/l1ZfSzLxPCtfzxrTkdy9JV6DDsQyYaejgzcFkKktjan+9RQAILLz7e48GJtWmwMoK6JLr1rmrHk/F0mtKzK9tuppGSpmNOmGo1sDTDT0yoTIIzfNVQBCNbGdsw/Nh1dbT0+77qE4yGHaOTQkh3XN9DfYxhHb++nVhU37AwdOXJnO3Ws3Dl/9zR93YdwNsxXufbrY9N5pfHbJGcl4m7bkDyVipjku5gZW+Bq7ab0RaNBKGOWVBQgbN68mTp16hRpVYhRJB5a6I+fZLkRGYebg/WT7ILm3hoJ/CMSKC9AEKIkKcJYKmyiEkbo7u6uqG3nz5+Pvq4e4yaMx9/PT1kgmzZtqmwyGqXqPzJMj6kRLbS1tRSOCmGBFUZa4Z6QnDRnz55VwKBwXAhj7auvvqpwWghXhvBNPIyzpiyAEJSczYIzESzq4sxMv3guBsXyRYeazPaPITUxjXFeNdlwI46R9SyJyMilY1UT5p6LoLGtORuv3uX1xg4cDk7kdlIG/Rs48lrdsk0M6y5+x9BGY0nNSsbnzn4a2jdXTA4bLq9CX0efAe7D+f3Kj8RmxPBB289ZfX4BNkZ2dHPtw5qLi7E0sKJx1RY0q9aWH88vpp/HULyD95CQEcuwxmOJS47DwNCAKsb5+4QGIPzDAEFY1CQhU+Ei/OrCpvZ3AcLdOzf58betJOfpM23CKHLztDA11CMtKwczE2OFmMXA2BT/P1Zi1nUoLqZa5KnA0MBAoWRedOgiM/p35OThXRhUq4u/72kGDnqWHLlGTw+1ji6GerqkpKYqNq/CL4+w0fXp0+epJ4EKvX2AzVvOoW9gTofnBuLuaEFqZg7a2mp0dPQx1NcjOTkVM3NTtLUeROz/xIoWfPEIu3wvQ602vNmzESmpmRgb6pGrrYc6IxUjE2NS0jIwMzEkNSWDS1d9qV/djR0JZvSuZY6ZTh55ukYY6D4ejVOI30k2HjiOyrIGvWqpsGncGysDNXm6+kRdOUGoZUM8bfQxNzVGpYbMjHT09A3KnXn0n5Bp8TbKCxAk0dLs2bNpWL8BgcFBSgK0q1ev3qM0j4+PZ8qUKZw+dRpdPV0l10Jebi5p6elldrswiCgPOVpJ1xT/rPj/JQGV8n5W/AH+bn/L0/+H9U3s2Cq1Ch2tfG1OWaVsrY5oflTKPDQyMsLPz09Zt2rUqMGOHTuUDJ7CeCmbnADCJUuWMGzYMOV6Ia0SIPGwUhZAKKv//8T3xX0QytumSpWHtrZOeS8v9ToNQPgXAQSfw1tp37kfqrw8rhzdgNqhNTdvXcDNypYcJ0cCs2y4/scKertWwaL7K5w5sJ2qVrrUdbQj164Rqw6cYdaLnTntvRvDmvW4dPAY2hl36NW/Jz5RVYgLvkh1c0OcXN340z+Byc83uyedrVu38vzzzz/1AEE6HBe8EbV1Hzb/+iNetZ2J0jYl2cKZSO9faWKrT/XufQiPyqF1I4+//QKV1MDti4fZHwEjenVix7rVuDRrTHBYJGodK/xuXCcnMZ7RfZoSpW1CSGgSNW0Ncavuwq5kc6J2rMTBwZau/V7G2kjvkfSveKN3Lp5gx7Vo3hrSl6vHNmPb4BlOXw8kOTwYLxdrwqzc8d66iUkjXyQ6IZnomASuhwby0vMDn9h8KC9AkFwoApwlZ0JWVpbCjii/5RQpRTY9+Vu0fGKGeJqJlB7LZCjlJj4hZ2hXvRlaf8NMuvf2Cb4K+oODXeY/kkcRMCiHMWHPlDEWgCHjL1pgyXMh30niO/kt4y2Mln9Hg/BIHqJYo5UFCP9U3zQA4V8EEM4c20MDr56EnP6Z6Ngc7NsM5sKhP2nv1Z6szHRuG5txaOlSBns6Y9ytN2f3+NCufTsSQ0/j0fJ5vtjqw/T+HTjruw9jF3cu7PVGPzuM/sOG45+iR8DJ4xjrqWnapAV6BobY2eSrmZYvX65kphP1a1ZGJi8MGvhPzb9H0k4BQDBO9mX6b3G839OVcAs30g6u41rcXZ4ZOAZrKysszfJpeP/pcuTAZtq27cGXP27H2CCHwc90xczUhH2/rEa//csc37qed19/GVP9RC7czMVUP4l6zrXZkWZN55B1zL7jwjevdH1kGo7iz3v8pA9NGjdn157f8HSognX99py4HEZMeACd6zoQat2Qw5t+VgBCTFIGeXm5ePv7M+y5J6dRKi9A+KfH9v+xvcDYEAZf/IZ3a/dlWM2ulRKBbNbND7zDpawoYrv/iLmBaaXaeZyV/s0ahH9KThqA8C8CCJnpyVy6GoBa3xjnKlro29YhI+o2dxNSqVXHhRvXbpOVmUxz16rEaVuQFXuXFLUe9Vyqcf1mIGnG1rRzq05iXCSR8cmQpUInL4Xa7h7EZGuTGBmBg5UJASF3MavmSl17c0U6kkBm2fffY13FiuGvDn/qnS0zkm6AoSuG+lpsOeBDG0cTjkfn4mxrQ/1qJly/HU01F1dsLR+0+f0TL1ZybDiBodHoVXHAwSCTkMh4nGrVJS8lDPtqdYkKvExEihoXVwfS0rTQ187CpooV5y/foGljV84ERNHavagfyz/Rr9LaSI6PIiA4HH1jM1ztDAnONCYv9g4puVo0rVONwMgkzHOTic3Vpa6rC2G3g8kztsDDpcZTr0F4lHL7f2n7qyu/4pBThT/TzvN726mVeuykrFTqHXoDD4Nq/ND0XVwtq1WqncdZqSSAcDkhh8C4DJ6tYYKOnjbBKSoux6TR3dkMI10tQpOzuZqQQ/caJmj/ZcG8FJvJxegMpeu62lq8VM+Su5kqToWl0q2mGcEJmeRqaeNpY4BKpWbTrWRerGOuvFslaRDSslO5mxKBq3VdxWRzNfoiVka2OJrfT6CYp8rjeow/tkb22Jk7KtqUG7FXsdC3wMHCiTtJodgaWGNkaEx0SgQqCW00e3BMSgUIWbEx3E7NpK5zdR6RqfZxjnWl71VRJ0XJ6ChZ4AoXUWeJX4Lwwf9bS2JiomLf+zepYP39zmPqWBub3AQSDO1xrmL4dItfreLsKV9qNWqNlbH+093XJ9w7jQbh8Q1Aq6OTWFbjNT4J2cSmVh8qavqKlmvJoUy9sIJ6pjUZ6NiGZg71KtrEY7++OEC4GpvO6ztv06yaCcHRmczr4UzH367yViM7dt5KZH1fV17cGki7GqZEJGSxfXB+JMDByHROh6eRnJXL6tMR3Hzbk+rf+TG2iS1+URmMbGLHYt8wfEY04HJSNn033iRwVP0SAcLd5HCWnP6S7rX60LFWT37zX0meWoXf3VOMaT75XvTBxkurSc9J42TYEWZ0WsiRoF0kZSWQlJlAf49X8A3ZR/c6A3C2qMmGS6sQQPFy4zcekHGJACHo/BG++/0g1c31SDZyYPr40ffQ0GMfpSd8w4oChKzMTMUbungRJ5ryODI94cfV3F4jgX+FBDQA4fENU4ODb+Pt+SkTb61jQo1eNHVwr/DNT8Zew/v2RTwsqmGga0APl1YVbuNxVygOEG7FZaHSAbUK+m8NYO8gN5JyoKa5DrZL/BjayhG92BQ+71GLOgvPEj+lZZEu/3glnkOhKbzb3IEZJ8PZ8WxN6q24hM/w+jRb6c/ttxrT6/cgZrVzpLWjsVK3uAbhg70jqWVZl2rmNehZuz/v7nmFpc9t5EyYD7Hp0fR2yzf/Ttw1nNndV3Ah/BRZZLH12k981H4uN2MvczX6guLA2MC+GU7mzuy6+Tum+ubKvhWUGMCFuydYP2APZgbmJUcxfDrzYzo/+xIdWrgx6503mPjNckz173tE5mUlERaXjrOjg9KZlGBvQk0a4mFnxYF9O2nW/VmqPBoH8cc9RxQHl+TkZCVMShydNEUjAY0EnrwEnlaAkKdWs+x6Dq/X0cNE99+/CIpqurP3JHa1nMWq23tI19Jiinv/Ck+AbeHHMUnVxtXGiT0RZxjToF+JB6YTsSrMddXUt/z7HvgV7mSxCoUBQgGHQmaein5bgnjBw5rRHlXIzlPj9etVZrV3xtnMgJc3XaeLhy1rfUJImJoPgqRujkpN618D2NK3FtGZKr72j+a3btWpt9KfU8PqMf14DA1sjRi78Sox01pjY6hbIkB4Y9sL9K87lKCkG5jomnAs7DArnt+CX+QZghMC6OfxslJv7bnv0NXRUcwPPd0Gs/naWqZ1mM+t2CucDDusAIKgxJsY6hoRkhhIV5fneKnRaPYH/Eloym1GNJ2gjE+JGoT1C2YRZ1WP/k2q88WqrSxZMAf9AoMKcOrITrYcu85nH71HyMVDXL4ShGPnvsRcOM7F6+F0f64NoZEbwRs2AAAgAElEQVTJPNPIje27D9NtwAv4H9uProUzDaoasOeEP4NeHFikzb87mI+qvgYgPCrJatrVSKDyEngcAEGlVpMtIcDCeFPOsvhWHlNPprK2vTEDnB9PFEo5u1apyzJyMhh6YiG/tX6fk3HX+C3sCN81H8/ZBDXByXm0s9PFwSg/GuRhZabfWkZU6Yy1tTVTLq9jUYsxJfoyNfojHX09NWf6GJfZZqUeqAKVimsQBPwN/COARlVNmerloGjVR+y+g6u9KR82scJAW4uIlGy2hKSy6Ngdbo71JDk7DzM9bTYEpbLmTDh7h9TjWkIOr+4K5NCgujRefZmbYxriG5HOs79coUYVI66Oanivl8U1CON3DePN5pMISQrictQ5wlND+bLrMvYHbMXc0Jo2NTop2gEZjYjkUNZeWMzLjd9k+dmvGNt8MgHxVxWmxITMuAdMDM0c2rDg5EwWP/urwqJYKkDIy0xi4oT3yVBrU7tJZya/+VIRsf6wYgn16tUhxaomR37ewPuD6xOstiQo3QqtoAvYudgTZ9mUOys+wapxC7LrtiDa5xA9uj6D+u4ZgrLMGdz/efR0njxKLGu+aABCWRLSfK+RwOOXwOMACNMu5rLhVjaX+xlhWA5tgACKhpszeaNGIpG5pszxejROsI9T2ilZycy7uIkZTYcTmxrPyMtL+LH5p3hsSGWuWxQzbtmzqosJvao9fC1/8dTnLHIepfhhvXnmW1Z4va9oZQuX9Fw1L+8MJ0fbhN+7GSrcBk+yFAcIu0KTeXbFJUzMDTDR12FNv9o8u8IPUwsj0IarY5sw+8RdtgXG4De0PtYmulh870/06Ia88HsAr7RwYHAtM3JVahqtvUZIXCofta/J9FZ2pOWoMP3yBNcntsLN7L5cigME8UGYcfgd9LT1+LTLYlIzU5hx+C1M9c34qsdqNl5ZjYeNJ/VsG/Le7lfoX28Yfd1f4nrsJb7y/QgrQ1s+776MX/y+fwAgnAn3JTzljqJd+KLbMhzMqpVGlKRm9Q+LOXH2JnMWLcT6L3WHMljZESz7eR+dGtfi9yN+EHcHJ1tT6j//Ioe2HyYrMY62XZuSXrUdxr6LCFM70aB1K/yPnSQiMYWu9cwJSzXCofdA2hUSxJOcCA+7twYgPK0jo+nX/7MEHjVAELWw68ZULHWzWNnBlKa2ZTvmZeSpqboplUOtkpgfaMjPXaye+oifsubQmbBLBCREMNijGzm5OXQ7NoP3nL/k4p0I3mtsxt2EZN7wM+UDT3P61SrZsVZk+Yz3FDZ6TsPc3Iznjk5la5tZDxBtHYvKJSgknH0JFnzeHJytn6xTdwFAEL4EKXlqSM/N9y+TE7qhrjaSk6GgmOppK6YEhVtDK1+rkpGrVjRQcp2AzAJyNgEJmbkqjPW0lc+EN0raNtErSo5WUhRDdl42Wmihp6OnmC+y87LQ0dZRaJdzVbloo63cW64TdsUCKvEcVY7yna6OLjl5Oeho6SjzU+pIEXIlFfnPo69jgLaWdulMipkJQZwMSKJjiyZFohjystJIy9XG3NiA+IRETI30yMxVo29oTGZqMrlqbYyMhJXPEBNdiImNw8rahvSUJLT0DDHS0yY+KRlbG9t/RXSEBiCUtYRovtdI4PFLoLwAQaJvYmNjqVq1Kt9//z1du3ZVFsXGjRuzYcMGZaF/cfBgrl+7Rm6eigYN6iuL7raIXG7dDic014QmdoYMq5vvNPawkpwF73lHstDLlP4+avb0MH7glFxafXF80yqDODM7Twt9nbIZCAvf40ycCrW2Ni0ryfL+XeB26qns6VqnpeKP9drprzHPHMkklxScnZ0RcqKQ8LuMvmDEt12taWD6YP8UDoTDE/BpPRdjYyM8D0/gdNt5DwCEHoeyeM8xiT2JFtQyz2WCR/l4SmQDlDEVe7kQI0lYtoy5l5eXQrksRZgUJcKsf//+hIaGEhcXR9u2bctFlFQAEMoa/4d+LwigvOGAha49deqU0vdH5v9WvF/F/pf3TJPN8SEjWxggCEOXUCY/7lI4ycjjvve/5X5Pg4yehj5UZLz+bf0teDZRPZcXIMj7e/ToUeXEtWv3LoYOHaoAAAEIq1evJjo6WqFaFs5+KS1atCAnN49m29NYXieKW1oWhCTDxMamZdrEd4VmEB0Xy8se9rQ9ksehdmBm/HA1uWynPwdlsfqmFjOa6NDZvmRVfUqOmg778xhWM4/3PQzKNcxySu18KI+0LBXneukqG5QSD58QQj2rmkXaKMmHQK6deOl7XrLsQMsa+cBp0sWV/HGjP2e6gY2NjdKGbMq+QTFMu2XHsd4P9j8xI5me5z7haMu5Cmulu89bnG/+jQIWCorIwW2zmj9axuKXYcSlWB3mtC5Za3M69ipNLGujr5cvBwm9FvpkGUNhUMzNzaNaNUckQZ6EmF++fJmWLVsqlNu9evVSNlz5TGi1y8OkWCJAKNhIi/++90AVAAQPGc0CgCAh5mqJjisNZJQGQErrX7lmEMp7pgEI5QQIjwzFlXOwNJdpJKCRQL4EygsQRIMQEhKiJFDz8fFRePoFNAhXybVr1zE2MqJ5i+YEBAQouVJk04vLUuH0ayq3n8slWmXAkis5fN/p4bS80qc+vhlMsounfR1HOuxKZmM7XRwsSj8Fy4brl6Bi7ME4GtjuJpcurOnoVOKmdSgyhzlnEonN0+NkXwv0y+E4Kc8xeGcsfavlgHkVxrsb4xN2hpcufUdw9xXo6T7ciVJIeDodfJ+l9d+hgYOrAhDmXd3AFr+qHOrfqoiPgNAXjzqawpL2FlQxLgpg/OMCedv/B7w7zlZO+vUOjsan5Rxsze4njhMw4/JbBleeyyUmS818PxXLupWs9hh56mu+rjcCS4ui3wvYE+1AtWrVuBkQgEPVqqSlpWFibIxr7docOnRI0RqIVqFAi1RpgFDsRSycEbS0d7Q81xSv+4AGoSKaiIouFiWAnojISA1AeJgcNSaGis4yzfUaCTx6CZQXIFSmJ5cTcnn3aAK7elkQnaFi3MlUfu9mhY5O6TYA2Tyr/ZaKb6csLmZdYsWVBnzbwoC6dvlspCWV5Bw19f9IZ3PDEIaEfU1qRjfCnh14L09E4TqfXcxCPz0WPTXUcTTnuZplazROx+ax8nwc79fXpvdRIwKGGNP5+EyuJQXg1+ZbHCxtHyoeAQgmO1/ieutvcLbJZ9n7/tZe9t0MZ3PvEQ/U/dk/jjiVivGeRdvdcfcsO4J8+L7Ne0qdxoffYkvjj6hldZ/5T2z1TTelcHGAAanZeUw8lsHaniVnnu3hM5N1dd6kalX7ygxvuesU90EorWKuWk1iTvkjXQraMdBSY65fNHFVcRBRXhNDVl5+7omKFn1t/Yf6yZSoQVBlp3Pq9ElcG3lhZ25ETNxtbK1rkppwlzupajyqO5CdEMm+E3441KxNU/eHp80srdPqu/4kVfHAUp1IrMoMm2LIs6CeKjsD/4g0PGvacO5GOM3cClFCqlUsG/0pb678NP9yVRKXYrVoaGfKyeC71LC1xsFEn/CYOJzs8lViFSkagFARaWmu1Ujg8UjgUQKEpVczscuOYkCj6oqNvcWeFM70NCtx4y542rRcNVXXp3H+uXhan5mMYdprrG3Vim41Sj4Fy1q+NjiHQ7djeMn5FlfjQ5kbGERwn4lKsqHiZZRPFmFpP/KhxwBePm1A+AtFs63K9UqaatSKOUU2mp8Ds/C7m8xnLSyw3pBNxBAT2vm+iT3mTHEdRLcaLR46WOLIpr/7RWLar8LGwkq5dvGVSxyO3cXmjlMeqHs1OpXBR7S59GJRf42NIYcJT4zivcZDlDrtjn7IvLqv4VX1PptiQraatntiudjTQnHG6PpnEkdfsCpRm9LDezobG3/wyJlpywsQJPwxIbvi895AGxQ//ZLMBn+d5ssNEHKzlLGvaBEnRnFGLLGo1ZSoQTj65wba9BlE6unfsGjcjQ/PZTO3nRNHfLyp5daQGnZWJF05jL9tOxpknsDYvgmff/Y5zw4bR2Z2LCaZ8Xh6evHajhC6RP+BXo0upEWEomWeiWG7l+lpGkpVcxdU3rP5Rb8zQ+vocS7HheBdPxBi6Emajh7jXeIIr/4MYSHX6dm6JRe9d9K4ZVPuZphweOcakvRq06GaKQdCb6B/OII+Y93Jq/cCzoa3GfV7CMtf7MC0IyHUPb+CF/u0IcauGy5VKk50pAEIFZ1ymus1Enj0EniUAOFccDR2etk4VaummCM6bk/lQE+Dh1IMh2Wo8diexMJ63sTmpjDtSjyrmr/GcPeSNQipOWoabk3iYPMEVsXuo4NZYz4M3Mb6Ju/TwPHBk3O/fXfYljWOr51eY9blrkS+ZIKhblF7f2JWCnUOjSW0+xoMdfV5+3QGbvopjGtkw8Iz4fR3MaPXpQ8Zad6ePBMjpngMeOhApeVkYL53KKldf75nThh3PJhrOcs50HHOA3VTMrNosTWba4OLaje+D9yJdbYpg9w7KnVGnPyKYdW60aV603tt3EjMY9+VcN5s5aicaM02JZPY3wQ9/QfNIL0OTmWz1wyMyvDv+LuzsLwAISdPxZ2MimsQTHXB3rBYvWImhHIBBLWa5JwUJS9DRYu5nvkDGoTCWoxSfRDOn9iJg2tbMgL2ku7ehwZWxpwNjMDoylasu72BUbAPp4waYXz9T4hKoeGwcfy54w9q2thiQBy7UmoxooU9v323nPjMNJxdOvDmG89xbNNiLp9OYOz8mQpAiK7Zj2PBV7DWMWLHvvPYkUBjRydC6jXD00pFksqJ7k3qkJkSw4RF21g6oQfXQvOwI5ij4ToM7NqObwe+SP2vf6BbTSvIDeBQuClRp8/gZ+PBrFYWLDsSwLhebSpFF60BCBWdcprrNRJ49BJ4lAAhOztbcW4zNjaWYzk9dyXwa2cjrExKj2S4nJjHjBMxpJgsZabD8zzvt4sZNcfybvOS1fibQnL5/UYsP7QywuPUZA41mMLYGysYX+Ut+nveV70XaAYa7txJY7OLpOtokZwyhp/aGuNgXrQ/x6IvMfj8t/i0noWLpSOjjmbymmMibV3tOReRzHi/HNL05/CF03P4ZIYy1/OVhw5UQnYq3bwnc6LjQsUJUFTpz+6MIs74S852WfRAXdG21P4tjYDBRaM3Zt/4jS4GHrSq2UipM+3iSlpbuNPHpe29NvaE52AQH8YJ7ZPUMqvKivMN2dxZT0nJXLhk52TznO9Mtrf5REnd/ShLWQBB2Ujz8khQaXM6tuKbczUjLRpaaj/ofFiJKIa7qRHkqfMqLA57EweFFOmB8lcfSgQIaaHHOBRrQSsXZ25eukBIchYOjby4HeBPdmQIw14cTN5Nb7xVrjgkX6K6jTkxantu3k2kqW02vgkmmFzbTd9X32W7rx9WGblcuZvGWyN7cuL8URKqtaG3va4CEDK9JnNj5w+k1u/C2ct3aGeVRNOWLdh+JY0o/6P0GvoGNQy1ISeNF1f5sfGNpuzwPYt2cgI2pla07OjF0lEzcRrUmI4d+2Khd5sjCTVwT7rCJzfNWNrNCe+QODrXcaqw8KSCBiBUSmyaShoJPFIJPEqAULzjvfck811zFS42pcfl7wvPJTgyjO8SZ7O1/jQGXlhBR7M3WNC+6GavrClqNS8cSOMzlzjcXBxx2f86l7yWMPrKUrz0u/J+8wfzFFT5YylzajmwJvEYH9i+T5q2IcPdLYuo4Jdd20zVbDOyjWBw3e48fzCT7xok42RvR1xqJjV+z6ZNjTnMrfMya6N9Wdh0zEO9+KPS4xl+ZjE7205TwjWz8tQ03BiHynoaN7ste+DkKSaOfvviWNvGEEuz+9raN05/zUfVBuFSrYYi2sXXt2KjbcpLdbvdE/Xsi5l0N0tgfOhcdFUGNGESHzfWUpgXC5fAhFDev7yK372mlzuEtLITsQhAeEg0gGRgTMituAbBQFuNaTECrof6IKjVaGkX9VkoeLZ/0gdB6cNfEROPNYpBrVZx+vR5WrVqXtkxe+z1NADhsYtcc0ONBMqUwOMECC/tT2FSA22aOpQekfDZxQyeNQrnudtzuNpmPiMuLMM0oz9ru9dVFvXCJSBFxeiDcWzuoIOBqRGdfWbi0/ZTxl39Ef0kF5Z0fqboqTk7D8utCznQqBNTI35hXYNpDD2jh3cvk3ubtGzOY88uYoJtT1bfPcRXLcfQa28mG7yyFVt9dm4uNusyeMVtOZPrDWJe4DYWNX/7oQ5qQSlhzLu0gyWtRiuhhDdS8nh3fxxU+ZZNLT4qMTZ/w9Vo6pqCZ3XhucnfNPsd+4If6oy+l+V2Y6A38dkpjHV/7t5zum9O4Nem2UwLXoqxrg41sscwsZEu1WyLAoTDkRdYE3SQH70mPnISqrI0CKJdkrFNzlFxLqHMKfvABfYG4G5eFFgUBgiF0z2XFUEXlXa3UhoEOyN7hTiptFIqQJDYVkGNgiRy8vLQ19MjLycbtHWUySLqJPmtVuWSk6tGTy+fu1nSRupoaSukI7p/2chk8grKkvki9qXCJerWbaxda6KDWmlfra2L7l/ewgUTLN/5hnssVBUfisrX0ACEystOU1MjgUclgccJEN7wTeXFarl0cyldg9B6fzrr6sUw/Ma3HGr7BR9dXUXE3VZs7NXsAYCw5mY2VyITmN3GipjsBBb6/c4XLUazNnA3pyITWdF5eBGx3U5VUW/3LK61HcHrN75ja/OPcfwzj9gXjTHWz1/chQ2v95FprK8/kWHXl7GzzTS67ktjd8f8JHMKm+GuYJ61PckI9z6M8lvAr22mP3STvZIUxLEgP0Y26qus9ftCc/j9agJWNluY4jKIKlb5jouFy7HbiYQkZfFSI7t7DH79fD9mTf33sPrr+jMRl/GNvcp7jV5UqopGxWRVOt6dwzmZeIFz2SGYpgxkaB0j2rjkJwQsKMtDDpIUH8kkz6Fl8lL83blXJkD46wZZKojMqLiDoPgg2Bg8XPNQxAfhIVwHaTlplXJSNNYzyXdSLNR2mRqE7Ch/xn0wn+Xr13H25GYsHd2wc3Tn0KUQjl85zxuNrPj+SDjzx73E0mWr6d/WnDzn53CyNMH75GE6tmrNygVb6DmkO3m5mTg5WHPxRiB7jgTx4ZhnCL4TgWstF6JDQ/D5cRu9po0n+/Y5DkabY3P5V2p3701IqjX1HY1Jy9ZCNymCPWm2DKtfheDIRFxr2BMaEoylY03MDUpHP393giiTV5PN8Z8Qo6YNjQT+UQk8ToAw+WwqTka5jK9fMkCQzddlUxJHO6Uz88Z6vm/1HvMD/sD3tgXbez6jbK6Fy1snMnnWPJ5n6zviF3OToOgQ+rh1Zl/oKZbdvMq2HqOKbH6nYnJ5+fh0zrSbzJQbq/my3uu02q/P4V4GOJvn0xtn5mbhdug9Lnt9RfuTH+DdfhHN9qTi191AiYqQPu64dp2ohABebdmb3r7T2N3+i4eq6fffOYNutoqOtVooQOKTizmQmYi9yTH6VfXC0fbBMMPLcTmM9o7jeH/7fICgUtHf5xPWN52MkP1ICUuMZOmt7XzZ/A3lf6Gotv8xjT+6XCYlI53juYEcDarOM1Wb8Vnroj4ci4N2Y5OpzUseRbUs/+jk+quxUgFCQTihnHhVKnLVcCezDBrMEjpoqqPGrpiTYmXDHFOyK+ekaKprWnR+immh4BBfWhSDPMuJJQvxeuddNn+8iAGTBhGUaYZKGyxOLiOn8/sEh1ynrbtHPgK8sp0Ip+44WRjeBwjfbOT8zQiWzn+Fs2EZhCSrSQyMonV7NfXtG+OdY0T18LscWLeRoZ9+gEneXWbO+5MZH72BDtEER+mSmp1AekIqHrYWHNVy4MLSdUyf3JUDe49Qu/8I8k7+imu7/PSWj6poAMKjkqymXY0EKi+B8gIEeX/lp0DrKQuw/C+MfqIFlSLfyWdSims45bMVl1OIyFLxSbOiDnMFvZcQveZ/pHCoWwo/3t7LtCbD2XLHlzkX73Cq78sPbML9Dmcyp24y9arZse7mThpru9CwljvnY67z3uk/Odp7ElqFQMXhO+l8dO0T9nnN4NuALQx2bM+8IFNGuxjT0jHf1h+bkUC34x9zss1XuPu8wzGvhQw7nMGuHuZK9IUAhCN3TjPPN4odQ56lx9GP2d56+kMTIi259gd9TVpQvXp1ZbN/9VAGY5wSuasfgCojk4HuPR4YwMjUbBx/ySN3lAE62trk5al41mcmW1pNxcgonxlRSJUmXlzGd63eVeSdnK3G6bdUxrv9TBurRmRoZfKa/yVaGr/GQQl7LFTmBWyiBbXoVKfZA/eWMbyn2Vari4x5wbjL74IfaeBu5F3uhITca6tl6/v+H8WTNclF4pQoY1PAOSBtRWWrORBZcSdFF1NoY32/LWm/NIBQAK6Kcx0UPNed5NvkqfNzKlSkVDerib7u/RwaxdlVS0z3LDcoAAiHZ39J+zeGcke3KnqZaaTsn4/1wC+4FXxNAQgJSdHEZOhQt2q+rejoySN0aNWKld9s5HqOGfPHe3E9KJ4raXoKQOhtdwG1+wsY2TkSHRbD7c1baffuG5yLjKFDNRvCIyOoYqUmKsGIkPDbpCcn0cKtFqfybFj56yGWDmuGlbU1GWkpBJ/aRtPeIysijwpfqwEIFRaZpoJGAo9cAuUFCGIqlZ/ExCR27tyhRCbIIvjyyy+zYsUKEhISmDRpEn5+fsp1zZs3JysrW/m8oOwMy8UvXpupjUo+Jd5IhZFntJjT8DwJiak8W6stZxKvM87/LL5thjyQc2DgcS1+qBeHlVUVPg5cz2tGHanl6Ex0UizPXV2DT7PxGOjf99CfdTOL0PgVLPYcyfrYIzTVdSZX5cyBBC2mehgpm0pQZhQfBqzhV49JtPD/iAXVJ7PxphkLW2jf429YHbqLaWfqE/ysPS8HfMd6l7Elci4oG6FazYehvzFRvxP2VfPV/INO67KsViTXtWL4+u5+NnuMf0DNL9EfNXZbE9wrHkM9XRJyknn/xmqWu72Fnl7+RiRRImMCVrHCbbQCnqIz1bzso0OSzUR+cBiNtb4Zr1/bg3nuG2zpmPNXaqT80ZgftpWe2vVp4FhHIa4SAGJkaIiFpQWXLl1CVPK1atXC2soadw93ZUyDgoJxd6/HsmXLePXVV5V7/vLLL4wYMUKhzhdmRQGMX331FevXr7837uU1MUiFnIpbGCQBpGJaL3A8LA4Oyu2DICb8SnAgSL+LmxeKv7il+iDEBwdi5eJKUkoMWTla2FSxJiQylhSVFg2rWZOQmoqVqSlBN25g5+SEgZExejra3ImIwFRfh1wTG2LCoqjvYkVKejYpeTpoJcajb2GuJBzRNTUnPi6e5LtR1GlYH9ITuZuai05WHHZOrsSnZJCdlkZGRhqOTg6EJedhlhKGoYUlueiShy7qzDQcqlUuOqG8K5gGIJRXUprrNBJ4fBIoL0BISkpS8i3IKTEmNlbh5xeQ4ObmxrffLlJoeMdPGI+3tzf29va4u7vzS+Be+jt3wEg3P1fAkcg0fr+ewdtNUul1ei6/eozBy8nz3sNuDM1h5404ujmcx17Xiu51WxGcEEZXn7Vc6T4xP1zyryL0xwP3x7GjszEGRgY0OjCBw81nYm9lS2pmOlV3fkJE9xmYm9/nTxhxJBR9rT/5ru1Ytkf4opOqTUfnZvTdn87BPsLwqIN/QhBzr23l5zYT6XLkI4bajyAgyowvO9gpp3Qlj8LJ7/j6YnNiXmnEqAvfsLrR21gVoysu6Kese8NPzObbemOVSALJUthpRzJ7OmsTk5fMs+e/5kqn+Q9oXOQEX2VtBneG6GFpbIB/9E2+ubWVVa3ev6fKlk17yPHP+aX1VAU8+SfkMeF4HDd13uN88wVo6+sy+tT3xCS9g28xQqgxZ7/lo+oDqGn/YHRIUFCQkotBkkh99913DB8+nMjISDIzMmjRsiVLly5VPouJiVGSd4lvRlRUFDdv3lS0LNIXydFRUB6IYpAvipMaqVSkq+BiYsXnvo0BuJkX1SAUb6VcPAhAdHoUeZXgQbA1tFUotwtrJsrFg1Dxx/1v1tAAhP/muGqe6t8tgeIAQd5Tyc4omfw8PDyUTH5S5HM5sRaYFOT0KBtUYb+AwuYH2UzX39hLXeOqtHRqpJyQr8ZlMv1UMlrmKxhr2ZFxEeu5WijMT3I1VMmO5FbuPnrbtqa5c31SMlNptWcuRzpPxt7y/mZ/M1nFVN9Yfu5ijlpHC/t9wwlp/wOW5hZkZWdRY9ssrnf9QMkLUVCGHTiNnZkf85qP4NjdSxy468fHjYdS8/cMLvbRx8bEAO+IC+yNuMSXzYfz1slvsKUTxionJnvlRxMoCaoOTeJuxEv81rU+P4X9wOw6L2FfpWSeBnF67HZ4Mtuaf4K5hQUJWSqG7o9jU2djMrVyaOD9FuHP/FRiqKPzhmSO9jSgpqUhm0NP4Bvpz9ct3rinbZAxGeg7k19aTlU2Zp+7efgFh7IgZRaX2y1R5NLPZxYpCVM4PrBoDoznfD5hjds72No92G95RtFgyFjLPQqbAZS0xn853ss18r3wKCjg8c4ddu3axSeffFLkpSiXBkGtJk2lRUBKxVUIVvpQw7iQk2Jh34a/elImQPjLuTAxM6FSUQyWhlWUtM+FiwYgVGBt1ACECghLc6lGAo9JAsUBgmwGZ86c4fbt28oJ8e233650Ty5GBfB90HaWtX5P2dTCkjJpt+0a7tX/YLX7OzS98CHXOi7C0ih/43/FN4tpTtGMC17OsnqjcK3qrGxGNXdNxaf1VGrZ39/sN97J5VhQHF+3syY+J5m23u9zpfP36BsYkJeXS9u9M9na9B3lhFtQntm3jR52WUxsPJAz8bf44cZ2Vni9R/ddKXzcRJcOjsZsDfUhITGJ1xs+x9yLP3Ei2oPOVjWY0DyfXl7kU2XPIKZZfoqNuRNns35kqvNgqlnfv09hgQnNcs39Y7jRbtdQMPoAACAASURBVJFy0j4clceh69F83MaGXFUetgeGkthzwwMhcnKf6cejecHZgKZOliwJ/BO9dBVjGvYvMh79jn7Mry0+Unwg1gdk0SgviKGhCzjXYbFiAmhw4B10E+bgP9i8iBmj9eEP2e05pQiAqvRAg5LcSbJ6SoKnUaNGlQ4QHpIkSRJNRVYiya+xDlgXj2KoBJOiyDw9N71SuRiM9YxLplp+GFHS3xH4f62uBiD810ZU8zz/BQkUBwii2haA0LRp0wds/hV93qiUOJr5vkdQj1Xo6+gRl55DtR2r2NrAg+512/DmyQW87zEEt7+SDTXYlcq+pmm09JvBiWafUt3GAVWeipZ7P2ON+xs0LBSq99WVbLRTE3m/pS2ByeGMvrCcA+1n3nOUfOHIPCa7DMerUJ3We39ijFMVXvPoza2kMEadW8jhzvP42j8BEx193mpoxsrA3dRSV6FL7dasurmbby6bMq62B2Mb5fuGSfi51d4h7Kozm60R5mDxO2Oq9qF2Cap6uT41K53ah98ipPNy5aT95YUMrPJSGNvcTnEErLZvFLe6LMHU4EFuiEsRsQQmqnje3ZY513+lsbYzvd3usyZK+528p7KrxXTF/DLPL4u+FqEMv7UYnw7zFIDQ4dBkAm+/S/iIfOrlgtLL+xM2NZtUIgdDRcdZrpcU0elpaVz082P8+PGlA4RSGhcAGZ+t4nhsxTUI1YygSZW/TAx/bchlRjEU1jIUAhNXY/zJyat4Qoh6Ng0w0C05rbY88mMlSqrMAD7pOhqA8KRHQHN/jQQelMDDfBBSU1OVU2dJSY/KI0tRQTc89DbH2s/D2tiCpMwUWhyaxsGGkxQfhj9uHMRC34zutVohiXq8NiWws3seDU+O42q777Eys1ROcy95L+Btxz60r1vn3m1HHsumrXkSIxracvSuH753zvNh81fv+QkMP/4VzxsMYmDzWvfqNNk3h9muHenp6kVkSgytj08nqPsyQuIS+NBfhw2dzZl79Tees2hKg+r1OBp6mo57o9jevhXPudkp7YjJwHrPEG57raDaAS0m1d1KF6tGdCyUD6GwbCLSYmjjO5XAbt8r4KXXnkym1Emmk6udop6fdno5b9ftj5PVgxqI+Ph4tgRnM6KpvcJ6ONC8FW2cGxYRfQ+fj/jDc6oS+jh4fzKfuEXzfdhOvm7xlgIQXj8xl1+vvkj8S1UxKURx/eqRL/nB6/1/jGZZ5sq3ixbhXq8eAwYUzU1REpNi8Q1cHkriF7IqznKMZOzW11Lf92soga3xARND4TDEQhKNz4hFVQmq5SpGNvdNDMVBysPCHMvzIv0/XKMBCP8Po6x5xn+bBEoDCOKDIEX8DoRBsDJF3vmVl7bhYVuTdo6e/Bp4gDe9gwnq94Ki2g6Li+SnOwf5qOkrnIvO5vNTKazqrIur92jCO6/B2Dj/VD3m9ELaGnZmeKP7jm/d9qbzuVs6rWvasOnOUUxToad7+3t+Ah/4LaNmYnfGdboPKlx3zOJXzxdo6VSfxIwUqh95i4TuqxUP/q47UzjS15KZl1bxjsPzimkiIPY2dbf4cKx7b9rUzNcgZOVmYb/vZaK6/EL7Hel0q/UnTcxqMKhOlxJFdCkphPfOL+FA53nK955/pnGwXabisCjg588b3jSq4kqtEjQQuTk5DNgVw9Y+VXnt7DxmOr9ELft8muWCMuDkLBbWHUUNK0dMf0liX6tgIhOj6efZVQEk086vIuhWO5Z0tblHtyyai1ePz2dN64kPzaxZkTE/ePAglpZV8PX1YcKECUWqFg5zLKAeLnxBAVhIz1VxManiVMu2+lDX/D51cnEWRZFzST4IhQkEpT9CI/j9mXmkZidX5NGVa0c2fRcro0JZjgvTOZcKEFR5RCWlYl+l5LjfCvfiX1xBAxD+xYOn6fp/VgKlAYQ1a9aQmZHJm2+9Welnl4U5MuYuk279wk9eE3n+2EwCbj7H6UH1lBNvemYab59ZxAqvSSy8lUdMXAKTPA1ocWwG1zrOx9AgX2X7+aV1qNKq83Hrzvf64rUrnXVNMqjjYM38Kz/T16gldVxq3wMIn1/5mZQ4R77qeH/jNtw8nWutR+Pi6ExqVhq1D79DcOdlGOjp0213Cqu89Pg04Afmu76CjY010Snx2P/xM4G9h1LLLp/tMD07A8dD44jpuoweu9LxdNyNu4kxb3j0LVFOp6KvsjzwAKu9xpOlUtNxexyHuhvfCxP1C79OYnoyneo+mDdC5GfxUwpxQ4zpc2IG6+u/j611oU0IePnMHD6q/gKuNrVx/zWF1R1uop2WRyf3loosPr20HsOIZrzSyApHh3wtxd3UGGb4CxHVhAfIpyo72OKgeP36dQVwdO58f5ykvRJzMRS7kfQ1KUeFX0LFTQxCkuRmVj4mRZl3wsFwj8SoUD8EICw48SkpWUkVFsO4llOxMi7ZUVUaK9HE8N3cT7kYnsbseXOwkaTV/8dFAxD+jwdf8+hPrQRKAwj79u1T1PXdut1PBFSZhxANRLujk+hg3QC1JJuL6su6TqbYVbFQbPDuB9/hcqdv+egC9LGKxdVBl3fOLuH3djOUsDEp4kwYEKNmXrv7m3CLP5PZ01GFlYUFY04s5FOXIcqpv+BUOOfGVk4GarOlV5980JCXh8HWjwju8B7VbB3Izs2i8cG3ONNxMaaGxow6kki/mrA+bAnLG7yjaE2SM5Jw2vYdt7uNUThjpCRmJtPSZ4YSmvjSoRwM9A5QyyqBzzxfLVE8eyNOcSziFrOaD+VMvIpdlyL5sLXNPdV+ZHIMX1z6icVt3i2R8rjqujRuDtKh/+lZ/N54MlWKaXNGnV/EINu21Lf2pMf2VN7z9KGJvgvNXeor/Zl7YyMJEY68Uq8e9R3ywcXxsAv8Fn6MhS3e+sfyMJw8eRLZom1sbXF1dS0ii3JFMYh/hxoSha6hgkW2VjO9/AiTglKmD0Ip9whKuEGOquKdcLGsi77OfaKkIs2XpkFYPOdzosyrM23McIzEUFJCuXb2MP6B0VjXckfrjjeez4zE2rT0dKgVlN1Tc7kGIDw1Q6HpiEYC9yRQGkBYuXKlEvtep04dhgwZ8rckdi7oMnujLjDQ3osvblvzgVsODavZKQt6g4Nj8W49m/7HDNnomUqCcTa/XtvFzGYj751ufw325mjkJZa1eUfph9TruCOJXZ110TfSp4/3TDY0nVzEFPJz0CF+vhrKzmeHKxtvZHIe9Q9NJ6DTZKwtqyjOhq0PjWe/12wsTcxZ6JesgIaTKYtZJ857ZmZkZWXguWsuxztNuOftfzc9jueOz+ZEx9mMOZfJnUQ/nK39WNWi5GiPX0MPY5CiZoBHF2b65eCujmFQo6r3NubkzFQ8fT4ioMvCEk/ztX5JwaeXNu/5z2dN8w8e8AeZdWk99Uyq42HZnklHE3GyXck71fvRuIabIqtvArfiG5DJ2Gpe9GjorHy25MZ2IlPi+bxZvmz+iXLr1i2OHDmCo6MjvXv3rhBAKNjMk3PVnI6ruAbBwRDqW5RwAC/kCyAApn79+g91yhQNwhfek0jKrHjGqCntvsDG2L4ov0Mh58cSNQjpUeeY8s02pk/9EHsLI9R5arSKAYXdPy+lVs+h/LHkC1ztdNCp0gDn5p3Qjw3keng8bdu15s99vpjkZNJvYE+OHjiIfvX69GzR4J8Y18fWhgYgPDZRa26kkUC5JVAaQJCQtbS0NFq1akXLli2VcMOwsDBq1KihhD+Kqla+t7W1VX5LEWdGof+Vd72wY6Ow7CUnJyt1pp/P5flqeXSome/X0MJ7Gus8RjH4uDlHO+kSnBPF2fArjGz4/L1NVDgLpl7+kyNdpykbmni7Dz0Ux5ZOZmSRQ9djH+Pd+vMi9zwcdpbP/H052GuCUudETB6vnfqIc50+vpd0qYP3VDY3+QBbC2t8wlJYfiOFSO0lbG+VHxUgTpae+6dyrO10LC3yzcTBaVHMu/ATi1pPYHdQIl/fCMTGxoffvT4oUebzr2yii7E7TV0a4Lk1nWWeaXjVvK+KzsrJpuaBkdzptrpEf4C2W1JZ3FLFkuAfWNZi3ANOhSsDdqKVB5aGPdgekMiB3A841PhT6jrWVPqz/c5xXj3vTX+LEazqnJ/z4e3/tXce0FEVbRh+0nuvtCQkIZBAQug9VKkiIigWRFFs2BARRLBQFOyKCvZfBVSqINKl9xp6SWghQHrf9C3/mZts2CS72d0QQPHOOZyE7NRv7t555yvvd/x/dLD05dGIgXoBgtiv5ORkKWQxIyOjIlRU+KWIcEqx/8KHQshVGxkhWBQXLlwogbQJEyrLwiQNguBewIK0YvMBgqOVBe5lyqbrpaYwRx1Ng0TYpFP3aPIBStTmRzFE+rbGvpwQTN+DYDCKYfe6P1i59yQj7unH/IUrePylcUQFCNKNsm7WLviMA5eLCGwahUvmLjrfP5a120+SnxrP0G5t+d/+VEqyConiIB71fInL8aMYJePGjDb5JfBPqCgDhH/CLshzkCVQWQKGAMIvv/xCeno648ePlxqIA16YC06cOIHglRc0vOLAb9GiBXPmzEFZquSV8a9w9MgRKQNt27ZtJKAggIVumRZbQrRLEUNCy7gPJsd+R2uPVvxxOogfejixMWM/ngWOdGnStuLwOpOZwNNHv2VLzAyJFvhMHnx7OI33O7sTX3CNmad+Y3771yrdwE+kn2PU/hUcGvCq1M/KyyV8fm4WqztNlA45oYWYEPsNrwQMoaF3PVLyChi6PRtr97lsaDNVIh5SKDVE/j2Oo11m4lqeICkuJ5FVF7fzStRDnM3IYsrBHKy9V7KorX4TwYvHvmay9xDq169HyB/FHOxRUIl7QClCHbeM4kr3n/QChOFbFQz0y+dEwXI+aFlGqaxb/krcyznFVRwshmJbeJXxaa9ytv1cfN3LzAkiL0Xv/T/iVTqdc/eW+XQ8e3weDzq3pUfjduVdicNIIx32on/BiCgAkoiiEPwG/fr1Jzk5SQIGUVFRfPrppwwfPlx6JkTdYcOGITQIFy9cIC4+nhdeKNP0aIupAEEwKZ4x3z8QQZQU5GSaD4KxdM/zj35Nfkme2a+JhyLH4GZ/nadDdGAyUdKZkwf5+ttfKClV0nTUZF7ueJ3ecv1v3xA29Bka28OfP75Nh2HPsH7HCci4QGFuIWHd+7Njx0mibHYTFnM/f208TJOQQIYOvJ4D3OzV3IYGMkC4DUKXh5QlYEQChgDC8uXLOXXyFFPfnCr1IG7Ty5Yto1u3bhw+fLgi8ZAACELboM3FsHfPHuwdHGjVqpXekT8/qSCnoJC32pXdoheeXsuSZBUBqnZ82tObL44vo597NM0Cm1QAhIuZmQzfN5NdPd+TDu4VV1WcvJTKpA4+rE3ax/m0K4xrPaLSeOeyEumxYx6XBkzH2saaSQfyuFTwBfM7TZD4HQRA+ProMjr5RhJdvymlJSW0/iOBRvUXsKLDFKlORpGGeqtfJrX39ArzxcHUU5xPucT9zfuTocjnkc3JOPr8yvJOb+plQxy5bxafBo/BycuHe1elsap/WdInbRHvRY91I7jY43s8Has7s2+6kMFP504S6BnP9Najq42x6doxtqTGUlz8AGN8rtDu9Ouk9FpQkTxK+Dh02zad4uzZXB7pKMn0oYOzmexzH1GBYXr3SGiEBHWyYEcUfiKCE2PdunUSABs0aFBFLgbRWOy7SEIlfFaEBkFoFgSAMBcgiHnllqo5UAsTg7+DMDFUTvxUES1RHk1giolBrVHzwc43yC0yn+95fOdp+Dj7X/eDqMLmaJQHQUy4VKWSHG90zT4qpRILK2ssLUClLMXSyhqVWl32f5UGa2srBMq0RI2FlQ1qUd/SSkLS/6YiA4R/027Jc/2vSEAfQBCaA61XukjGJIo2w5/2d61qWUu9K17w4lAVGgPxN33ZHEXbn8+VsCFJwcJuZVEBZ9POE7F2Jx+2GMArrXx4fd/XvBB0Dw396lcAhLzCImJ2vMbOLu9LsfxTjxfRQp3FiEg/Pji9mK4OTegSXDkrYXpBGq1Xv8fpgWWmhy7rr9Ld/i9mdHkSq/Jb+Npzu3C0ticmsLX0Yu+x8iiBPuv5pfNEKfHPlZxSgjdOJL7XawR61pfmu/PqEewVFrQJi5IOz/YLrxEY/CNLO79ZzYegRFXCkG3v8Hub1zmjdGZ/3FWebetfSVMgMTOuf4QD7WfTxLNyCKMYLyMzE9+/V/FNMw+ejCxzuNQtZ9Iv8d2ltaTmPsZbTVMYeGI6p3t/V6FpyCtQ0GPHJFJSZpP4qLPUfsi+GXwW+BiN/auPJ/oW69JmcxQ/tZoF8QyI9kKTpN1rUV+rdRDAUWgLpk4tA5XaYlSDoKPiFymfzS3irKx6GlYNdawEEGpgcyxSFkrhjuYWYV4QVAwVh3uVMYwCBHMHvNPqywDhTttReT13ggT0US0LE4K4PQr/AnE7rMuy5lI+P8QrWXZX2W05W5GD94rv2dZxJJ1DfOm1dSpLosbj5elZcRiKA6nDhnfZ1OllPL08eXRHCQ/7ZdMnxIORu95nTtOnpARRuqWopBjXlS+Retf70u0/avFpRjTcz+SOj1aAl91XjpKRn8PdYd2kpk9t342N3UHmdSyL4191Vck9eyZxPOZZWviW8Sksu/g3zSwCaR7UBLVKhd/iFDrUn8uKLu9UU/8XlhbSffsUtnScwVsnbRnolEzP8AaVwJMACKN2zebJkLvpUa8yCZIYT2g2PFd8yepWMcQ0aVttK9Lzsxh/9Gt2XX2OVZ3TeeL0HHb2+FS6WIoi8lJ03DqOlKQPuPKokzR25y3jWNFyKr6elUMmb2SfhSZh9uzZks9KjURJNQySo9SwJ838w7m+I7R0NyNZU1UfhPI5CWAwddPz5BRlmi2Kt7p/iq9zWbZOrU+DySYGs0e7AxvIAOEO3FR5Sf96CehL1rR9+3byFAosLSwklXJdlt0pxUzbX8T6wWUAQZguWvw1g60dn5Oc4ZptfJb9HT7ArdwpUNQRt9iOf83jp3Z9aV4/jLZ/FfBNy0IyLS+w5NIuPmk5ppp3eqlSiduf47nQZQr+fn40+309Y5sV8GLLeyuAx9mMc2y7epKnIu+R/vbxsTVczE/ly06PS3P7Or6EccffZVuH4XRoEClpGb4/s4rurlGENShzAuy6KhtLx/fYFPNuNR+CK7kpjDo8h9Wd3sJvkZpdPRVENqocKy/6/PnYKnzd/BkY1L6aqIXmOXD1NNa2fpTmDUKrfS6yLsZsn4Fj7ng+6ZLGrLg/+K3LdX8M8d4N2fA46Ulfkv2oo6Q9iRaZL9tMw8OjdgRY+p6HnTt3Ymdnz4YN65kyZUqlKsaIkrSVS9QaEsr4ucwqLtbgb19ZsyIdzoItsVzjYkqyJo0FbL6whmJloVnji8rdg/rhZOtisJ2sQTAiUhkgmP3MyQ1kCdx0CRjyQZg/f77klKZ1UqyriVzMLuL+TUUcuK8su6BwaGy8+iUOdXwLezcHOm4bz6Fucyps6GJccYg+vOl/PBkQTp+wToQuKWBjTBGvnfuKKX73EtU4opp6X61W0W3ddOaEPUmb0AD8F3/BF1EtGN60RwVASM5N570zS/is7TPSzfrzM8vYdRkW9x0mLXfKwSK2pn7DhPC2DG3cRZrH2we+5/GA/gT7l2lWHtuQzmH1DA72/KBahMGOtGMsOLeZD1q/iM/CQlLuU+HhXtnPQPS563IsmcoC7gnpqlfM0X+/wKKmk2naqEG1zwXAClk3jc6aZ3ixYw7xyRcY1eLuCi2FFEq6YSzuRW+ztqcTrq4u9NryOivbTcXF2bmutlUKiU1JSeXokVgee7wMYGmLURNDecVCNSTmm69BcLUxABB0NAVGAUL5HNaf+4PCWgCEu4IHVwMIJmkQipVq7KwtyU5L5NjxeGJ69eLU0ZO4NQrE07qE3eeS6dUqnPizh7FUW1IvOIKrly5QaGlNoJcLyWm5pDv64Z5xERsbC/yaNOPSmXO4OEO9egEkJ6fi6OmNv7sbhw8cpHmbtvwTOZlkgFBn30W5I1kCdSYBfSYGcagIgKBQ5PP882PrbCzRUUZ+MV1Xl3BymCOWVlbklahwXfYOR3uOxN3ehSGH3udA94+rqesnb1+Hh3sWE6MeImRpHrOaH2R9+gE+avGU3oyEYg0jt35CD7uhPNU5GJ9lM1gYfRd9QzpWrCe7SMEzB77gt84TpbnMOLWQ9Wc92Tl0gFRn4OYiHFnIoEaBjG7SRwII92+dxofhT9K4HCC8uD2bVYrpnOrxLo6ODpVktThhC1dyshgePITnN6WzbICH3gRY55ISOJxzjgea9dYra7+Vr7CsxSS6hlTP1yDeq+3WvcMAuzG0DkugRaGfxF2hSyP81K736efwAC38nGjWwJdndn7CnHbPV3KWvNFNFpEsIsJl5MiRxMTE1AogKJRqDppPQYCfHUToOClWXYuQhSlOisLE8PGut8krNt9J8aWOU/Fy8KnMg6AzEYMahKcXHePbEVFS1Y1TJnDXux9Jvx+8mErbxr78efws97QIYeWhC9wd1YDU9AQ09g05f+ogng0aExHQgOnvL+H+5+6nQf55duTa0r5JIEfPJ9DLH5QODVl5NYt7vVQ8/ckWvnh7JC7/QP9FGSDc6FdQbi9LoO4loC+b47Rp0+jVqxdNmzalXr1yu2odDZ1XrKTln3mcvdcFGxtr/kws5eE9X7O8Qzs8Hdz4Nn4NX3d6pZqT41ex+9mmWMuirm8RszKNUtfZzGs0msjG4dXAhJiqOMxf2z+XhOx7WNKvEfYrn2FX25dp0yCiYiX5xQX02zGZrT3KAMnLR+ay8kQLzj/YWVLFByzK59GA1dRzd+CF8MEIL/fQDS+yvdUUGvqWOS1O26vgq7S3ON9jmhT2qVs+iFtKSxpQ4tiOnGsJPNQmqJqmQ8wzR5HDV3ErmNKm8s1b9CX8HPyXzGZS02d4tZV+n4G+m2cy0OER8D7McIcOUiIsbRH9f35sERGqVuQ6uDGsmR9v7fmBd9o/XuGsWRdbu2TJEgYPHiw5KQpCIt1iqgZB6A6KapusqcqZZ9TEoDU/VHH6zCrMqFWyJncHr+vJmvQIVC9AmD/hRT7Ze5aAwY+yctKjhgFCZFPUaiWv/LSET0c/REl+EtuPpnJX5ygunTpIUERbiYYyYd9y0oIG0s7fjr+3/kbfmPuxsLJl8dl4riQXEZiZRsyAbvjYV2WNqItH4Mb6kAHCjclPbi1L4GZIQJ8GQRDixMfHI/IxfP7553U6bKlSRdiqPE71t5PMCCN2FWFbsoWG3hlEuAeiyEzh2ahh1bz1V8Yl8tyFaeyP+ZbgPz9iXlAThjfrhVsVlb3uwfje8fl8c7Q9CSObYrX8CS51mUmA/3U1fXFpMcGbnudCn7nYWdsy5sCnHI7vza6hTaS5Nfwtnzci9pBHOpNaPihFcvise5Aznebi41F2WL9/uJC3z87har8xeHmW0TFry4sH5/FSvX5Mj6/Pu8Gp0sGtL7qjuKSIJ/d+xC9d36j2uYgKGb5hHs2cH2ZWt+uOm7rjDNk1k4nuDzMn/Re+CB+Lr29Z5kltWRK/hfrqILru8SJvhBVzT67k1egH6hQg1PSQmAoQMpSwM0XkdDSvNHKC1u56bsU6GRtNMTEIDcJLa0aSVZhu3gSAj/r+iL9LdROQ1FFN2Rxf/eMUHw8tQ60GNQiRTVk39zMiH3gUT1dXdu7eTeuoKJKSzmPp4Iu/pyuffvsjj3QMJbVBexIOnyXAO5cWLRqisQxkZ2YW3dycWbfpIDGDetHItbKqy+zV3oQGMkC4CUKVu5QlcIMS0KdB2LVrl3QLFN7/Iva9Lot4Dwxam8WS7naSY2HkskI+b5rIj7lLaeXZmO6acNqGR1cb8u+EHAbs+ohAn0w6lTZiZouHaWTgwC17J2tYeHEjb+wu5figu3Df9jJp3Wfi7XH9EJdSN68fzbVe3+Bk58hje2Zhk/kAE1q706yeF96/5rOx4yUWZG7n47bPUaQspvHG0Zzv+QOO9mXv2HlnCxi7/1uu9h9BfZ/K2pZ7d87kyybPEL3RjriBSjw9y0I7qxYBAppvGc+JHh9Xc3RMyrvGd8fWEpc3hF/6euoFGHdv/5oJ9VszKv4LYtt/VpG1UTvO6sQ9BBa5E7UlkMUxB8gozubpqDLHzLoq4gAWXAja8uabb1b8bipAKFGpic83f05u1tDQUaednlTOBgGCTjiicGpcHb+UwtIyZlBzSv8m9+FiV+5fIvoU/yyvgxbZSdGINGWAYM7jVvd1NapSNBZW0gtGeHjbVGFk0x1RfFFK1Ei+M+YW8WIuzr7GvhQN3ZtdV3XW1I9oo9JosNb5Qpk7rly/dhIw5KRYu96MtxJ7PXFvJi+GWRLg5UHQr/ns7VPA06e+ws3SlllNHqNhveo3sdPp+XT54xxh1hm8GuTEPZ2jqzkFVh195ZUDPL05lnk9nmDMsVdI6DGrkmOeyMfgv+EJ4mO+xM3BmWG736WzxeMoHJx4O9qdFotz2XCX0BAs4LsO48lXFhC++Tku9flfxe37wLUC2q9ZyoXBPWisk4pZHPr373mXycHjuG87xN9rW8nxUneu4t0YveU19nd5t5pfwKIz68koVLD0YgzrB7vrZVts89d87guw5ZekTcR2+0xiQdQtm1OPcOTKCdQlMXyc9jtfhLRjWPh1Z03ju2a8hoimOHv2rGSqEfkYdFOE1wgQtAe04AmysCTbfJZj7K1ARDLoFrOSNemQGp1JP05pLaiWm3q1wNbKzqCgZIAgAwTj36LbWCN56RSevtKSP8c9wGc//cK4x0cZnE3h1UMM3ebCuof1M63VuAy1kh5Dn2X98m+xM5HMKzcliVXpJTzSvCyZjFxunQRMBQg5OTkcPXoURW4eBUVl+RbEQdC1a1cWL16M4O8fNWqURLUsGGPbtases69dzNLfTAAAIABJREFU1ddHsghx1dCpoTsjt2Twa1cn5savYF3WKZZEv6rX6TBNUUTTZQWoUbO7p5KIgOoOe1WldjDlNF03LaOD3ziUqplsinmnMouhRk27TS+wqsN0fBzdeHjP+zzv/zTvxjuwvI8zfden81d3a56K/YrFnSaRo8qnw443iOv9ZcVN/lJmDo1X/cHJPl2J0AlDVJTkMWLPRzzi9xp7k3L5vEc9gzd2AZo6bnmZbZ0/qAYQ7tv3HqPduzHtZCRb+tvhUsURUqzZbv4u7gpYjY3ahuXd35ZInnTL0cwLPHjkK3ZETabxjvfY3Ho0bQNaGJyPOOhFBIvgwRBageeefZb5CxZINMvR0dEVTIp79uyRTFFjx47l8KFDrF6zRurTzs6OiRMnVkyhUpij9natR3uRrdSwuxY8CA0cINqjOg+C1g9ByEPrpCile9blQdChRBYmhsl/P0t2UYbZX8DpPebg59Kgou+qPhAyQJABgtkP1a1sIADCmkuFhA6ewOE9fxNsn0t6UT3OHt/Pex/NxkpTyLJfV3A09iSTXxnK0O0uPJP4Bw6BDtiH9uXvn2cy9InRzJi9krHDm7PrsieWZ5Yy8o1X+eqnLTQJ9OS5J55GXZpPk0EvsGf+dL7/fgkeTkpCe97Hgp/X8PPsUaSmF/Lex+/RJ7wRR5o/Qs6XE+jSJpycvqN4rEVZbLlcbp0ETAUIgovg0KFDtGvXjs2bN0vgQCTyEQBB+CoIYiVxKBzYf0DioevQQSR4UlFSUlxtMcsuFpGiKCLIx4mUpGxGtnAnNyeX7JxsiZhJsPRVLeJG3nV9KelKKw70LMbD1XDMubbt5bwkwrd9Ctkf8Hj4F3wW9Ww1FsPB+95iTrPn8HN2Y+yhebwX8hQ9dzuyvLcd38QmMauNEyOPzWFR9ASyVHncd/QLdnZ4qwIgpBWV0njFRrZ1C6FNg7IMiqKcy7rMjIt/4KV8ipEe6bRuop+1UFu/+55JrG35drXbf+99k/k0YDRfxgfwYjMVkb5OlUSTVazivo2X2e/wGr/We4EhET2qyS6pIJ0eh6ZwqvNcOu6exIz6L9E/pPp8hDlJHO4iZDE5OYXIyBb8/fff9O/fn6PHjpF4+TIDBgyQkjFFRkYiWDZF3aCgIHbs2IGytBRrG5taRzGo1RqySs03MdhaaqR0zxVFD1OiPhNDVS2DaH8hMw5lLdI9B3mEXtcgVKFZFv3KAEEGCLfurV6LkQRAUPWezGdfzMWjnh/uVsU8N/opvnnrEUa9vQDb/Ct8/MMGbPKu8uwTAxm6zQGHX99j4vRXUBYriT1/ipcfGcgLb6zkrXGDOWnlB8um4tV3LAf+/J0klQdTJzwFaiUtRk3h0IzhrLtsTa8m1ry79BxXLyYy//0ygPD9wZO83smRJ9YoyDiTysJxvWUNQi32tC6amAoQBAD4/fffpVuluF0KAqUzZ85IIXUqlVqifg8LC+PChQuSBkD8M1T2Jxfy8uFiStR2fNksk47B9aTwMAFCqiYj0vYhbn1nLiZSWqCgWVioXhBRdbyMgizqb3ie8KJXeSHiCqOb313Jp0L0+fj+OUwIGkR9Fy/Gxf7IN62e47ktOTh42PGQWy6dmtbngd3v81u7CSQUpTD22M/83e163oWSIiWev//J/7p4cH+TnhVTWHZ5BzuSTnEw9WGWtMunnr9hjYeYR7cdE1jU8jUauFWu12zTU2xsOZ2v45zo7a+hV3BlHgWRpXLBoSTu8T9Pc+9QGjasbp4R2p3QrWNI7Def8M1PE1owjT8G1sOmSmZh7eSzs7MlYCDAgKCpFoe/IK4SnAsix8batWulKJf169dLlNwiOZPQNIiIl9WrV/PGG29U2gpTfRByVBCbab6ToiBJauZiGFgYDXMsBxRCg/DBrqnkFpsfazm+4zt4O/lV1iBogUJNTop18SW+E/qQfRBu7y6m/vU+mpgXcbqyh5lbUxjUqIRtsblctfNj7sQRaAqTeX3STC5dTOTrb6fz4l5Hrs55gdAAT8a88ConL8fz5H29mTprPeOeuouzlt5YrPkAjy59+e6TRdh7uvPejCkSQOj18vtsnjOZaZOnoVAW8NqM6UwZ8Sjejhpe/HQuy47H8XwbB17d7kSDdbNwslHj+fwsRoTXLa3v7ZX4v2N0UwFCXa7mWl4RYctVOKHixKASfLxNo/wtLi4hP18hgQ9THOzEgVZv40jeq3c/oU6B9NTJECnWIw7mb08tp7lTMO5OTnxzcSOfRD/FrsQs7t/hyO7eCkIa+DF0z2x+jX6ZwwUJbLywk3fajanQIAhw5L18HTPDi3m+xdAKMX18djG5uY78ndCF9f1tqjE9VpVnz12v83GTx2nt26zSR/XXP8KJTl/ya4I9V4tUzGpXmdxo8QUl55MzebqplXSY6yaC0nYktC+BGx+TAELgxmforJhKm2b+TGxu2GZel/tdDSDoy4WgViMyPZ/NM1+DIFI9B4hsjjr9muWDUPYwSCB1+akFtXJSHNx0BK72VZgpyxNFCZ+ua0lJWGiqGjfqUsr/8r5kgPAv30B5+nekBG4HQCgtVfLDoURaORTQOiJMr+NdXQhbJL17YscsDpdksLjZWJo1DKkGLPYmHOF8UTp2DvacT0/gteiHKCkull7ovj6+ODk78ej+9/iq2YvsLYrjavIVRkcNuU5EJKiM12xkmN95Pmx3nVTq5SNfoc5oh6tlI6Z1863IjWBoXSIkMsY7kvuDKrMpeqwdxZWYedLN+sezGn7sU5YmW1vG7SuklX0ej7WsHNqoW0ccS6Ebnieu1+e8cvArJgXcT+ttzly83wVHG/Mdkc3dmwqA4OpaRiSkPTjLb9i6h3mx+QoEKVGTrZVF2e1dH/jQaNi3f78UmVMp3bMeU0BucXatkjU527pW8CBo11OxLlmDYPyRkQGCcRnJNWQJ3GoJ3A6AIF7kGRllCXG8vPTH9teFHMQ4q05uY8ilr0jtNA9vT69qAOFCZgIrE/dj52CLVak1zzQfJB002myGYh5jDn7GuIBBnCxKpGmRD9FhkZWYCp/ftoli21h+6PxaxbSH7p1Fccq9TA13pXOYgfh4nUX+emYdeZaWPBPWt9LSh299iwUd36BEpWLY5lI23F1GUa0tD/5dzPMhuXRrXDnHQ1WA8P2plbR2C+V02mVGtLiLxSfTWJHpxZJeN1+LUFWDUDXTopQzQaMhXWXB1hTzqZYDnaC9Z2UnxUoaBEMAQSskrYlBo+GpVfeRUZhq9uM3d+Dv1HNpZFCLodcHYdaMd7iYeK36YBaWvP3pHBo4VnfGMXtm/5IGMkD4l2yUPM3/lARuB0AQAtYqW00xFdR2QyQgkp3JsatxdA5tjb199cNQUaDgxSPf4G3vRF/31twVXD1h0ktHv2eIexTxxYkMtG8nOVLqzvvNXXvYoVzL1u7TK6babdvrFCc9z+re9pLfhrFy+NoJ9mSfY2z4de2EslTJJ4d+5ZU2DyNySwxbl8cfA90qaVy6rS5kabt8/HwNm2mEHGKvnqH3sWmsCXudjiEtUeTl8crefL7q6Y2dzc0l1jMpzFFKyqUmpcR8jYaDlQYP25pNE6YQJYk9OpZ8kFKV+bGWzf1aIVI+Gyp6AULssVg2LVtCXFJlZqZBIx6kR7cY3GzLgjdzUhP56OcVRAb60W/wENwc9KO6Hdu24lASxyWn3gzvHGLsmftHfS4DhH/UdsiTkSUgSeB2AYRbJX7x3snLU0hJivSBEWHu6L9zKs42LswOHkF4/eoZE386u5oCtYbLBcm80vAe/Pwqq/O/ij3Ll5lfc7r3p9KyxJgdNkzHU/EYywf4Sr4BxsrllKv8kbqXl1rcVzFPRaGClfG7eKh5Hyl0sf2KHLaXM1BqQdaA1Xks6gZubpVND1XHKywqZMHRNdwbHIN3uc9Hakoqrm6uBvkZjM3Z1M9NdVIsUEFcnvkaBE9bCHSyvG5iEKGLluX/L5+kqQDh9xM/UFCqMHVpFfWGh4/C1b6yY67RZE3T3nmTpi3bgyKJLTsP4ts4nO49urF+0XzGTn+fxi720gBZSReZ9fsm7u0QQWHGcU5fUZGVU4idvRWPP/4QCxevJt/WE+vUc7Rp7UaOYy8ZIJi9hXIDWQKyBKpK4E4HCMZ2XKi3o7eMw15twdrWb+PpVZ3tcFPiAdamH+dM9iV+aTmuGiPirydSmZ48g1O95mBpaUFBaQH1ls7hKd8Hmd29ocHIDN25ZeVm83ncct5uM7oCIOxKOExhcQm9QttLTpEiumJ8czVNfMsOIqEZGPBnOsv6OOHkVJkcqeq6BWjJSM/Aw9OjYj6i/c3U4GjnYDpA0HAq19iOVf9cAIRg4aRYQ9ECBH08CNpmIorh59ivUJSaP4mRkc/i7lDl2dHxh9CrQZj2zlSuXkvFIzCCx+/tQdqF4yxYtUOaz+SP51QCCB/8fZap93Xj4JYF+EX1ZdP2WJq5l+Ddui1/LdlGSto16rs6yADB/OdHbiFLQJaAAQn81wGCEMtL++dQUFzC563H6j1oz2Zc5P24pezIjeNgx4+kkD/dsupcJuPPTebMXXOlMMrkvGTqLVnK6nZ3MzDSNG6P0tIShu+azoruMyoO7Sf3fMozfn1o17iM1OiDg9k0clTzUETZQaQoVvHM5kx+7OVqlFXydn4BTAIIGg3CPzGzFjwIdhY6PAhVHQ/LD2lTNQjnM88iKLjNLY3dQ7G1rqz5N6pBeG/6W1y6klxtLAsLS9746DMCyzUIwsQw+9O5Ur3OHUKIaNePXftPEuJWik9UG376/FvUzu4EujkS2cKFXIfODGzz72Kdk00M5j5ycn1ZAjdfAjJAQCL7Eamtg4IC9UZUKIryab9tAp7WjmzqOgs7u8q+Y2eTsuh36A3O9f9Cup2vTdjFkL8vkXh3H/z8/EzaROEUGbXpVY70/FCag7jdB298nPXN3yasQbDUx6K4Qg4kF/JRTBlAWHGlhLhLabzayb/Oc2aYNGkTKxkFCOWHeLoSttciWVOgI7St4qRYdWqmAAShQXj2r/vJrEWypjn9F1DPpaEE5PQFM+rVIJQUF6FU6YvbsMDBwf6WqHdM3MObXk0GCDddxPIAsgTMloCpAEGwJm7dulVizROMiiJkTBDw9O7dmyVLluLoYM+gu+/m1KlTCF5+Qajzbyni3aRSKiUWQH0qd8EQ+OC+9wiyqc+H7cdUq5OSm0/0tvEk9PtCInCaePw7jp1xZ3G//pLvgylFHCodtkxiW6dpkk+A+L/3mgc43Wkevp5lDoh7kguZsEfFrqFlXAjvHiklQJ3ByFZ+dXqWCPrkEydOSHsr9rpnz57Mnz9fYs/s0aMHP/zwAw899JC0VsG8aKyY6qQomBTTaqFBsLfU4KZlUqwa5miKBkGnzZm0Y5TWgkkxzKs5dtb2ZVEMomgjTcr7lpkUjTwlMkAw9jWSP5clcOslYCpAEN/fRYsWMXjwYGJjY/Hx8aW4qIiW0S356aefSE5OZtKkSRw+fFhi3OvYsSOCoEekjhYaUyQCZunNKR1+1w9i8XdhP676s8zGXlZPt626or+yd6/oT/s30absd/FT9Cs+FxEAlpbaMDjRZ9nnZfO63kb/OGXziL98AWssCQ5sXG2TFCUltNszgYNt38PJyZnHjn5M0+wuvNa5jRkcDxoe2P8eP4S/iIuLq6Tm9tz+MEkd/4eTfZmTY0FhEd22WHNwgKU0916b4I2gNPqEGI+SMOXJsrGxloiWBFNmYmIihYWFkmaidevWUiImsceCQXHKlCnS/nbv3p1z587Rtm3bGgGKUQ1C2SYgOBASC02ZaeU6ztZQz8ESKVzSQIZKkzQIGg1bL66lSGn+JGKC+uJs51o2B12AUD5VGSDIAMH8J1tuIUvgNkvAVICQmZkpAQPh5JWeni6F+okDJCAgQDo8LC0s6BYTI2kQBNOhoN3VFu1BrxvaaOhvZe/W6yCiLttUi78vByBVx9A3BxFyKICGnX2ZY7luEeaB0NVvcKjrJMmBsd3Wl5jm/gQDWrY0a3fv3z2THyNfxtXVlYzCHLz/HklRv6XY2Zbd0gXg6rs6j7X9HaWbe5PfC9nYI59Av+sprGsa0JD6u6rWROyvoNEODQ3l9OnTkplEAEQB9gQY+PPPP+nbt6+kZcjNzZU0DTU5O5oEEEQ0n1JDbJb5UQx+9haEa6mWy2/sZjMpSjBUwwc7pyDIkswt4zu9g5ejTnRLFTKo2wIQShSpWDn6kHDxHI2CQg1ya5u72JtRX9Yg3Aypyn3KErgxCZgKEG5slDu7tXi39V7/JV+EDyY8sDFhG8ayKWIyQY3Mow5/5MBsXg+8j0jfMM7kJvLiwbmsjZlRKepg/K4sXmhqTYiPKy2X5rCzn6UE2v7JxShAKD/UVWoNGbU0MbjqJmvSIwxTNAiiWVz6iVolawrxDC8zMRgoegGCUGMlJafj5+9NXik4WWuwsVCSkZmHs6s7FspCcguVeHl4UKjIpFDjgLutirQCFQlHD9CsfTfyrp3g9MXLlKg8ierQkvou9qRlKvDxcGT86PFMmtiV3Ab34O/igHVxPioLW1wcbUhJTcff319CdqXF+WTnFePj5U5Geiounn7kFhahKSnCxbqI3zacYtS93UhLz8bPz4e8zBRs3PywVReTlpUnkXAoMlLAxROBpDXFBdg5OFJUVIyXp+GkLLqykgHCP/krLM/tvyoBGSDUzc5/HLuQQJrhX78Fsw/MYkHXcbi7V+HmNzLU80e+prVTY55s0o8jmec4cOkoT0YPrcj7IJqvP5fN3gx4rY0rr2xK5vPunnrzL9TNquqml5oAgu5NX2gQDmSYr0Go5wAt3HSYFKv4AegmazIW5jhj2wRyistYPs0pr3eZha9zvUoOikajGNI2fUhB5Cj2Hr3MSZ8WPB5cSLBDPFdzm7Ml/jxOmReIaR7AjgwHrpy7Qmvbc3g6OpEXOojSxJN0aNeCr/alEpx5iniHULIL1fhZX+PhNoGsyPBk81cr+eWFPBTNJ7Dj+AUKktLw81fiWZiKT9NOXCq2J9zdgfVb9xAd6MZ5jR0Olo6sWbORlEILPn44isM2ocTtOEWXgBS8G0Vj7+PH1vgk7otuypKd++newJkLakfSCx04tW0FrsVZDBjzLH8tWUbfu7oR3LAJVpbGE2zIAMGcx02uK0vg1khABgh1I+eFcev545g9lwniLu/1vN35cZMyTuqOvubCTrYrEpgd9QjbkmKxz4X2YdGV1PfxGQX0Wq/m+UhrmpcmMSCqkUk8C3Wzytr1YlSDUN5tqRpSRMYmM4ujFXgKMkgd/4NamRg0Gg4n7aFEVT1FubEpRft3wMHGMBeFXg1CaXER5w/s5IRdELFW/jwRXEiI0wWyVG14++/DjAyGdk3DePd/6+k/fBitHZM5sWYF9r2fI+3QDsIigki1dcbV2Z3xm6/ySNwpGg1pROv6Tfn5w4VsvlB4HSAc2YWNVwu6NnBh+/ffc9ezz0hrEoLacvAo3aMjOHb2BFHh0ZJDyLOrzzGvqy3Lr1iSfvwi7UvX0Pqx2aBRkXL+Gn6hjUg/uRbviH4cu5ZNRD1P1Ed/4YttKp4f9wR//L2djs0a49+gEY4msGPKAMHYIyZ/Lkvg1ktABgh1I/OdCUfosSoRG/dL/NS8Kfe37FPp5m/KKNdSkvn4ygo+av0M4/d9ybh6QwgIqEzrLBxAu6/K5WCGPbF9c2geWN+Urm9rHVMBgoj4u1JkwmFSZTVOVhp87CtfUs0GCOVmjr2JWylWmg8Q2jXoiqMACAacJPUChGJFEm+88iYvf/QVR5bM4WroAJ7rks/EN5YwcuxrZKbuYOPqeKa++RoHV3/NoaJoRjXNRRHWD3X8PnaczyHerxmWW3+lmZ+SVn3H4GmZyfvz/mLGtInMen850x/IpyBkFLHnUsg6toYsm1CGdGrElJmf8+Enn2BvY8XFY5v5Ze1JXh/3JN9+Mo32j73Nxrg0JreyYXOGE2kbf2DA4IG8+f4PfPThu+QnZ3DKsojmJTnM/P5P3p02hQ0fTkDd/zmsL53jrqED2bLvMFGNG+Dl44e9CXsqA4Tb+h2VB5cloFcCMkComwfjeFYCLx38iiRlFksiXqNFQBOzQw9zcnOYeOIHvu44jhabnmFT5AzJQVDXAVA4VF66fIW0rBzCQwL/8f4HQrp6AYKerItppbA12fx0jmXJmvQcQjpj6PVBqDIH4aQ4esXgWiVr+mbQUuq7BpQ9THqyRJrupFgaS64mCldbK46dO0pUqGFPV/EwJCec4ddlawnr/xCDm1/3DK6bx/rW9SIDhFsna3kkWQKmSkAGCKZKquZ6aYoMgra9hLe1M0c6vo+Hm3n+B6J3wcXQZdskdsTMJnLzcxzq+rnePA5CiyA4KJydnKScA//0UgkgGEjHLG7e4rzLVRo3V1ddr62lBkfryrkXTNYgVJnPtbxEVLVgUvR3boiNVXnSKz1rNB0g/NN38ybNTwYIN0mwcreyBG5AAjJAuAHh6TQtLi2h47aJvObRj2EteplEIFR1ZBFDf+/OaUwJeYBX4n5hW7d3//H+BaZIzyQTg0ZDvgqOmB9hiI8dhGnDHPVMSNdJ0dm5jGRKuuVXMQcIDcLc/bPJKzY/F8PTbV7Fy8nnupNiVeBx7RoWGn0ci6ZI8D9QRwYI/4FNlpf4r5OADBDqZsvE+y0hIUFyTBQcECK5krlFHB8TDn6NlcaCDnbB3Bd1l9lmCnPHvBX1TQIIgghKDZcU5jsputlAAwfTkjXpAoSqGR+F/FfFLaKwtMBssQxsMgwXu8o5OoxGMZg9yh3cQAYId/Dmykv710rAVIAg1NrHjx+XKJQFQZIgyBE5DMT/s7KypPULgqS8vDyJSVEQBv3XiiBMEodCbcCBVlY7L8cyMe5nFjebQMOGDW+LCMUeCrrl8PBwiQxJMCkqlSry8nLx8vLi4sWLElGWWKdgWjRWjAIELQ+CSs3VYvOBlaOlBh/BpKi1/euQbYm51RjmWOmmr+Hg1d21clJsXV9EMZSn9db2KVgVy4GibGIw8pTIAMHY10j+XJbArZeAqQAhPz9fsnuLw1/Q8W7ZsoU+vXvj4urKt99+K4GEiRMnEnv4MGqNRmLcEwdmaan5mfFuvRT+OSMK8JWSmoK3lxfOzreGAEl707WyspSooQV9snCOFEBB5IUQ2SuXL19O//79pf9/+OGHDBkyhCNHjrBnzx4+++yzGkFRNYCgzw8ByCjVsC3FfA1CgBO0dbcwGEEgdtcUoiQpWdMqkawpzewHYs6AhVKyJqnoYXOUAYIMEMx+qOQGsgRutwRMBQgiAZOg4G3QoAHZ2dmSFkHw9bdv356vv/6anJwcCSDs2LFDOlBamkkzfLvl8E8av3Kuils/s4yMTPLzFRIQFPTOYj8FzbYAiCJx07x583jsscck/wgBDEUSp5qKPoCgda6sapWvibK5pjGE/0ZVkwHlN3hDGgQJGOnkb6jt2Np5VVqLVntQ3v+1pCTZB6GmDZQ1CLf+iy6PKEvAmARMBQjioBDAQLADCtWy+L84MEROAO2BJn4XQMLaygora2tjQ8uf/0MlIDQ/QnsgWAeFKUloFQQYEPssQIP4TNjyteYkYXa4oVwM5YdpkVLNMfP9A/GygVBXHSZFrVx1VPyGwhx1QYXQIPx0+AsUJXlm78zIls/i6eitN9Wz0CjIAEHWIJj9UMkNZAncbgmYChBu9zzl8f+9EjDKg1Cuks9TwfFs83kQfO0sCHUud1LUtf+LKIXySIUaTQzlbSqiGEpyzBb2M20m4OFQlpa7ouiYUmQTgwwQzH6o5AayBG63BG41QBC+DCIldHR0tGSWEJpFob62srSiQcOGWFpamGSeSElJkQh4hE1c/C5MHX/88YcURSD8H4TzXFhYWI3iFTdlYSYRWg+hDRHpq93c3aU+xLyKCgvxr1dPcsyrqVxOSCC/oEDiLBDaFZH1UKRGFnMTRdy8xfyMFZFBsVSpxNfHR1rLiBEjyMzIoLCoSNLYiL6joqKMrunYseNSOmvh/5GUdI2QkBBJ8+Pr6ys5ljo6Okq/36piqg+CSqMhvcR8HgRB1CciGQwVvWGOZRtTzW/hdNpRSlWlZoumqXcL/cmayseQAYIMEMx+qOQGsgRutwRuNUAQ6z13/jyNGjZk69at9OrVi7/++gsbaxvqN6gvHV7NmjUzSSzHjh2TDkFHRwcaN27MwoULhc86MTHdJIAQHBxcYz/i4BZgJSIigksXL6HIV+Dh4Ymzs5MEXoRaXaRe9vHxqbGfCxcuVKjYhb1eqOVFyKNoK8CHUMsLQGSsiMiBkpISUlNTpTTLY8aMIS0tDZFqW8xF+H2IiIKaigA9Iv22QqEgLzeP4pJiGgcF4efvj4ODIwpFngQ2dNNxG5vXjX6uBQgCpOja/HX7FYd4dqmKfenmjyaSNUW56zEx6EQzaDUIFcmaqqRj1gK5d7aOI6eoLCrHnDIl5gPzkzWZM8CdXlf2QbjTd1he379RArcDIIjbuihXrlzB28sbewd7hGZBHKSFBYV4+1RR1RoQrLipi4NTONUJkCAuazY21tINXvRlLA2yeCeJkD1xkIuDVfwUoEE43glnzKtXr0o/jTmviTairnDWE2sSIZ6ijViT1o4vogKMlZzsHISaWxykAhgInw4BNsRtXziIij6MhRWKuQiAIfoQPiNifDEX8bfAwEASL1+mYaPK+R2MzetGPzca5lg+gFIDOeZf3rGzBGcjLi+mRDGIaZzPPEOp2vxJhHg0xcbKtpKoZB4EM54cGSCYISy5qiyBWySB2wEQbtHS5GH+IRIwSrVcdn2nUK3hZI75JgZPWwjW+iAYWLMpAEGAs/lH5pFfCyfFh6Kewt2+nPtDplo2/8mTAYL5MpNbyBK42RKQAcLNlrDcfyUTg1DtlzsO6oZzCtNDtgp2p5kmW/pQAAASjklEQVTPg9DAAaI9rhM2VQo3LDcl7N27l+bNm1dolbR1tLd88VOtUTN54zNkF2WavWnTe87Bz6VBmQlFFAsLaZ3aNQoNk0y1XINYZYBg9jMnN5AlcNMlIAOEmy7i//wApmoQ1BYWFNaCV8vaEsnMUKlUucVX0yDoybgo2qflJ6PWqMzeM29HP6wsy+0cMlGS2fKTvIKFPU3YDCv4sM3vRm4hS0CWQB1KQAYIdShMuSu9EjDVByFXqWF/hvkahHr20NytMkIwOZujzoyFieHdbRPJKTbfSXFSl3fxdtLxM5GTNZn3bdAFCCIcSOuoZF4vcm1ZArIE6koCIgxPBgh1JU3T+tEkX8BCJa7JKjT2DlgkO4J3Cdi5gruraZ3oq6UqQZMYj4WFcNYshEZhWFyKR+PrhYXSAU1xPhb+9Wrfv7ZlxkU0Ggcs8vJFeiU0rk5YZBegaRyOhaX+vAymAoQbn1x5D3p8AEzxQRCtjTmkGpqjsTyNcpijkd2VNQh19vjLHckSqDMJyAChzkRpUkeaH97GwkqFOqAxlkpPsG8O4tC9uh2LF941qQ+9lQpT0XwzDYvcOGjWChoGQdx5NI27w5/fw9tLsXCt7GVv7mAadTEsmAXp6VgoLqGx8gMHVyyc7dE8+hYW5bwPVfu9UYBQVRtgyrwr2pSDBb0mhirpnqV+DeSJqPi77ueG6pZPUJfKWQYIMkAw5bm96XWMIdm6nkBtEXddz0Pur3YSkAFC7eRW21aapV9h4WiDpnkzLC6kg0NL8HJDs+NHLJ6YWNtuoSgdln8PJYeg5UC4cAY0DSUtBRfPQP9XsGjSoPb9i5YleWgWf4ZFYQGaHtGoHfpi9dcHoM5DM/rDugMI2oPX0E9TV6FzgBuiWtYyLdYIDvSNpzu3MtVDdXChU0emWpYBgqmP7U2rJ+K3BT+6Nt2siJkW8d03qxTk59MkLKzWarmbNS+5X9MlIAME02Ul19QjgfmvQY4KnvsIrPSnajZbg2AOQDBwi6+aiMlUE4PJe6xv3KqOjzJAMFmcspOi6aKqdc2NGzfSp08fvWFEte60hobC6VTYsUUyF7n8OyUgA4R/5779m2ZtEkAwpLrXMh5qsy6aoeLXlVGtAIIRE4LBPdACBa1mASRfHznMsYanVvZBuPlfaQEQ7rrrrps/UPkIQlshGOtkgHDLRF7nA8kAoc5FKndYRQImAQRtG3O0B1Xb1CB5gwChKggwBgqMfW5gDjJAMPK1kAHCzX9vyADh5sv4ThvhRgDCyVP7aR7Rnj+++4p7xozFysKClQeO0jMiFFcnpztNVDWuR6NWsujb73Do2JeuflaczyrBUXGVjdsP0aDrEB7o2ISEE3tItatPiJOKU/GJdO3enWv7luHV9j7+WrCQYY+NNDhGaW4S//t1Ff1GjKKBg4oft56im3sGB6+oeXjYQFQF2Xz/3W889OzT7F3zM5aNY+gXHczRXZuI6tKLmT9s5c0xvQ32n3xqL8t3XuKRET1Zvngl3YY9iuW1UzhGtMHfEpTFeSz+cysPDR/Ero3L6Nr3flCruZacTj2XHDbn+NK7oZve/k1N1qS3cU0HsgEuA3391EqDoNORQUdJEwGDDBBkgHDbX4gyQLjtW/Cvm4AhgLAosXLaXVtLGNqgso157/btNGgWzIyNF+jrXEyxlS1nC/NprFbQp3NHLidlUNwoguRTx7DOzSLYz5WCEiUxPbr+6+RkbMLKglyulNgw6ctf+eD5YRyMPcGwXl05dXIf1gHtCHOxZOL7XzJkwACaNrJn3cLVjHzhaXJSE8DJh7l7TzO5dxuDw1w+fRZnD5h3SEGXvP18d82HF/q3Iev4Ztre9yQJBzcSGd2Ru+ce4MfnOvLuFyv4ZtLD/Lh6I/eG+3HctTndvfWHIQrH5o17Y2msOMpFl2iCfCxZfyyPnmEe2IU3p4klLPhgJrZN2hDTzJmPd17j5ZHDaWBvycRNsUSe2c3QZ8biYmOGD4IpB6sewiFj+2AoCqECIGiBqz6nQt3OzTFlmLAWGSD8xwGCSK8qMsndTq9+QwBBaG+08xKZ3ARZVV3MszYmBvEyEoloDKWbLcnN5lpeIYH1/SvNUaMsIiW7AD8vDxRZ6ShKNdTzu/GUtcKx08PDQ6JELePmsMDBwd7oe6hqBSFjkUFPJPypTcnLU+Dk5FjhYGpOH8IRVWT6E/wioojEPKYkBxJ1DQGEsOVFoL7Oi+9lD3vutqs8rYJkhn+4gU9evo/9CRnYb/6FVd6t6O5hRc+WYXz73U/kdnua+yJsObRsDckZZygpteej96aZs7x/R12NhgNbNuMe2ZZQbzeWb9nJsJ6dWLrofwwb8STi7fD9wQsodq3h1ZeeYMHchRJAUCtLeOKXXYzrGEB0RIjBtWpURXy/ch2P9OzEL/vi2bL3NJ+P6sSWaypGdI7k0L6/iYjqwLBvYpnVKh/X4DaEBPqTdXIDyy87MLp/NyxrSHOgzEnklz0JDG0dSHZeJkv3pvLMgGhS3H0IViuZ9f48nn0okk/25fDikL50HLuQhJ/G8OvElynsP4wne8UYnLtJJgbhY2CpB2AY+rt2NBMOZwEa9u3fL1Et10jSV9W8IcYwFaQYARQyQPiPA4TctAtY2rlzPD2H1vV9KShW4WBnQ2FuLnY2NmicXLFVFZBVbIGPmzOq0hKy8hS4u3uiLsymyMJOcgJWlahwc3UmLSsTtYUtvm4OpGVm4uHhQ4kiixJLK9wdnUjLzMXL04litQ2O5cjdEED47rvvGD16NNu3b5fS6YqsbsbSvYoDU2SQE+lnRRFpbKt+uWoDENSqUo5u+I1WA0ZJ/QrucrVGIx2MArSsP3aSSGsFyoataeRsSUpaBtg4oDi/Bdum/QlwVrNx43bCGlsSGNbnhg8PARBE5rvi4hKysjLx968MTEwZQAt6RD+2trWLNRfALTk5WcoIqI1CMWVsbZ2y7H8ig6FznQAEU8c+uOJL2t77Aru+f5fEoIEobUvp6FjCnsxSDq/bQvDwp1Esnk68ZXPeerglP+y4wIxXnjC1+39NPWVuKo8/96o033k//cyRk6dp72/LpnRH+gS7sCjFjtAD88gM6MugDsFsWrWZ3vcMlA6gTZ+9Qqdxn+FYwwF+bOsaPvjuNxp0uIf3x97DR38dJGvnUhKS0ulz30PcPTCGTye8yfRPZ/Hy82PJVNnz649zQa3iszlfMm7cyzXK8pt3XmRHfDZPT5zIpl8X88SUt/CxKCDLyY01X8zj0dF9+eSTtUx+81nmvj6eR2fPwVUoJNSpbIjNp2+bxqYBhJoOdC0YMOXQNzSaaCv+CbChAy5MNjHU5JOgDwToApgqbeVsjmZ8fe90HwQBEOzcG3E+L5drV9PxKcrCzsOV4Pq+bLPwZMcf+/FzsWZEuDteISFkJF7Cwb8B7/8dR5+m1hTGXYJ6jenbMgwLlCxYtZsY3ywsQ7vjapnJ0YsZZCnsiPA8T0J8Mu1j7uGK0pVw/+s3VkMAQRwe4pa8dOlSHnjgAeLi4mjWrJnR3RO30pkzZmJlbcU777xT7eCqDUAQg17atoig7iOk8ZUF+eSXKnF2csHK2pLtp+KIcsgn1T0CP/JIcvLizNrlRAc54tC0P37Whfy57TBtQpxoENTK6BqMVdBqEISM3FxcsLGzM1u7UlxcTGZmpnRrr83hXnZRKdOs1BZkaOcgAE5daBCMyU3+XJaAqRIw6INQW/8CE3wPjBIl6Zt8DfOpCJsU7fQRLGn70+lDBgimPiECaN7huRi0AOFE4hWunLtMqLsVVp6eEkCIs/Pkt8X7ibTJwc5Wyb2DB0oA4VReEacK3Sk9f5z69d1x8/alT3gQaEqZ/cVimnsqCGnaiOxsWwp8/Cm4nIBVegKRzfywdGpIcb3GWDt5E+hUppozBhB2796NSqmkeYsWBlX8ulsqDi1FngJ7B/2RCrUGCNsXExTzgN6nJ+P0cVafusjDQwdjiZI18xfi2aUfDfOPYCcAgh2c3r+NSwUwoGcPM55A/VV1TQxCY+Li7Iy9AUa4mgYT5gnRlzHNjKE+BDgQ5gmhgTDX/FNaWippewRAEW1lgHDDj4XcQR1KwCQTg6HxtNkRq5ofqoIEfeYBnUPbqInBiCnDZDZHnXlYWFpKwF8U2cRg5IG60wGCuQyGZRqEgArzgFZ80uGgKWX+ql2MHNy9klSPbvuLZJcA+reOQjelifZAMQQQ9M3N3ENI3/bWFiDU4bvnhrsSh6s2TFPISfyrrRZAPOO1bSv8CASxVW1K1dS1Yk2mmjpuJIqhNnOV2/z3JFABEIR/jqHbd03mBd3PjN3gDYi3kpOi1gSh59Yv/ckcB0VTtlOjQWZS/I8DBFOek5tdR45iuNkSvvP6vxGAcPrMRZxd7PH08sTJvooD450nqppXpFHxwZ8HGBTdiPT48/gF1iMoOBSK8snOzmJ3kSteuVfJt7FjYIsQYi+coVVQKAt//ItHxtxrXFrqPFatj2Vg7zb8+O1PjHz6aRxsbTi0eysKpSXhgf6cyVLRsEU4wdaQmJFEfRdn1p0rZlCEt9H+Fae3cE5Zj/qOBcRezMEtOIqOwV6c2roAx+jhZO5fS453CD1bR5GeeAnvRkGormwm17cnHrY1OE8AN6RBqHpgV12JiYe5yT4IRiVlQr4GPX3IGgQZIJjyaN3UOjJAuKnivSM7NwQQfri0nlKNyDpYVpys7Hg0oLJT6Mr1O1BkJdGlX0/Wzl+Nt5cF1+zrEWGVwaErBTzUPYDAyLvYk5xIwp+rcIpsw4VVy7ANCSfcXc3BFCdyz+3n3g4B1B/+Mv5WNR80/+gNUOXx8s+76RYewIVDe+kUFUarLl1wtoJrcfvxDW3LxQObWZviwEv3dOHnpd/jUOrI74sO07NnAEfSNPww07Aj4e4V/yPNK4LQ0DA8rAtwc/bEycGBub+tYnCEA78n2eKfdgmXXo9wbwMrvvnhc1xsnThmHYR97AbUXUcx/Z4WBkV4dPFUCn37YEEhB85cxSu6GyNaB9Dryfd4/fG+9Oneif371tK5y2DOH9zNofNXUF1eR6OI3sz9aT2vf/M9UZ76HXQraRBM0QDU4OxX6YZvyGdA1/xQXqfGZE01gQx9YxgDJXrayABBBgi3/f0lA4TbvgX/ugkYAgjD982kUFMWwSKKp40z89tUTia0fHMsfbu1QF2aCzjzze/LiIiIIP/yGXzr+xHgWopPUBsOX4sj/kgqkdGNubD7GL6hlsQt3cSDE1/DwkbB3csL2flct3+d7HQnrFGVcOJyFl99No9nxj5G6ckNFLR+gG4NHZj16ddMfe1lElIy+Hb9Id4d1Y/ft69nWIeujHngTUaPboJX2weJbOhhUAb7//gd28jm/HYkk1d7heHk4E5pcTGL/lxP2yBHNqfC8A4t+CjRha86e7M/7giR/n7M2JZKeOYOHnzwOWzsDJuwUi6cAFUm3/62nQEP3sumvQmMHNSZid9vY5B6G4MmfcrJPavKAMKhPQREtUVz9COu+Q7nyOkrDO7bQyLK0lcMahBuNFrBRGdBMSeTmBSNzcdQhIMB/wddR0nZxCADhNv+gtu2bRudO3eumIewTdeFr4GhhV28eJGQkJBa285vu8DkCRjkQTBFNDmKQlycHNBImgZLclOTKbF2wtlGyaZ9sQzqGUPchSs0bByAIuUKDu4+UFqClZ0FdlbWXLymoJ4rXDqRQFSPDqYM+Y+uk3nlAmqP+rhaFHAtS4mXqyN2dtbklFrh42TDlYvncfZtgLuTPdmKXNydnEm8lERhiQKVBsKbNTW8Po2KK5cu4xcYhIVaiaWlFcnpmXi72JOUoaCRvwcJFxNp3CRU6qOguAgHG2uSM3LITkvFxtGT0CA/w/2rirmYmEqjhv5cuXwZ/4YBpCuK8SSPHEtX6rk7kZ+fi5OTK8UF+dg5OqEpSCUnJ5+krCK8gkLxddSfk6VGE0PVQ9cY74GxJ8DAIV5rE4OhiAljYELMUwc4yABBBgjGHt1b8vnNzN5YdQFa7oJbsjB5kJsigRvxQbgpE5I7veMkYAggVIsMKAcHupcajchGa2GBNiJAN0ujtp7uRaiqw64kTB2iJBcXF8kRWTu2seiEG6mnnauY+9WrV+VkTTU92Xd6FMMd962WF/SfkIAMEP4T23xbF2m2k6IxHwTtagyFOupZrV4NgjH/An1SM6Y50KdxkKMYjD9/MkAwLiO5hiyBWy0BGSDcaon/98YzGyDcqIj0HOKVAIKxQ97Y+PrMGKJNVZ8InXqyk6JsYjD2WMmfyxL4x0lABgj/uC254yZkMkC40YO7BsnV2gehvE9jpgh9Q+uaJ4SJ4f/kf2bYftk83wAAAABJRU5ErkJggg==;" vertex="1" parent="1">
          <mxGeometry x="1221.59" y="243.37" width="787.83" height="416.63" as="geometry" />
        </mxCell>
        <mxCell id="9r5r1A9ahPay0bQfyhCd-48" value="Alibaba Cloud" style="text;html=1;strokeColor=none;fillColor=none;align=center;verticalAlign=middle;whiteSpace=wrap;rounded=0;fontSize=38;fontColor=#000000;" vertex="1" parent="1">
          <mxGeometry x="880" y="50" width="580" height="80" as="geometry" />
        </mxCell>
        <mxCell id="9r5r1A9ahPay0bQfyhCd-49" style="edgeStyle=orthogonalEdgeStyle;rounded=0;orthogonalLoop=1;jettySize=auto;html=1;fillColor=#FF0000;fontSize=38;fontColor=#000000;" edge="1" parent="1" source="9r5r1A9ahPay0bQfyhCd-50" target="9r5r1A9ahPay0bQfyhCd-7">
          <mxGeometry relative="1" as="geometry" />
        </mxCell>
        <mxCell id="9r5r1A9ahPay0bQfyhCd-50" value="" style="fontColor=#0066CC;verticalAlign=top;verticalLabelPosition=bottom;labelPosition=center;align=center;html=1;outlineConnect=0;fillColor=#CCCCCC;strokeColor=#6881B3;gradientColor=none;gradientDirection=north;strokeWidth=2;shape=mxgraph.networks.hub;" vertex="1" parent="1">
          <mxGeometry x="240" y="248.92000000000002" width="40" height="20" as="geometry" />
        </mxCell>
        <mxCell id="9r5r1A9ahPay0bQfyhCd-51" style="edgeStyle=orthogonalEdgeStyle;rounded=0;orthogonalLoop=1;jettySize=auto;html=1;exitX=0.95;exitY=0.05;exitDx=0;exitDy=0;exitPerimeter=0;fillColor=#FF0000;fontSize=38;fontColor=#000000;" edge="1" parent="1" source="9r5r1A9ahPay0bQfyhCd-52">
          <mxGeometry relative="1" as="geometry">
            <mxPoint x="270" y="440" as="targetPoint" />
          </mxGeometry>
        </mxCell>
        <mxCell id="9r5r1A9ahPay0bQfyhCd-52" value="" style="fontColor=#0066CC;verticalAlign=top;verticalLabelPosition=bottom;labelPosition=center;align=center;html=1;outlineConnect=0;fillColor=#CCCCCC;strokeColor=#6881B3;gradientColor=none;gradientDirection=north;strokeWidth=2;shape=mxgraph.networks.hub;" vertex="1" parent="1">
          <mxGeometry x="320" y="600" width="40" height="20" as="geometry" />
        </mxCell>
        <mxCell id="9r5r1A9ahPay0bQfyhCd-53" style="edgeStyle=orthogonalEdgeStyle;rounded=0;orthogonalLoop=1;jettySize=auto;html=1;exitX=0.5;exitY=0;exitDx=0;exitDy=0;exitPerimeter=0;fillColor=#FF0000;fontSize=38;fontColor=#000000;" edge="1" parent="1" source="9r5r1A9ahPay0bQfyhCd-54">
          <mxGeometry relative="1" as="geometry">
            <mxPoint x="270" y="440" as="targetPoint" />
          </mxGeometry>
        </mxCell>
        <mxCell id="9r5r1A9ahPay0bQfyhCd-54" value="" style="fontColor=#0066CC;verticalAlign=top;verticalLabelPosition=bottom;labelPosition=center;align=center;html=1;outlineConnect=0;fillColor=#CCCCCC;strokeColor=#6881B3;gradientColor=none;gradientDirection=north;strokeWidth=2;shape=mxgraph.networks.hub;" vertex="1" parent="1">
          <mxGeometry x="140" y="600" width="40" height="20" as="geometry" />
        </mxCell>
        <mxCell id="9r5r1A9ahPay0bQfyhCd-55" style="edgeStyle=orthogonalEdgeStyle;rounded=0;orthogonalLoop=1;jettySize=auto;html=1;fillColor=#FF0000;fontSize=38;fontColor=#000000;" edge="1" parent="1" source="9r5r1A9ahPay0bQfyhCd-56">
          <mxGeometry relative="1" as="geometry">
            <mxPoint x="270" y="440" as="targetPoint" />
          </mxGeometry>
        </mxCell>
        <mxCell id="9r5r1A9ahPay0bQfyhCd-56" value="" style="fontColor=#0066CC;verticalAlign=top;verticalLabelPosition=bottom;labelPosition=center;align=center;html=1;outlineConnect=0;fillColor=#CCCCCC;strokeColor=#6881B3;gradientColor=none;gradientDirection=north;strokeWidth=2;shape=mxgraph.networks.hub;" vertex="1" parent="1">
          <mxGeometry x="240" y="600" width="40" height="20" as="geometry" />
        </mxCell>
        <mxCell id="9r5r1A9ahPay0bQfyhCd-57" value="&lt;span style=&quot;font-size: 17px&quot;&gt;Sensors&lt;br&gt;&lt;/span&gt;" style="text;html=1;strokeColor=none;fillColor=none;align=center;verticalAlign=middle;whiteSpace=wrap;rounded=0;" vertex="1" parent="1">
          <mxGeometry x="215" y="620" width="90" height="50" as="geometry" />
        </mxCell>
        <mxCell id="9r5r1A9ahPay0bQfyhCd-58" value="&lt;span style=&quot;font-size: 17px&quot;&gt;WeatherStation&lt;/span&gt;" style="text;html=1;strokeColor=none;fillColor=none;align=center;verticalAlign=middle;whiteSpace=wrap;rounded=0;" vertex="1" parent="1">
          <mxGeometry x="215" y="180" width="90" height="50" as="geometry" />
        </mxCell>
        <mxCell id="9r5r1A9ahPay0bQfyhCd-59" value="&lt;span style=&quot;font-size: 17px&quot;&gt;Gateway&lt;/span&gt;" style="text;html=1;strokeColor=none;fillColor=none;align=center;verticalAlign=middle;whiteSpace=wrap;rounded=0;" vertex="1" parent="1">
          <mxGeometry x="280" y="435" width="90" height="50" as="geometry" />
        </mxCell>
      </root>
    </mxGraphModel>
  </diagram>
</mxfile>
